<svg xmlns="http://www.w3.org/2000/svg" xmlns:xlink="http://www.w3.org/1999/xlink" contentStyleType="text/css" height="1150px" preserveAspectRatio="none" style="width:758px;height:1150px;background:#FFFFFF;" version="1.1" viewBox="0 0 758 1150" width="758px" zoomAndPan="magnify"><defs/><g><rect fill="#FFFFFF" height="890.8438" style="stroke:#181818;stroke-width:1;" width="10" x="243.229" y="159.3125"/><rect fill="#FFFFFF" height="91.0547" style="stroke:#181818;stroke-width:1;" width="10" x="482.5059" y="189.6641"/><rect fill="#FFFFFF" height="134.4063" style="stroke:#181818;stroke-width:1;" width="10" x="482.5059" y="432.4766"/><rect fill="#FFFFFF" height="91.0547" style="stroke:#181818;stroke-width:1;" width="10" x="482.5059" y="702.2891"/><rect fill="#FFFFFF" height="151.7578" style="stroke:#181818;stroke-width:1;" width="10" x="482.5059" y="898.3984"/><rect fill="#FFFFFF" height="30.3516" style="stroke:#181818;stroke-width:1;" width="10" x="718.1855" y="220.0156"/><rect fill="#FFFFFF" height="30.3516" style="stroke:#181818;stroke-width:1;" width="10" x="718.1855" y="506.1797"/><rect fill="#FFFFFF" height="30.3516" style="stroke:#181818;stroke-width:1;" width="10" x="718.1855" y="732.6406"/><line style="stroke:#181818;stroke-width:0.5;stroke-dasharray:5.0,5.0;" x1="35" x2="35" y1="82.6094" y2="1068.1563"/><line style="stroke:#181818;stroke-width:0.5;stroke-dasharray:5.0,5.0;" x1="247.2637" x2="247.2637" y1="82.6094" y2="1068.1563"/><line style="stroke:#181818;stroke-width:0.5;stroke-dasharray:5.0,5.0;" x1="487.0957" x2="487.0957" y1="82.6094" y2="1068.1563"/><line style="stroke:#181818;stroke-width:0.5;stroke-dasharray:5.0,5.0;" x1="722.5132" x2="722.5132" y1="82.6094" y2="1068.1563"/><text fill="#000000" font-family="sans-serif" font-size="14" lengthAdjust="spacing" textLength="55.2549" x="5" y="79.5332">Manager</text><ellipse cx="35.6274" cy="13.5" fill="#E2E2F0" rx="8" ry="8" style="stroke:#181818;stroke-width:0.5;"/><path d="M35.6274,21.5 L35.6274,48.5 M22.6274,29.5 L48.6274,29.5 M35.6274,48.5 L22.6274,63.5 M35.6274,48.5 L48.6274,63.5 " fill="none" style="stroke:#181818;stroke-width:0.5;"/><text fill="#000000" font-family="sans-serif" font-size="14" lengthAdjust="spacing" textLength="55.2549" x="5" y="1081.6895">Manager</text><ellipse cx="35.6274" cy="1093.2656" fill="#E2E2F0" rx="8" ry="8" style="stroke:#181818;stroke-width:0.5;"/><path d="M35.6274,1101.2656 L35.6274,1128.2656 M22.6274,1109.2656 L48.6274,1109.2656 M35.6274,1128.2656 L22.6274,1143.2656 M35.6274,1128.2656 L48.6274,1143.2656 " fill="none" style="stroke:#181818;stroke-width:0.5;"/><rect fill="#E2E2F0" height="31.6094" rx="2.5" ry="2.5" style="stroke:#181818;stroke-width:0.5;" width="73.9307" x="211.2637" y="50"/><text fill="#000000" font-family="sans-serif" font-size="14" lengthAdjust="spacing" textLength="59.9307" x="218.2637" y="71.5332">Giao di&#7879;n</text><rect fill="#E2E2F0" height="31.6094" rx="2.5" ry="2.5" style="stroke:#181818;stroke-width:0.5;" width="73.9307" x="211.2637" y="1067.1563"/><text fill="#000000" font-family="sans-serif" font-size="14" lengthAdjust="spacing" textLength="59.9307" x="218.2637" y="1088.6895">Giao di&#7879;n</text><rect fill="#E2E2F0" height="31.6094" rx="2.5" ry="2.5" style="stroke:#181818;stroke-width:0.5;" width="70.8203" x="452.0957" y="50"/><text fill="#000000" font-family="sans-serif" font-size="14" lengthAdjust="spacing" textLength="56.8203" x="459.0957" y="71.5332">H&#7879; th&#7889;ng</text><rect fill="#E2E2F0" height="31.6094" rx="2.5" ry="2.5" style="stroke:#181818;stroke-width:0.5;" width="70.8203" x="452.0957" y="1067.1563"/><text fill="#000000" font-family="sans-serif" font-size="14" lengthAdjust="spacing" textLength="56.8203" x="459.0957" y="1088.6895">H&#7879; th&#7889;ng</text><text fill="#000000" font-family="sans-serif" font-size="14" lengthAdjust="spacing" textLength="37.3447" x="701.5132" y="79.5332">CSDL</text><path d="M705.1855,29 C705.1855,19 723.1855,19 723.1855,19 C723.1855,19 741.1855,19 741.1855,29 L741.1855,55 C741.1855,65 723.1855,65 723.1855,65 C723.1855,65 705.1855,65 705.1855,55 L705.1855,29 " fill="#E2E2F0" style="stroke:#181818;stroke-width:1.5;"/><path d="M705.1855,29 C705.1855,39 723.1855,39 723.1855,39 C723.1855,39 741.1855,39 741.1855,29 " fill="none" style="stroke:#181818;stroke-width:1.5;"/><text fill="#000000" font-family="sans-serif" font-size="14" lengthAdjust="spacing" textLength="37.3447" x="701.5132" y="1081.6895">CSDL</text><path d="M705.1855,1094.7656 C705.1855,1084.7656 723.1855,1084.7656 723.1855,1084.7656 C723.1855,1084.7656 741.1855,1084.7656 741.1855,1094.7656 L741.1855,1120.7656 C741.1855,1130.7656 723.1855,1130.7656 723.1855,1130.7656 C723.1855,1130.7656 705.1855,1130.7656 705.1855,1120.7656 L705.1855,1094.7656 " fill="#E2E2F0" style="stroke:#181818;stroke-width:1.5;"/><path d="M705.1855,1094.7656 C705.1855,1104.7656 723.1855,1104.7656 723.1855,1104.7656 C723.1855,1104.7656 741.1855,1104.7656 741.1855,1094.7656 " fill="none" style="stroke:#181818;stroke-width:1.5;"/><rect fill="#FFFFFF" height="890.8438" style="stroke:#181818;stroke-width:1;" width="10" x="243.229" y="159.3125"/><rect fill="#FFFFFF" height="91.0547" style="stroke:#181818;stroke-width:1;" width="10" x="482.5059" y="189.6641"/><rect fill="#FFFFFF" height="134.4063" style="stroke:#181818;stroke-width:1;" width="10" x="482.5059" y="432.4766"/><rect fill="#FFFFFF" height="91.0547" style="stroke:#181818;stroke-width:1;" width="10" x="482.5059" y="702.2891"/><rect fill="#FFFFFF" height="151.7578" style="stroke:#181818;stroke-width:1;" width="10" x="482.5059" y="898.3984"/><rect fill="#FFFFFF" height="30.3516" style="stroke:#181818;stroke-width:1;" width="10" x="718.1855" y="220.0156"/><rect fill="#FFFFFF" height="30.3516" style="stroke:#181818;stroke-width:1;" width="10" x="718.1855" y="506.1797"/><rect fill="#FFFFFF" height="30.3516" style="stroke:#181818;stroke-width:1;" width="10" x="718.1855" y="732.6406"/><rect fill="#EEEEEE" height="3" style="stroke:#EEEEEE;stroke-width:1;" width="749.8579" x="0" y="113.7852"/><line style="stroke:#000000;stroke-width:1;" x1="0" x2="749.8579" y1="113.7852" y2="113.7852"/><line style="stroke:#000000;stroke-width:1;" x1="0" x2="749.8579" y1="116.7852" y2="116.7852"/><rect fill="#EEEEEE" height="24.3516" style="stroke:#000000;stroke-width:2;" width="162.0972" x="293.8804" y="102.6094"/><text fill="#000000" font-family="sans-serif" font-size="13" font-weight="bold" lengthAdjust="spacing" textLength="144.4854" x="299.8804" y="120.1045">Xem danh s&#225;ch d&#7883;ch v&#7909;</text><polygon fill="#181818" points="231.229,155.3125,241.229,159.3125,231.229,163.3125,235.229,159.3125" style="stroke:#181818;stroke-width:1;"/><line style="stroke:#181818;stroke-width:1;" x1="35.6274" x2="237.229" y1="159.3125" y2="159.3125"/><text fill="#000000" font-family="sans-serif" font-size="13" lengthAdjust="spacing" textLength="188.6016" x="42.6274" y="154.4561">1. Truy c&#7853;p trang qu&#7843;n l&#253; d&#7883;ch v&#7909;</text><polygon fill="#181818" points="470.5059,185.6641,480.5059,189.6641,470.5059,193.6641,474.5059,189.6641" style="stroke:#181818;stroke-width:1;"/><line style="stroke:#181818;stroke-width:1;" x1="253.229" x2="476.5059" y1="189.6641" y2="189.6641"/><text fill="#000000" font-family="sans-serif" font-size="13" lengthAdjust="spacing" textLength="143.8188" x="260.229" y="184.8076">2. L&#7845;y danh s&#225;ch d&#7883;ch v&#7909;</text><polygon fill="#181818" points="706.1855,216.0156,716.1855,220.0156,706.1855,224.0156,710.1855,220.0156" style="stroke:#181818;stroke-width:1;"/><line style="stroke:#181818;stroke-width:1;" x1="492.5059" x2="712.1855" y1="220.0156" y2="220.0156"/><text fill="#000000" font-family="sans-serif" font-size="13" lengthAdjust="spacing" textLength="108.418" x="499.5059" y="215.1592">3. Truy v&#7845;n d&#7919; li&#7879;u</text><polygon fill="#181818" points="503.5059,246.3672,493.5059,250.3672,503.5059,254.3672,499.5059,250.3672" style="stroke:#181818;stroke-width:1;"/><line style="stroke:#181818;stroke-width:1;stroke-dasharray:2.0,2.0;" x1="497.5059" x2="722.1855" y1="250.3672" y2="250.3672"/><text fill="#000000" font-family="sans-serif" font-size="13" lengthAdjust="spacing" textLength="114.8989" x="509.5059" y="245.5107">4. Tr&#7843; v&#7873; danh s&#225;ch</text><polygon fill="#181818" points="264.229,276.7188,254.229,280.7188,264.229,284.7188,260.229,280.7188" style="stroke:#181818;stroke-width:1;"/><line style="stroke:#181818;stroke-width:1;stroke-dasharray:2.0,2.0;" x1="258.229" x2="486.5059" y1="280.7188" y2="280.7188"/><text fill="#000000" font-family="sans-serif" font-size="13" lengthAdjust="spacing" textLength="166.937" x="270.229" y="275.8623">5. Hi&#7875;n th&#7883; danh s&#225;ch d&#7883;ch v&#7909;</text><rect fill="#EEEEEE" height="3" style="stroke:#EEEEEE;stroke-width:1;" width="749.8579" x="0" y="309.8945"/><line style="stroke:#000000;stroke-width:1;" x1="0" x2="749.8579" y1="309.8945" y2="309.8945"/><line style="stroke:#000000;stroke-width:1;" x1="0" x2="749.8579" y1="312.8945" y2="312.8945"/><rect fill="#EEEEEE" height="24.3516" style="stroke:#000000;stroke-width:2;" width="129.4258" x="310.2161" y="298.7188"/><text fill="#000000" font-family="sans-serif" font-size="13" font-weight="bold" lengthAdjust="spacing" textLength="111.814" x="316.2161" y="316.2139">Th&#234;m d&#7883;ch v&#7909; m&#7899;i</text><polygon fill="#181818" points="231.229,351.4219,241.229,355.4219,231.229,359.4219,235.229,355.4219" style="stroke:#181818;stroke-width:1;"/><line style="stroke:#181818;stroke-width:1;" x1="35.6274" x2="237.229" y1="355.4219" y2="355.4219"/><text fill="#000000" font-family="sans-serif" font-size="13" lengthAdjust="spacing" textLength="162.2588" x="42.6274" y="350.5654">6. Ch&#7885;n "Th&#234;m d&#7883;ch v&#7909; m&#7899;i"</text><polygon fill="#181818" points="231.229,398.125,241.229,402.125,231.229,406.125,235.229,402.125" style="stroke:#181818;stroke-width:1;"/><line style="stroke:#181818;stroke-width:1;" x1="35.6274" x2="237.229" y1="402.125" y2="402.125"/><text fill="#000000" font-family="sans-serif" font-size="13" lengthAdjust="spacing" textLength="143.8188" x="42.6274" y="380.917">7. Nh&#7853;p th&#244;ng tin d&#7883;ch v&#7909;</text><text fill="#000000" font-family="sans-serif" font-size="13" lengthAdjust="spacing" textLength="177.6201" x="42.6274" y="397.2686">(t&#234;n, m&#244; t&#7843;, gi&#225;, th&#7901;i gian, &#7843;nh)</text><polygon fill="#181818" points="470.5059,428.4766,480.5059,432.4766,470.5059,436.4766,474.5059,432.4766" style="stroke:#181818;stroke-width:1;"/><line style="stroke:#181818;stroke-width:1;" x1="253.229" x2="476.5059" y1="432.4766" y2="432.4766"/><text fill="#000000" font-family="sans-serif" font-size="13" lengthAdjust="spacing" textLength="160.2974" x="260.229" y="427.6201">8. G&#7917;i th&#244;ng tin d&#7883;ch v&#7909; m&#7899;i</text><line style="stroke:#181818;stroke-width:1;" x1="492.5059" x2="534.5059" y1="462.8281" y2="462.8281"/><line style="stroke:#181818;stroke-width:1;" x1="534.5059" x2="534.5059" y1="462.8281" y2="475.8281"/><line style="stroke:#181818;stroke-width:1;" x1="493.5059" x2="534.5059" y1="475.8281" y2="475.8281"/><polygon fill="#181818" points="503.5059,471.8281,493.5059,475.8281,503.5059,479.8281,499.5059,475.8281" style="stroke:#181818;stroke-width:1;"/><text fill="#000000" font-family="sans-serif" font-size="13" lengthAdjust="spacing" textLength="116.3398" x="499.5059" y="457.9717">9. Ki&#7875;m tra th&#244;ng tin</text><polygon fill="#181818" points="706.1855,502.1797,716.1855,506.1797,706.1855,510.1797,710.1855,506.1797" style="stroke:#181818;stroke-width:1;"/><line style="stroke:#181818;stroke-width:1;" x1="492.5059" x2="712.1855" y1="506.1797" y2="506.1797"/><text fill="#000000" font-family="sans-serif" font-size="13" lengthAdjust="spacing" textLength="115.502" x="499.5059" y="501.3232">10. L&#432;u d&#7883;ch v&#7909; m&#7899;i</text><polygon fill="#181818" points="503.5059,532.5313,493.5059,536.5313,503.5059,540.5313,499.5059,536.5313" style="stroke:#181818;stroke-width:1;"/><line style="stroke:#181818;stroke-width:1;stroke-dasharray:2.0,2.0;" x1="497.5059" x2="722.1855" y1="536.5313" y2="536.5313"/><text fill="#000000" font-family="sans-serif" font-size="13" lengthAdjust="spacing" textLength="166.9941" x="509.5059" y="531.6748">11. X&#225;c nh&#7853;n l&#432;u th&#224;nh c&#244;ng</text><polygon fill="#181818" points="264.229,562.8828,254.229,566.8828,264.229,570.8828,260.229,566.8828" style="stroke:#181818;stroke-width:1;"/><line style="stroke:#181818;stroke-width:1;stroke-dasharray:2.0,2.0;" x1="258.229" x2="486.5059" y1="566.8828" y2="566.8828"/><text fill="#000000" font-family="sans-serif" font-size="13" lengthAdjust="spacing" textLength="184.3042" x="270.229" y="562.0264">12. Th&#244;ng b&#225;o th&#234;m th&#224;nh c&#244;ng</text><rect fill="#EEEEEE" height="3" style="stroke:#EEEEEE;stroke-width:1;" width="749.8579" x="0" y="596.0586"/><line style="stroke:#000000;stroke-width:1;" x1="0" x2="749.8579" y1="596.0586" y2="596.0586"/><line style="stroke:#000000;stroke-width:1;" x1="0" x2="749.8579" y1="599.0586" y2="599.0586"/><rect fill="#EEEEEE" height="24.3516" style="stroke:#000000;stroke-width:2;" width="122.3418" x="313.7581" y="584.8828"/><text fill="#000000" font-family="sans-serif" font-size="13" font-weight="bold" lengthAdjust="spacing" textLength="104.73" x="319.7581" y="602.3779">C&#7853;p nh&#7853;t d&#7883;ch v&#7909;</text><polygon fill="#181818" points="231.229,637.5859,241.229,641.5859,231.229,645.5859,235.229,641.5859" style="stroke:#181818;stroke-width:1;"/><line style="stroke:#181818;stroke-width:1;" x1="35.6274" x2="237.229" y1="641.5859" y2="641.5859"/><text fill="#000000" font-family="sans-serif" font-size="13" lengthAdjust="spacing" textLength="148.1797" x="42.6274" y="636.7295">13. Ch&#7885;n d&#7883;ch v&#7909; c&#7847;n s&#7917;a</text><polygon fill="#181818" points="231.229,667.9375,241.229,671.9375,231.229,675.9375,235.229,671.9375" style="stroke:#181818;stroke-width:1;"/><line style="stroke:#181818;stroke-width:1;" x1="35.6274" x2="237.229" y1="671.9375" y2="671.9375"/><text fill="#000000" font-family="sans-serif" font-size="13" lengthAdjust="spacing" textLength="127.9307" x="42.6274" y="667.0811">14. C&#7853;p nh&#7853;t th&#244;ng tin</text><polygon fill="#181818" points="470.5059,698.2891,480.5059,702.2891,470.5059,706.2891,474.5059,702.2891" style="stroke:#181818;stroke-width:1;"/><line style="stroke:#181818;stroke-width:1;" x1="253.229" x2="476.5059" y1="702.2891" y2="702.2891"/><text fill="#000000" font-family="sans-serif" font-size="13" lengthAdjust="spacing" textLength="150.3569" x="260.229" y="697.4326">15. G&#7917;i th&#244;ng tin c&#7853;p nh&#7853;t</text><polygon fill="#181818" points="706.1855,728.6406,716.1855,732.6406,706.1855,736.6406,710.1855,732.6406" style="stroke:#181818;stroke-width:1;"/><line style="stroke:#181818;stroke-width:1;" x1="492.5059" x2="712.1855" y1="732.6406" y2="732.6406"/><text fill="#000000" font-family="sans-serif" font-size="13" lengthAdjust="spacing" textLength="145.9771" x="499.5059" y="727.7842">16. C&#7853;p nh&#7853;t trong CSDL</text><polygon fill="#181818" points="503.5059,758.9922,493.5059,762.9922,503.5059,766.9922,499.5059,762.9922" style="stroke:#181818;stroke-width:1;"/><line style="stroke:#181818;stroke-width:1;stroke-dasharray:2.0,2.0;" x1="497.5059" x2="722.1855" y1="762.9922" y2="762.9922"/><text fill="#000000" font-family="sans-serif" font-size="13" lengthAdjust="spacing" textLength="130.1016" x="509.5059" y="758.1357">17. X&#225;c nh&#7853;n c&#7853;p nh&#7853;t</text><polygon fill="#181818" points="264.229,789.3438,254.229,793.3438,264.229,797.3438,260.229,793.3438" style="stroke:#181818;stroke-width:1;"/><line style="stroke:#181818;stroke-width:1;stroke-dasharray:2.0,2.0;" x1="258.229" x2="486.5059" y1="793.3438" y2="793.3438"/><text fill="#000000" font-family="sans-serif" font-size="13" lengthAdjust="spacing" textLength="205.2769" x="270.229" y="788.4873">18. Th&#244;ng b&#225;o c&#7853;p nh&#7853;t th&#224;nh c&#244;ng</text><rect fill="#EEEEEE" height="3" style="stroke:#EEEEEE;stroke-width:1;" width="749.8579" x="0" y="822.5195"/><line style="stroke:#000000;stroke-width:1;" x1="0" x2="749.8579" y1="822.5195" y2="822.5195"/><line style="stroke:#000000;stroke-width:1;" x1="0" x2="749.8579" y1="825.5195" y2="825.5195"/><rect fill="#EEEEEE" height="24.3516" style="stroke:#000000;stroke-width:2;" width="159.9199" x="294.969" y="811.3438"/><text fill="#000000" font-family="sans-serif" font-size="13" font-weight="bold" lengthAdjust="spacing" textLength="142.3081" x="300.969" y="828.8389">G&#225;n stylist cho d&#7883;ch v&#7909;</text><polygon fill="#181818" points="231.229,864.0469,241.229,868.0469,231.229,872.0469,235.229,868.0469" style="stroke:#181818;stroke-width:1;"/><line style="stroke:#181818;stroke-width:1;" x1="35.6274" x2="237.229" y1="868.0469" y2="868.0469"/><text fill="#000000" font-family="sans-serif" font-size="13" lengthAdjust="spacing" textLength="126.2866" x="42.6274" y="863.1904">19. Ch&#7885;n "G&#225;n stylist"</text><polygon fill="#181818" points="470.5059,894.3984,480.5059,898.3984,470.5059,902.3984,474.5059,898.3984" style="stroke:#181818;stroke-width:1;"/><line style="stroke:#181818;stroke-width:1;" x1="253.229" x2="476.5059" y1="898.3984" y2="898.3984"/><text fill="#000000" font-family="sans-serif" font-size="13" lengthAdjust="spacing" textLength="142.3589" x="260.229" y="893.542">20. L&#7845;y danh s&#225;ch stylist</text><polygon fill="#181818" points="264.229,924.75,254.229,928.75,264.229,932.75,260.229,928.75" style="stroke:#181818;stroke-width:1;"/><line style="stroke:#181818;stroke-width:1;stroke-dasharray:2.0,2.0;" x1="258.229" x2="481.5059" y1="928.75" y2="928.75"/><text fill="#000000" font-family="sans-serif" font-size="13" lengthAdjust="spacing" textLength="165.4771" x="270.229" y="923.8936">21. Hi&#7875;n th&#7883; danh s&#225;ch stylist</text><polygon fill="#181818" points="231.229,955.1016,241.229,959.1016,231.229,963.1016,235.229,959.1016" style="stroke:#181818;stroke-width:1;"/><line style="stroke:#181818;stroke-width:1;" x1="35.6274" x2="237.229" y1="959.1016" y2="959.1016"/><text fill="#000000" font-family="sans-serif" font-size="13" lengthAdjust="spacing" textLength="138.7471" x="42.6274" y="954.2451">22. Ch&#7885;n stylist c&#7847;n g&#225;n</text><polygon fill="#181818" points="470.5059,985.4531,480.5059,989.4531,470.5059,993.4531,474.5059,989.4531" style="stroke:#181818;stroke-width:1;"/><line style="stroke:#181818;stroke-width:1;" x1="253.229" x2="476.5059" y1="989.4531" y2="989.4531"/><text fill="#000000" font-family="sans-serif" font-size="13" lengthAdjust="spacing" textLength="123.6333" x="260.229" y="984.5967">23. L&#432;u th&#244;ng tin g&#225;n</text><polygon fill="#181818" points="711.1855,1015.8047,721.1855,1019.8047,711.1855,1023.8047,715.1855,1019.8047" style="stroke:#181818;stroke-width:1;"/><line style="stroke:#181818;stroke-width:1;" x1="492.5059" x2="717.1855" y1="1019.8047" y2="1019.8047"/><text fill="#000000" font-family="sans-serif" font-size="13" lengthAdjust="spacing" textLength="206.6797" x="499.5059" y="1014.9482">24. C&#7853;p nh&#7853;t quan h&#7879; d&#7883;ch v&#7909;-stylist</text><polygon fill="#181818" points="259.229,1046.1563,249.229,1050.1563,259.229,1054.1563,255.229,1050.1563" style="stroke:#181818;stroke-width:1;"/><line style="stroke:#181818;stroke-width:1;stroke-dasharray:2.0,2.0;" x1="253.229" x2="486.5059" y1="1050.1563" y2="1050.1563"/><text fill="#000000" font-family="sans-serif" font-size="13" lengthAdjust="spacing" textLength="177.0933" x="265.229" y="1045.2998">25. Th&#244;ng b&#225;o g&#225;n th&#224;nh c&#244;ng</text><!--SRC=[XLMxYjj05Etr5HTL2TXY9SVxC3YD0rx89arSR95cz40QiCPUQMHm6LAaM5Aa3e6OPGaiB4cnbKKgGVv3Vv8xacoFPYsfakIPSy-vvzmP4uSl8j3V4KPyBzA1n12MxzgIH9mwT4aO1trAoG9ScgTVMB4feVNrIrm17kJfD-ON6-9rpBrGSmadDeazq2SVtbmLAwwjQUCnN7iXk8G546SR9m0tJs_niShJUnYFjKe4z5yZrGXC0sPHiWOdtpukWKU4-N2JvDix1lFihmpMYCFfYd1FI4oeA51A6O5bm5M-lLytq1wGbVRo8IguzWW6bOGLbc02znlcme_aWCFEN1lw4kKh0KAPWk2JnAkvdepQCLNT3WsunDAVMU7eRPDUgKQbMFWw2xA7i6PdcAVVwH5JJmsOOFsl3FG6aAv2pWnu7vGP1DaJXi0fas4VsGkUFR0UXDaJS6oy1pxDDhsYaHyKFmWkYjo2bqewvmPCy_IHDbGk1RLajAjpOS1ROLuenaGgfiHfdk0q_FkJj74ypzF4GRp688095t3uH0Na-8a1EOAfFLWJHt1MAhAppK8WqVOcl1JgfF2y8ELTHsMmZrNUY2Vd5uCO7IRF43YbDGB9j7f6vl18I8u4xJX3vgdA52smYhWQMbq_gxjUOsmt_BnkkAEqsUNxDDkWQNmzfp479rXqUNznE58oL5TlefCZLr6rjz72YiCocs-7NGb5bcNjPUrxASR1Husgj45rBgI4Ystr92rrPcuImY0G_mAIHVsT8BM7OJqMGT0LX_GBtkp_0G00]--></g></svg>