<svg xmlns="http://www.w3.org/2000/svg" xmlns:xlink="http://www.w3.org/1999/xlink" contentStyleType="text/css" height="631px" preserveAspectRatio="none" style="width:754px;height:631px;background:#FFFFFF;" version="1.1" viewBox="0 0 754 631" width="754px" zoomAndPan="magnify"><defs/><g><rect fill="#FFFFFF" height="448.2734" style="stroke:#181818;stroke-width:1;" width="10" x="40.3652" y="92.6094"/><rect fill="#FFFFFF" height="364.2188" style="stroke:#181818;stroke-width:1;" width="10" x="242.0322" y="114.9609"/><rect fill="#FFFFFF" height="30.3516" style="stroke:#181818;stroke-width:1;" width="10" x="530.4209" y="145.3125"/><rect fill="#FFFFFF" height="30.3516" style="stroke:#181818;stroke-width:1;" width="10" x="530.4209" y="236.3672"/><rect fill="#FFFFFF" height="60.7031" style="stroke:#181818;stroke-width:1;" width="10" x="530.4209" y="388.125"/><line style="stroke:#181818;stroke-width:0.5;stroke-dasharray:5.0,5.0;" x1="45" x2="45" y1="82.6094" y2="549.8828"/><line style="stroke:#181818;stroke-width:0.5;stroke-dasharray:5.0,5.0;" x1="246.0669" x2="246.0669" y1="82.6094" y2="549.8828"/><line style="stroke:#181818;stroke-width:0.5;stroke-dasharray:5.0,5.0;" x1="535.0107" x2="535.0107" y1="82.6094" y2="549.8828"/><line style="stroke:#181818;stroke-width:0.5;stroke-dasharray:5.0,5.0;" x1="721.8721" x2="721.8721" y1="82.6094" y2="549.8828"/><text fill="#000000" font-family="sans-serif" font-size="14" lengthAdjust="spacing" textLength="74.7305" x="5" y="79.5332">Kh&#225;ch h&#224;ng</text><ellipse cx="45.3652" cy="13.5" fill="#E2E2F0" rx="8" ry="8" style="stroke:#181818;stroke-width:0.5;"/><path d="M45.3652,21.5 L45.3652,48.5 M32.3652,29.5 L58.3652,29.5 M45.3652,48.5 L32.3652,63.5 M45.3652,48.5 L58.3652,63.5 " fill="none" style="stroke:#181818;stroke-width:0.5;"/><text fill="#000000" font-family="sans-serif" font-size="14" lengthAdjust="spacing" textLength="74.7305" x="5" y="563.416">Kh&#225;ch h&#224;ng</text><ellipse cx="45.3652" cy="574.9922" fill="#E2E2F0" rx="8" ry="8" style="stroke:#181818;stroke-width:0.5;"/><path d="M45.3652,582.9922 L45.3652,609.9922 M32.3652,590.9922 L58.3652,590.9922 M45.3652,609.9922 L32.3652,624.9922 M45.3652,609.9922 L58.3652,624.9922 " fill="none" style="stroke:#181818;stroke-width:0.5;"/><rect fill="#E2E2F0" height="31.6094" rx="2.5" ry="2.5" style="stroke:#181818;stroke-width:0.5;" width="73.9307" x="210.0669" y="50"/><text fill="#000000" font-family="sans-serif" font-size="14" lengthAdjust="spacing" textLength="59.9307" x="217.0669" y="71.5332">Giao di&#7879;n</text><rect fill="#E2E2F0" height="31.6094" rx="2.5" ry="2.5" style="stroke:#181818;stroke-width:0.5;" width="73.9307" x="210.0669" y="548.8828"/><text fill="#000000" font-family="sans-serif" font-size="14" lengthAdjust="spacing" textLength="59.9307" x="217.0669" y="570.416">Giao di&#7879;n</text><rect fill="#E2E2F0" height="31.6094" rx="2.5" ry="2.5" style="stroke:#181818;stroke-width:0.5;" width="70.8203" x="500.0107" y="50"/><text fill="#000000" font-family="sans-serif" font-size="14" lengthAdjust="spacing" textLength="56.8203" x="507.0107" y="71.5332">H&#7879; th&#7889;ng</text><rect fill="#E2E2F0" height="31.6094" rx="2.5" ry="2.5" style="stroke:#181818;stroke-width:0.5;" width="70.8203" x="500.0107" y="548.8828"/><text fill="#000000" font-family="sans-serif" font-size="14" lengthAdjust="spacing" textLength="56.8203" x="507.0107" y="570.416">H&#7879; th&#7889;ng</text><rect fill="#E2E2F0" height="31.6094" rx="2.5" ry="2.5" style="stroke:#181818;stroke-width:0.5;" width="51.3379" x="696.8721" y="50"/><text fill="#000000" font-family="sans-serif" font-size="14" lengthAdjust="spacing" textLength="37.3379" x="703.8721" y="71.5332">Stylist</text><rect fill="#E2E2F0" height="31.6094" rx="2.5" ry="2.5" style="stroke:#181818;stroke-width:0.5;" width="51.3379" x="696.8721" y="548.8828"/><text fill="#000000" font-family="sans-serif" font-size="14" lengthAdjust="spacing" textLength="37.3379" x="703.8721" y="570.416">Stylist</text><rect fill="#FFFFFF" height="448.2734" style="stroke:#181818;stroke-width:1;" width="10" x="40.3652" y="92.6094"/><rect fill="#FFFFFF" height="364.2188" style="stroke:#181818;stroke-width:1;" width="10" x="242.0322" y="114.9609"/><rect fill="#FFFFFF" height="30.3516" style="stroke:#181818;stroke-width:1;" width="10" x="530.4209" y="145.3125"/><rect fill="#FFFFFF" height="30.3516" style="stroke:#181818;stroke-width:1;" width="10" x="530.4209" y="236.3672"/><rect fill="#FFFFFF" height="60.7031" style="stroke:#181818;stroke-width:1;" width="10" x="530.4209" y="388.125"/><polygon fill="#181818" points="230.0322,110.9609,240.0322,114.9609,230.0322,118.9609,234.0322,114.9609" style="stroke:#181818;stroke-width:1;"/><line style="stroke:#181818;stroke-width:1;" x1="50.3652" x2="236.0322" y1="114.9609" y2="114.9609"/><text fill="#000000" font-family="sans-serif" font-size="13" lengthAdjust="spacing" textLength="90.3335" x="57.3652" y="110.1045">1. Ch&#7885;n d&#7883;ch v&#7909;</text><polygon fill="#181818" points="518.4209,141.3125,528.4209,145.3125,518.4209,149.3125,522.4209,145.3125" style="stroke:#181818;stroke-width:1;"/><line style="stroke:#181818;stroke-width:1;" x1="252.0322" x2="524.4209" y1="145.3125" y2="145.3125"/><text fill="#000000" font-family="sans-serif" font-size="13" lengthAdjust="spacing" textLength="187.0273" x="259.0322" y="140.4561">2. L&#7845;y danh s&#225;ch stylist ph&#249; h&#7907;p</text><polygon fill="#181818" points="263.0322,171.6641,253.0322,175.6641,263.0322,179.6641,259.0322,175.6641" style="stroke:#181818;stroke-width:1;"/><line style="stroke:#181818;stroke-width:1;stroke-dasharray:2.0,2.0;" x1="257.0322" x2="534.4209" y1="175.6641" y2="175.6641"/><text fill="#000000" font-family="sans-serif" font-size="13" lengthAdjust="spacing" textLength="254.3887" x="269.0322" y="170.8076">3. Danh s&#225;ch stylist c&#243; th&#7875; th&#7921;c hi&#7879;n d&#7883;ch v&#7909;</text><polygon fill="#181818" points="230.0322,202.0156,240.0322,206.0156,230.0322,210.0156,234.0322,206.0156" style="stroke:#181818;stroke-width:1;"/><line style="stroke:#181818;stroke-width:1;" x1="50.3652" x2="236.0322" y1="206.0156" y2="206.0156"/><text fill="#000000" font-family="sans-serif" font-size="13" lengthAdjust="spacing" textLength="81.6436" x="57.3652" y="201.1592">4. Ch&#7885;n stylist</text><polygon fill="#181818" points="518.4209,232.3672,528.4209,236.3672,518.4209,240.3672,522.4209,236.3672" style="stroke:#181818;stroke-width:1;"/><line style="stroke:#181818;stroke-width:1;" x1="252.0322" x2="524.4209" y1="236.3672" y2="236.3672"/><text fill="#000000" font-family="sans-serif" font-size="13" lengthAdjust="spacing" textLength="152.458" x="259.0322" y="231.5107">5. L&#7845;y l&#7883;ch tr&#7889;ng c&#7911;a stylist</text><polygon fill="#181818" points="263.0322,262.7188,253.0322,266.7188,263.0322,270.7188,259.0322,266.7188" style="stroke:#181818;stroke-width:1;"/><line style="stroke:#181818;stroke-width:1;stroke-dasharray:2.0,2.0;" x1="257.0322" x2="534.4209" y1="266.7188" y2="266.7188"/><text fill="#000000" font-family="sans-serif" font-size="13" lengthAdjust="spacing" textLength="197.1392" x="269.0322" y="261.8623">6. Hi&#7875;n th&#7883; c&#225;c ng&#224;y gi&#7901; c&#243; th&#7875; &#273;&#7863;t</text><polygon fill="#181818" points="230.0322,293.0703,240.0322,297.0703,230.0322,301.0703,234.0322,297.0703" style="stroke:#181818;stroke-width:1;"/><line style="stroke:#181818;stroke-width:1;" x1="50.3652" x2="236.0322" y1="297.0703" y2="297.0703"/><text fill="#000000" font-family="sans-serif" font-size="13" lengthAdjust="spacing" textLength="99.5884" x="57.3652" y="292.2139">7. Ch&#7885;n ng&#224;y gi&#7901;</text><polygon fill="#181818" points="230.0322,323.4219,240.0322,327.4219,230.0322,331.4219,234.0322,327.4219" style="stroke:#181818;stroke-width:1;"/><line style="stroke:#181818;stroke-width:1;" x1="50.3652" x2="236.0322" y1="327.4219" y2="327.4219"/><text fill="#000000" font-family="sans-serif" font-size="13" lengthAdjust="spacing" textLength="144.5171" x="57.3652" y="322.5654">8. Th&#234;m ghi ch&#250; (n&#7871;u c&#243;)</text><polygon fill="#181818" points="230.0322,353.7734,240.0322,357.7734,230.0322,361.7734,234.0322,357.7734" style="stroke:#181818;stroke-width:1;"/><line style="stroke:#181818;stroke-width:1;" x1="50.3652" x2="236.0322" y1="357.7734" y2="357.7734"/><text fill="#000000" font-family="sans-serif" font-size="13" lengthAdjust="spacing" textLength="114.188" x="57.3652" y="352.917">9. X&#225;c nh&#7853;n &#273;&#7863;t l&#7883;ch</text><polygon fill="#181818" points="518.4209,384.125,528.4209,388.125,518.4209,392.125,522.4209,388.125" style="stroke:#181818;stroke-width:1;"/><line style="stroke:#181818;stroke-width:1;" x1="252.0322" x2="524.4209" y1="388.125" y2="388.125"/><text fill="#000000" font-family="sans-serif" font-size="13" lengthAdjust="spacing" textLength="92.5044" x="259.0322" y="383.2686">10. T&#7841;o l&#7883;ch h&#7865;n</text><polygon fill="#181818" points="710.541,414.4766,720.541,418.4766,710.541,422.4766,714.541,418.4766" style="stroke:#181818;stroke-width:1;"/><line style="stroke:#181818;stroke-width:1;" x1="540.4209" x2="716.541" y1="418.4766" y2="418.4766"/><text fill="#000000" font-family="sans-serif" font-size="13" lengthAdjust="spacing" textLength="158.1201" x="547.4209" y="413.6201">11. Th&#244;ng b&#225;o l&#7883;ch h&#7865;n m&#7899;i</text><polygon fill="#181818" points="263.0322,444.8281,253.0322,448.8281,263.0322,452.8281,259.0322,448.8281" style="stroke:#181818;stroke-width:1;"/><line style="stroke:#181818;stroke-width:1;stroke-dasharray:2.0,2.0;" x1="257.0322" x2="534.4209" y1="448.8281" y2="448.8281"/><text fill="#000000" font-family="sans-serif" font-size="13" lengthAdjust="spacing" textLength="189.3633" x="269.0322" y="443.9717">12. X&#225;c nh&#7853;n &#273;&#7863;t l&#7883;ch th&#224;nh c&#244;ng</text><polygon fill="#181818" points="61.3652,475.1797,51.3652,479.1797,61.3652,483.1797,57.3652,479.1797" style="stroke:#181818;stroke-width:1;"/><line style="stroke:#181818;stroke-width:1;stroke-dasharray:2.0,2.0;" x1="55.3652" x2="246.0322" y1="479.1797" y2="479.1797"/><text fill="#000000" font-family="sans-serif" font-size="13" lengthAdjust="spacing" textLength="167.667" x="67.3652" y="474.3232">13. Hi&#7875;n th&#7883; th&#244;ng tin l&#7883;ch h&#7865;n</text><path d="M540,492.1797 L540,534.1797 L683,534.1797 L683,502.1797 L673,492.1797 L540,492.1797 " fill="#FEFFDD" style="stroke:#181818;stroke-width:0.5;"/><path d="M673,492.1797 L673,502.1797 L683,502.1797 L673,492.1797 " fill="#FEFFDD" style="stroke:#181818;stroke-width:0.5;"/><text fill="#000000" font-family="sans-serif" font-size="13" lengthAdjust="spacing" textLength="118.479" x="546" y="510.6748">Stylist s&#7869; xem x&#233;t v&#224;</text><text fill="#000000" font-family="sans-serif" font-size="13" lengthAdjust="spacing" textLength="122.8716" x="546" y="527.0264">ph&#7843;n h&#7891;i l&#7883;ch h&#7865;n sau</text><!--SRC=[ZPEzJjn058LxFyNHLgJ0oaB-eA012QIa8qNQoTXuHcB7bZrUiJL52fG2KKQHTeLG5AGKKP0GjYAAuKNcJRWUsxjhB_bfx97dtdE_Spp3k8vJ3DuAC-C2manLD03BmFDCnwCmzHAMQibbmfJ6O5-o686qvIVbgdBPtJ-W7MXXo_D69fjaEXnrYmxrv5Xckjwlrvx7k9PZfiF5u7Q1zHsQiusXZrrI_gmGsFACOCUsl5hq4OgNowgudhcD3H_lR74rGS2KGEOCDlEG27C7KhjC5WeDQ_t2UZDsqyVUQZytlvpFK_VyoI5SA1sq8EnBhtXwCVSq3wBhuMNhuRWMrgdB5joMtzYywHyMNlau8BnJvM3F27x6eI8pdI2Yxr-Nt3oSs-9M_m_wwpdwaj9ArHiVxuMv7Y4I4boO0clA5lTvDVBPIlMMZm-EJTZYXsfW6klzP8RFITeMixYDXdhkr1-Zs6d3eiwXWxgX63-QNZz6jlmY-m4ED_u2HidHhH7aY1IVIgxY9g7MBCbjzdw8hccqL5qpIsBLyLOnBL8P2Otug9K7clk4p1Q_SKBO9-QxnjXCGPi9ALsgwgXVoAxJZELUg09KgjuZ]--></g></svg>