<svg xmlns="http://www.w3.org/2000/svg" xmlns:xlink="http://www.w3.org/1999/xlink" contentStyleType="text/css" height="385px" preserveAspectRatio="none" style="width:588px;height:385px;background:#FFFFFF;" version="1.1" viewBox="0 0 588 385" width="588px" zoomAndPan="magnify"><defs/><g><!--cluster H? th?ng--><g id="cluster_H&#7879; th&#7889;ng"><rect fill="none" height="372" rx="2.5" ry="2.5" style="stroke:#181818;stroke-width:1;" width="492.51" x="90.34" y="7"/><text fill="#000000" font-family="sans-serif" font-size="14" font-weight="bold" lengthAdjust="spacing" textLength="60.6553" x="306.2674" y="23.5332">H&#7879; th&#7889;ng</text></g><g id="elem_ViewStylistAppointment"><ellipse cx="191.2184" cy="58.9957" fill="#FFFFCC" rx="67.7284" ry="15.9457" style="stroke:#181818;stroke-width:0.5;"/><text fill="#000000" font-family="sans-serif" font-size="14" lengthAdjust="spacing" textLength="80.9307" x="147.7531" y="63.5123">Xem l&#7883;ch h&#7865;n</text></g><g id="elem_AcceptAppointment"><ellipse cx="191.2246" cy="129.0009" fill="#FFFFCC" rx="82.6046" ry="18.9209" style="stroke:#181818;stroke-width:0.5;"/><text fill="#000000" font-family="sans-serif" font-size="14" lengthAdjust="spacing" textLength="120.6475" x="130.9009" y="132.7294">Ch&#7845;p nh&#7853;n l&#7883;ch h&#7865;n</text></g><g id="elem_RejectAppointment"><ellipse cx="191.2179" cy="199.9996" fill="#FFFFCC" rx="74.3479" ry="17.2696" style="stroke:#181818;stroke-width:0.5;"/><text fill="#000000" font-family="sans-serif" font-size="14" lengthAdjust="spacing" textLength="99.6406" x="138.3976" y="204.5162">T&#7915; ch&#7889;i l&#7883;ch h&#7865;n</text></g><g id="elem_EnterReason"><ellipse cx="479.9784" cy="199.998" fill="#FFFFCC" rx="59.3784" ry="15.578" style="stroke:#181818;stroke-width:0.5;"/><text fill="#000000" font-family="sans-serif" font-size="14" lengthAdjust="spacing" textLength="66.9307" x="443.5131" y="204.5146">Nh&#7853;p l&#253; do</text></g><g id="elem_UpdateStatus"><ellipse cx="191.2242" cy="271.0008" fill="#FFFFCC" rx="81.9542" ry="18.7908" style="stroke:#181818;stroke-width:0.5;"/><text fill="#000000" font-family="sans-serif" font-size="14" lengthAdjust="spacing" textLength="119.082" x="131.5281" y="274.7755">C&#7853;p nh&#7853;t tr&#7841;ng th&#225;i</text></g><g id="elem_MarkComplete"><ellipse cx="479.9818" cy="343.0044" fill="#FFFFCC" rx="86.8718" ry="19.7744" style="stroke:#181818;stroke-width:0.5;"/><text fill="#000000" font-family="sans-serif" font-size="14" lengthAdjust="spacing" textLength="130.7783" x="414.5926" y="346.7329">C&#7853;p nh&#7853;t ho&#224;n th&#224;nh</text></g><g id="elem_MarkAbsent"><ellipse cx="479.9794" cy="268.9959" fill="#FFFFCC" rx="81.6294" ry="18.7259" style="stroke:#181818;stroke-width:0.5;"/><text fill="#000000" font-family="sans-serif" font-size="14" lengthAdjust="spacing" textLength="118.2959" x="420.5422" y="272.81">C&#7853;p nh&#7853;t v&#7855;ng m&#7863;t</text></g><g id="elem_ViewHistory"><ellipse cx="191.2153" cy="343.9971" fill="#FFFFCC" rx="84.8853" ry="19.3771" style="stroke:#181818;stroke-width:0.5;"/><text fill="#000000" font-family="sans-serif" font-size="14" lengthAdjust="spacing" textLength="126.0889" x="128.1708" y="347.7256">Xem l&#7883;ch s&#7917; l&#7883;ch h&#7865;n</text></g><!--entity Stylist--><g id="elem_Stylist"><ellipse cx="24.6689" cy="169.7" fill="#F1F1F1" rx="8" ry="8" style="stroke:#181818;stroke-width:0.5;"/><path d="M24.6689,177.7 L24.6689,204.7 M11.6689,185.7 L37.6689,185.7 M24.6689,204.7 L11.6689,219.7 M24.6689,204.7 L37.6689,219.7 " fill="none" style="stroke:#181818;stroke-width:0.5;"/><text fill="#000000" font-family="sans-serif" font-size="14" lengthAdjust="spacing" textLength="37.3379" x="6" y="235.7332">Stylist</text></g><!--link Stylist to ViewStylistAppointment--><g id="link_Stylist_ViewStylistAppointment"><path d="M37.98,160.73 C46.95,138.02 61.26,110.56 82.34,93 C96.97,80.81 116.01,72.97 134.01,67.95 " fill="none" id="Stylist-ViewStylistAppointment" style="stroke:#181818;stroke-width:1;"/></g><!--link Stylist to AcceptAppointment--><g id="link_Stylist_AcceptAppointment"><path d="M43.44,187.54 C54.32,180.3 68.72,171.37 82.34,165 C99.86,156.8 119.78,149.6 137.69,143.84 " fill="none" id="Stylist-AcceptAppointment" style="stroke:#181818;stroke-width:1;"/></g><!--link Stylist to RejectAppointment--><g id="link_Stylist_RejectAppointment"><path d="M43.59,200 C61.25,200 89.43,200 116.38,200 " fill="none" id="Stylist-RejectAppointment" style="stroke:#181818;stroke-width:1;"/></g><!--link RejectAppointment to EnterReason--><g id="link_RejectAppointment_EnterReason"><path d="M266.07,200 C314.03,200 369.68,200 414.29,200 " fill="none" id="RejectAppointment-to-EnterReason" style="stroke:#181818;stroke-width:1;stroke-dasharray:7.0,7.0;"/><polygon fill="#181818" points="420.29,200,411.29,196,415.29,200,411.29,204,420.29,200" style="stroke:#181818;stroke-width:1;"/><text fill="#000000" font-family="sans-serif" font-size="13" lengthAdjust="spacing" textLength="55.6563" x="307.11" y="196.4951">&#171;include&#187;</text></g><!--link Stylist to UpdateStatus--><g id="link_Stylist_UpdateStatus"><path d="M43.44,212.46 C54.32,219.7 68.72,228.63 82.34,235 C100.04,243.29 120.19,250.55 138.24,256.34 " fill="none" id="Stylist-UpdateStatus" style="stroke:#181818;stroke-width:1;"/></g><!--reverse link UpdateStatus to MarkComplete--><g id="link_UpdateStatus_MarkComplete"><path d="M253.6695,286.4307 C303.3495,298.9007 370.04,315.65 420.55,328.33 " fill="none" id="UpdateStatus-backto-MarkComplete" style="stroke:#181818;stroke-width:1;stroke-dasharray:7.0,7.0;"/><polygon fill="#181818" points="247.85,284.97,255.6054,291.0407,252.6996,286.1873,257.553,283.2814,247.85,284.97" style="stroke:#181818;stroke-width:1;"/><text fill="#000000" font-family="sans-serif" font-size="13" lengthAdjust="spacing" textLength="53.4917" x="308.11" y="297.0451">&#171;extend&#187;</text></g><!--reverse link UpdateStatus to MarkAbsent--><g id="link_UpdateStatus_MarkAbsent"><path d="M279.6299,270.3885 C318.7099,270.1185 359.39,269.83 398.36,269.56 " fill="none" id="UpdateStatus-backto-MarkAbsent" style="stroke:#181818;stroke-width:1;stroke-dasharray:7.0,7.0;"/><polygon fill="#181818" points="273.63,270.43,282.6574,274.3677,278.6299,270.3955,282.6022,266.3679,273.63,270.43" style="stroke:#181818;stroke-width:1;"/><text fill="#000000" font-family="sans-serif" font-size="13" lengthAdjust="spacing" textLength="53.4917" x="308.11" y="266.3151">&#171;extend&#187;</text></g><!--link Stylist to ViewHistory--><g id="link_Stylist_ViewHistory"><path d="M38.14,239.08 C47.16,261.72 61.48,289.18 82.34,307 C95.06,317.87 111.14,325.59 126.97,331.07 " fill="none" id="Stylist-ViewHistory" style="stroke:#181818;stroke-width:1;"/></g><!--SRC=[VPAnJkD048PxFyKeFNc0KnGfYP10uYWmd6ZtreEzb_MijJlcY10r1TMz0HHNdT2LY5XKUP9z4tPz0SLdZ1lBi_FD_Fl_Taj5bR2YXDgX50xXEe7mp8LSvjRKb2sCDXRcP-dXyNwQ9ZT9ujuPCZm47Acyu7IvckiQ8wJnWe4Ds5Y7J5cKh0mbYP0SsbDUQUKuIM9TKAuHHWU-kGKkVFEByj5spPlAqJcMe7rp9mie_FgPHY0SV5FuSpjfLbL64PT8t0KNeVrt1HHUZzGVCPCIgs7wr3T_G4PDgi-Uu8-WVf0zZYihq9iNo4mBx1EZFK7XeX5TbMrhApBOPltwWVBWnUP1jU1PbGd6b0NNxXEmC9jxYjWz5IttLTZbmfILHiPFk4k__XlsbNxznE_SxBkBLngCmVdcyUD83a8UngxYRx1D1_RsXiBQwUXdiNFODxjNWV5ukkinV879H97KTORJQKTCnz3T3vYCnntRsY5unKXPcF5Xwp-dket_t_pDarS0]--></g></svg>