<svg xmlns="http://www.w3.org/2000/svg" xmlns:xlink="http://www.w3.org/1999/xlink" contentStyleType="text/css" height="515px" preserveAspectRatio="none" style="width:666px;height:515px;background:#FFFFFF;" version="1.1" viewBox="0 0 666 515" width="666px" zoomAndPan="magnify"><defs/><g><g id="Pending"><rect fill="#F1F1F1" height="50" rx="12.5" ry="12.5" style="stroke:#181818;stroke-width:0.5;" width="71.3789" x="49.44" y="104"/><line style="stroke:#181818;stroke-width:0.5;" x1="49.44" x2="120.8189" y1="131.6094" y2="131.6094"/><text fill="#000000" font-family="sans-serif" font-size="14" lengthAdjust="spacing" textLength="51.3789" x="59.44" y="123.5332">Pending</text></g><g id="Confirmed"><rect fill="#F1F1F1" height="50" rx="12.5" ry="12.5" style="stroke:#181818;stroke-width:0.5;" width="84.5791" x="199.84" y="232"/><line style="stroke:#181818;stroke-width:0.5;" x1="199.84" x2="284.4191" y1="259.6094" y2="259.6094"/><text fill="#000000" font-family="sans-serif" font-size="14" lengthAdjust="spacing" textLength="64.5791" x="209.84" y="251.5332">Confirmed</text></g><g id="Completed"><rect fill="#F1F1F1" height="50" rx="12.5" ry="12.5" style="stroke:#181818;stroke-width:0.5;" width="87.7031" x="448.28" y="376"/><line style="stroke:#181818;stroke-width:0.5;" x1="448.28" x2="535.9831" y1="403.6094" y2="403.6094"/><text fill="#000000" font-family="sans-serif" font-size="14" lengthAdjust="spacing" textLength="67.7031" x="458.28" y="395.5332">Completed</text></g><g id="Cancelled"><rect fill="#F1F1F1" height="50" rx="12.5" ry="12.5" style="stroke:#181818;stroke-width:0.5;" width="82.2617" x="7" y="376"/><line style="stroke:#181818;stroke-width:0.5;" x1="7" x2="89.2617" y1="403.6094" y2="403.6094"/><text fill="#000000" font-family="sans-serif" font-size="14" lengthAdjust="spacing" textLength="62.2617" x="17" y="395.5332">Cancelled</text></g><g id="NoShow"><rect fill="#F1F1F1" height="50" rx="12.5" ry="12.5" style="stroke:#181818;stroke-width:0.5;" width="72.917" x="221.67" y="376"/><line style="stroke:#181818;stroke-width:0.5;" x1="221.67" x2="294.587" y1="403.6094" y2="403.6094"/><text fill="#000000" font-family="sans-serif" font-size="14" lengthAdjust="spacing" textLength="52.917" x="231.67" y="395.5332">NoShow</text></g><ellipse cx="85.13" cy="16" fill="#222222" rx="10" ry="10" style="stroke:#222222;stroke-width:1;"/><ellipse cx="258.13" cy="498" fill="none" rx="11" ry="11" style="stroke:#222222;stroke-width:1;"/><ellipse cx="258.13" cy="498" fill="#222222" rx="6" ry="6" style="stroke:#222222;stroke-width:1;"/><g id="elem_GMN2"><path d="M155.87,115.82 L155.87,125 L120.87,129 L155.87,133 L155.87,142.1716 A0,0 0 0 0 155.87,142.1716 L258.3866,142.1716 A0,0 0 0 0 258.3866,142.1716 L258.3866,125.82 L248.3866,115.82 L155.87,115.82 A0,0 0 0 0 155.87,115.82 " fill="#FEFFDD" style="stroke:#181818;stroke-width:0.5;"/><path d="M248.3866,115.82 L248.3866,125.82 L258.3866,125.82 L248.3866,115.82 " fill="#FEFFDD" style="stroke:#181818;stroke-width:0.5;"/><text fill="#000000" font-family="sans-serif" font-size="13" lengthAdjust="spacing" textLength="81.5166" x="161.87" y="134.3151">Ch&#7901; x&#225;c nh&#7853;n</text></g><g id="elem_GMN5"><path d="M319.14,243.82 L319.14,253 L284.76,257 L319.14,261 L319.14,270.1716 A0,0 0 0 0 319.14,270.1716 L413.1317,270.1716 A0,0 0 0 0 413.1317,270.1716 L413.1317,253.82 L403.1317,243.82 L319.14,243.82 A0,0 0 0 0 319.14,243.82 " fill="#FEFFDD" style="stroke:#181818;stroke-width:0.5;"/><path d="M403.1317,243.82 L403.1317,253.82 L413.1317,253.82 L403.1317,243.82 " fill="#FEFFDD" style="stroke:#181818;stroke-width:0.5;"/><text fill="#000000" font-family="sans-serif" font-size="13" lengthAdjust="spacing" textLength="72.9917" x="325.14" y="262.3151">&#272;&#227; x&#225;c nh&#7853;n</text></g><g id="elem_GMN8"><path d="M571.02,387.82 L571.02,397 L536.33,401 L571.02,405 L571.02,414.1716 A0,0 0 0 0 571.02,414.1716 L659.2417,414.1716 A0,0 0 0 0 659.2417,414.1716 L659.2417,397.82 L649.2417,387.82 L571.02,387.82 A0,0 0 0 0 571.02,387.82 " fill="#FEFFDD" style="stroke:#181818;stroke-width:0.5;"/><path d="M649.2417,387.82 L649.2417,397.82 L659.2417,397.82 L649.2417,387.82 " fill="#FEFFDD" style="stroke:#181818;stroke-width:0.5;"/><text fill="#000000" font-family="sans-serif" font-size="13" lengthAdjust="spacing" textLength="67.2217" x="577.02" y="406.3151">Ho&#224;n th&#224;nh</text></g><g id="elem_GMN11"><path d="M124.04,387.82 L124.04,397 L89.51,401 L124.04,405 L124.04,414.1716 A0,0 0 0 0 124.04,414.1716 L186.2299,414.1716 A0,0 0 0 0 186.2299,414.1716 L186.2299,397.82 L176.2299,387.82 L124.04,387.82 A0,0 0 0 0 124.04,387.82 " fill="#FEFFDD" style="stroke:#181818;stroke-width:0.5;"/><path d="M176.2299,387.82 L176.2299,397.82 L186.2299,397.82 L176.2299,387.82 " fill="#FEFFDD" style="stroke:#181818;stroke-width:0.5;"/><text fill="#000000" font-family="sans-serif" font-size="13" lengthAdjust="spacing" textLength="41.1899" x="130.04" y="406.3151">&#272;&#227; h&#7911;y</text></g><g id="elem_GMN14"><path d="M329.18,387.82 L329.18,397 L294.77,401 L329.18,405 L329.18,414.1716 A0,0 0 0 0 329.18,414.1716 L413.0726,414.1716 A0,0 0 0 0 413.0726,414.1716 L413.0726,397.82 L403.0726,387.82 L329.18,387.82 A0,0 0 0 0 329.18,387.82 " fill="#FEFFDD" style="stroke:#181818;stroke-width:0.5;"/><path d="M403.0726,387.82 L403.0726,397.82 L413.0726,397.82 L403.0726,387.82 " fill="#FEFFDD" style="stroke:#181818;stroke-width:0.5;"/><text fill="#000000" font-family="sans-serif" font-size="13" lengthAdjust="spacing" textLength="62.8926" x="335.18" y="406.3151">Kh&#244;ng &#273;&#7871;n</text></g><!--link *start* to Pending--><g id="link_*start*_Pending"><path d="M85.13,26.46 C85.13,43.45 85.13,73.6 85.13,97.85 " fill="none" id="*start*-to-Pending" style="stroke:#181818;stroke-width:1;"/><polygon fill="#181818" points="85.13,103.85,89.13,94.85,85.13,98.85,81.13,94.85,85.13,103.85" style="stroke:#181818;stroke-width:1;"/><text fill="#000000" font-family="sans-serif" font-size="13" lengthAdjust="spacing" textLength="70.8208" x="86.13" y="70.4951">T&#7841;o l&#7883;ch h&#7865;n</text></g><!--link Pending to Confirmed--><g id="link_Pending_Confirmed"><path d="M115.4,154.29 C143.11,176.53 179.2409,205.5242 207.0109,227.8142 " fill="none" id="Pending-to-Confirmed" style="stroke:#181818;stroke-width:1;"/><polygon fill="#181818" points="211.69,231.57,207.1752,222.8169,207.7907,228.4402,202.1675,229.0558,211.69,231.57" style="stroke:#181818;stroke-width:1;"/><text fill="#000000" font-family="sans-serif" font-size="13" lengthAdjust="spacing" textLength="99.0044" x="174.03" y="198.4951">Stylist ch&#7845;p nh&#7853;n</text></g><!--link Pending to Cancelled--><g id="link_Pending_Cancelled"><path d="M81.78,154.44 C74.74,205.84 59.2742,318.6855 52.2642,369.8655 " fill="none" id="Pending-to-Cancelled" style="stroke:#181818;stroke-width:1;"/><polygon fill="#181818" points="51.45,375.81,56.6343,367.4361,52.1285,370.8563,48.7083,366.3504,51.45,375.81" style="stroke:#181818;stroke-width:1;"/><text fill="#000000" font-family="sans-serif" font-size="13" lengthAdjust="spacing" textLength="45.373" x="96.5389" y="254.4951">H&#7911;y b&#7903;i</text><text fill="#000000" font-family="sans-serif" font-size="13" lengthAdjust="spacing" textLength="94.6309" x="71.91" y="270.8467">Customer/Stylist</text></g><!--link Confirmed to Completed--><g id="link_Confirmed_Completed"><path d="M284.75,274.82 C308.35,284.67 337.92,297.93 363.13,312 C397.45,331.16 429.4402,353.3037 454.9202,371.9737 " fill="none" id="Confirmed-to-Completed" style="stroke:#181818;stroke-width:1;"/><polygon fill="#181818" points="459.76,375.52,454.8645,366.974,455.7268,372.5648,450.1361,373.4271,459.76,375.52" style="stroke:#181818;stroke-width:1;"/><text fill="#000000" font-family="sans-serif" font-size="13" lengthAdjust="spacing" textLength="85.2935" x="418.72" y="334.4951">&#272;&#227; ho&#224;n th&#224;nh</text></g><!--link Confirmed to Cancelled--><g id="link_Confirmed_Cancelled"><path d="M199.8,278.5 C182.02,287.81 161.49,299.54 144.13,312 C117.32,331.25 94.0935,352.9183 75.4535,371.6383 " fill="none" id="Confirmed-to-Cancelled" style="stroke:#181818;stroke-width:1;"/><polygon fill="#181818" points="71.22,375.89,80.4048,372.3348,74.748,372.3469,74.7358,366.6901,71.22,375.89" style="stroke:#181818;stroke-width:1;"/><text fill="#000000" font-family="sans-serif" font-size="13" lengthAdjust="spacing" textLength="45.373" x="169.7589" y="326.4951">H&#7911;y b&#7903;i</text><text fill="#000000" font-family="sans-serif" font-size="13" lengthAdjust="spacing" textLength="94.6309" x="145.13" y="342.8467">Customer/Stylist</text></g><!--link Confirmed to NoShow--><g id="link_Confirmed_NoShow"><path d="M244.88,282.41 C247.83,308.58 251.8071,343.8979 254.7471,369.9479 " fill="none" id="Confirmed-to-NoShow" style="stroke:#181818;stroke-width:1;"/><polygon fill="#181818" points="255.42,375.91,258.3854,366.5182,254.8593,370.9415,250.4359,367.4154,255.42,375.91" style="stroke:#181818;stroke-width:1;"/><text fill="#000000" font-family="sans-serif" font-size="13" lengthAdjust="spacing" textLength="101.1943" x="253.03" y="334.4951">Kh&#225;ch kh&#244;ng &#273;&#7871;n</text></g><!--link Cancelled to *end*--><g id="link_Cancelled_*end*"><path d="M89.62,420.77 C139.58,443.37 214.8131,477.4077 242.7631,490.0477 " fill="none" id="Cancelled-to-*end*" style="stroke:#181818;stroke-width:1;"/><polygon fill="#181818" points="248.23,492.52,241.6778,485.1668,243.6742,490.4597,238.3813,492.4561,248.23,492.52" style="stroke:#181818;stroke-width:1;"/></g><!--link Completed to *end*--><g id="link_Completed_*end*"><path d="M447.84,419.98 C391.66,442.79 303.9892,478.3827 273.5992,490.7227 " fill="none" id="Completed-to-*end*" style="stroke:#181818;stroke-width:1;"/><polygon fill="#181818" points="268.04,492.98,277.8837,493.3001,272.6726,491.0989,274.8739,485.8879,268.04,492.98" style="stroke:#181818;stroke-width:1;"/></g><!--link NoShow to *end*--><g id="link_NoShow_*end*"><path d="M258.13,426.46 C258.13,446.04 258.13,466.49 258.13,480.8 " fill="none" id="NoShow-to-*end*" style="stroke:#181818;stroke-width:1;"/><polygon fill="#181818" points="258.13,486.8,262.13,477.8,258.13,481.8,254.13,477.8,258.13,486.8" style="stroke:#181818;stroke-width:1;"/></g><!--SRC=[ZP2nJiCm54LtVyMRArNi32nPAY4XfBAL3ctgzbauprNY2leDNU0345G8CR6na0mCwO_uJt0Ikp4UAXPRrxdttPSp6KnXEBo0QquBGIiuXnjJxXL8K-rI13JbDp7_iJ4cYfOYp_Z2MiTwAqMX8RMszpMGlJuZzunIBcNh7fdgOmjpKxs8MqesXLOPpy_S3DRFxLgojUIwpHqUwpT0LRyIQBGdnjx_TW14oIirHdLlOvTOx-tVtc7zPHS_F9doXnWhz4npJyQfuu2ZTejwxPTnkgjWZ9GLkLYX1hKCQ2TegcTuiFKUtrzdYBi5SShQCnk5k29RWAj3sp2BJ26P44aVRlXD1bFMj_eNbtNo5m00]--></g></svg>