<svg xmlns="http://www.w3.org/2000/svg" xmlns:xlink="http://www.w3.org/1999/xlink" contentStyleType="text/css" height="369px" preserveAspectRatio="none" style="width:564px;height:369px;background:#FFFFFF;" version="1.1" viewBox="0 0 564 369" width="564px" zoomAndPan="magnify"><defs/><g><!--cluster H? th?ng--><g id="cluster_H&#7879; th&#7889;ng"><rect fill="none" height="356" rx="2.5" ry="2.5" style="stroke:#181818;stroke-width:1;" width="445.27" x="113.68" y="7"/><text fill="#000000" font-family="sans-serif" font-size="14" font-weight="bold" lengthAdjust="spacing" textLength="60.6553" x="305.9874" y="23.5332">H&#7879; th&#7889;ng</text></g><g id="elem_BookAppointment"><ellipse cx="206.3608" cy="59.0033" fill="#FFFFCC" rx="64.5508" ry="15.6133" style="stroke:#181818;stroke-width:0.5;"/><text fill="#000000" font-family="sans-serif" font-size="14" lengthAdjust="spacing" textLength="73.9307" x="166.3955" y="63.5199">&#272;&#7863;t l&#7883;ch h&#7865;n</text></g><g id="elem_ChooseService"><ellipse cx="471.493" cy="58.9986" fill="#FFFFCC" rx="67.993" ry="15.9986" style="stroke:#181818;stroke-width:0.5;"/><text fill="#000000" font-family="sans-serif" font-size="14" lengthAdjust="spacing" textLength="81.7168" x="427.6346" y="63.5152">Ch&#7885;n d&#7883;ch v&#7909;</text></g><g id="elem_ChooseStylist"><ellipse cx="471.489" cy="193.9959" fill="#FFFFCC" rx="63.389" ry="15.6059" style="stroke:#181818;stroke-width:0.5;"/><text fill="#000000" font-family="sans-serif" font-size="14" lengthAdjust="spacing" textLength="72.3584" x="432.3098" y="198.5125">Ch&#7885;n stylist</text></g><g id="elem_ChooseDateTime"><ellipse cx="471.4948" cy="127.001" fill="#FFFFCC" rx="71.4548" ry="16.691" style="stroke:#181818;stroke-width:0.5;"/><text fill="#000000" font-family="sans-serif" font-size="14" lengthAdjust="spacing" textLength="91.6836" x="422.653" y="131.5176">Ch&#7885;n ng&#224;y gi&#7901;</text></g><g id="elem_ViewAppointment"><ellipse cx="206.3584" cy="125.9957" fill="#FFFFCC" rx="67.7284" ry="15.9457" style="stroke:#181818;stroke-width:0.5;"/><text fill="#000000" font-family="sans-serif" font-size="14" lengthAdjust="spacing" textLength="80.9307" x="162.8931" y="130.5123">Xem l&#7883;ch h&#7865;n</text></g><g id="elem_CancelAppointment"><ellipse cx="206.3588" cy="192.9978" fill="#FFFFCC" rx="66.4388" ry="15.6878" style="stroke:#181818;stroke-width:0.5;"/><text fill="#000000" font-family="sans-serif" font-size="14" lengthAdjust="spacing" textLength="77.041" x="164.8383" y="197.5144">H&#7911;y l&#7883;ch h&#7865;n</text></g><g id="elem_EnterReason"><ellipse cx="471.4884" cy="259.998" fill="#FFFFCC" rx="59.3784" ry="15.578" style="stroke:#181818;stroke-width:0.5;"/><text fill="#000000" font-family="sans-serif" font-size="14" lengthAdjust="spacing" textLength="66.9307" x="435.0231" y="264.5146">Nh&#7853;p l&#253; do</text></g><g id="elem_ChangePassword"><ellipse cx="206.362" cy="260.0004" fill="#FFFFCC" rx="68.252" ry="16.0504" style="stroke:#181818;stroke-width:0.5;"/><text fill="#000000" font-family="sans-serif" font-size="14" lengthAdjust="spacing" textLength="82.4824" x="162.1207" y="264.517">&#272;&#7893;i m&#7853;t kh&#7849;u</text></g><g id="elem_ManageInfo"><ellipse cx="206.358" cy="328.9956" fill="#FFFFCC" rx="76.678" ry="17.7356" style="stroke:#181818;stroke-width:0.5;"/><text fill="#000000" font-family="sans-serif" font-size="14" lengthAdjust="spacing" textLength="105.8477" x="150.8688" y="333.4109">Qu&#7843;n l&#253; th&#244;ng tin</text></g><!--entity Customer--><g id="elem_Customer"><ellipse cx="36.3413" cy="162.7" fill="#F1F1F1" rx="8" ry="8" style="stroke:#181818;stroke-width:0.5;"/><path d="M36.3413,170.7 L36.3413,197.7 M23.3413,178.7 L49.3413,178.7 M36.3413,197.7 L23.3413,212.7 M36.3413,197.7 L49.3413,212.7 " fill="none" style="stroke:#181818;stroke-width:0.5;"/><text fill="#000000" font-family="sans-serif" font-size="14" lengthAdjust="spacing" textLength="60.6826" x="6" y="228.7332">Customer</text></g><!--link Customer to BookAppointment--><g id="link_Customer_BookAppointment"><path d="M56.27,153.74 C67.97,133.12 84.76,108.91 105.68,93 C120.31,81.88 138.82,74.25 155.9,69.08 " fill="none" id="Customer-BookAppointment" style="stroke:#181818;stroke-width:1;"/></g><!--link BookAppointment to ChooseService--><g id="link_BookAppointment_ChooseService"><path d="M271.39,59 C311.4,59 356.84,59 397.41,59 " fill="none" id="BookAppointment-to-ChooseService" style="stroke:#181818;stroke-width:1;stroke-dasharray:7.0,7.0;"/><polygon fill="#181818" points="403.41,59,394.41,55,398.41,59,394.41,63,403.41,59" style="stroke:#181818;stroke-width:1;"/><text fill="#000000" font-family="sans-serif" font-size="13" lengthAdjust="spacing" textLength="55.6563" x="314.04" y="55.4951">&#171;include&#187;</text></g><!--link BookAppointment to ChooseStylist--><g id="link_BookAppointment_ChooseStylist"><path d="M243.97,72 C256.92,77.47 271.2,84.55 283.04,93 C298.91,104.33 297.12,113.75 313.04,125 C349.72,150.93 392.018,168.2635 425.328,179.7535 " fill="none" id="BookAppointment-to-ChooseStylist" style="stroke:#181818;stroke-width:1;stroke-dasharray:7.0,7.0;"/><polygon fill="#181818" points="431,181.71,423.7963,174.9939,426.2733,180.0796,421.1876,182.5566,431,181.71" style="stroke:#181818;stroke-width:1;"/><text fill="#000000" font-family="sans-serif" font-size="13" lengthAdjust="spacing" textLength="55.6563" x="314.04" y="121.4951">&#171;include&#187;</text></g><!--link BookAppointment to ChooseDateTime--><g id="link_BookAppointment_ChooseDateTime"><path d="M251.7,70.46 C299.01,82.68 367.8907,100.4894 416.5907,113.0694 " fill="none" id="BookAppointment-to-ChooseDateTime" style="stroke:#181818;stroke-width:1;stroke-dasharray:7.0,7.0;"/><polygon fill="#181818" points="422.4,114.57,414.6865,108.4462,417.5589,113.3195,412.6856,116.1919,422.4,114.57" style="stroke:#181818;stroke-width:1;"/><text fill="#000000" font-family="sans-serif" font-size="13" lengthAdjust="spacing" textLength="55.6563" x="314.04" y="83.4051">&#171;include&#187;</text></g><!--link Customer to ViewAppointment--><g id="link_Customer_ViewAppointment"><path d="M66.93,177.75 C78.82,171.87 92.76,165.3 105.68,160 C124.63,152.23 146.08,144.75 164.21,138.79 " fill="none" id="Customer-ViewAppointment" style="stroke:#181818;stroke-width:1;"/></g><!--link Customer to CancelAppointment--><g id="link_Customer_CancelAppointment"><path d="M66.99,193 C87.06,193 114.38,193 139.44,193 " fill="none" id="Customer-CancelAppointment" style="stroke:#181818;stroke-width:1;"/></g><!--link CancelAppointment to EnterReason--><g id="link_CancelAppointment_EnterReason"><path d="M242.34,206.54 C255.39,212.03 270.16,218.78 283.04,226 C297.24,233.96 297.73,241.47 313.04,247 C344.64,258.41 376.0508,261.7795 406.4808,262.2895 " fill="none" id="CancelAppointment-to-EnterReason" style="stroke:#181818;stroke-width:1;stroke-dasharray:7.0,7.0;"/><polygon fill="#181818" points="412.48,262.39,403.5483,258.2397,407.4807,262.3062,403.4142,266.2386,412.48,262.39" style="stroke:#181818;stroke-width:1;"/><text fill="#000000" font-family="sans-serif" font-size="13" lengthAdjust="spacing" textLength="55.6563" x="314.04" y="243.4951">&#171;include&#187;</text></g><!--link Customer to ChangePassword--><g id="link_Customer_ChangePassword"><path d="M66.93,208.25 C78.82,214.13 92.76,220.7 105.68,226 C124.46,233.7 145.69,241.12 163.72,247.05 " fill="none" id="Customer-ChangePassword" style="stroke:#181818;stroke-width:1;"/></g><!--link Customer to ManageInfo--><g id="link_Customer_ManageInfo"><path d="M55.97,232.08 C67.67,252.99 84.56,277.71 105.68,294 C118.68,304.02 134.78,311.32 150.21,316.56 " fill="none" id="Customer-ManageInfo" style="stroke:#181818;stroke-width:1;"/></g><!--SRC=[ZPB1IkH048Rl_HJ5t9q741bmiWCxi8fkrcMlJL8cJJhLGtV5OLZsx65PM0yU1K4MyU1Da9tWQNoHl8d9Z2FfYOgvTTN_TLVzVrocQ2AjpA5m64c7y5D0_Grbb2NM51G7HXiBmwDml3yAG_5B2FV2aE6tW2ygIJdCPaDTO0DfF6PW0xQfGwmiHgmC2I4ZhkL1uTZaQ8Le6f8IZT3xN9Mdm6bLdb7IUtvdFMRlyMyrlsVGLVaxIY6jvl-f1zB1q9XiTp8nYZX7OXyAwil-4CGhwAGg_osP83N6OOZsH4NuAk5uffNZjdfLULLDoU9o1ecgoeiMyKaoVbCv2f_vWNbtY-yAf-qjVAGsvdhMXG994Uetbz-lbRSJq8i7YCqI616Z_OhIDK5ikbkUAyXhWY6hmPlYUPCw6poGpasDZNtciAZcLxIydzF57IN0QZNOdYIPu9YEJVChhBE6hQrEMXjdwFS7VZgm3JixYY9Tn3WOlATVvVDX_JeT7m1_t4uixMRN_avb-LxBzOtf_EjygzkjbfzF]--></g></svg>