<svg xmlns="http://www.w3.org/2000/svg" xmlns:xlink="http://www.w3.org/1999/xlink" contentStyleType="text/css" height="639px" preserveAspectRatio="none" style="width:759px;height:639px;background:#FFFFFF;" version="1.1" viewBox="0 0 759 639" width="759px" zoomAndPan="magnify"><defs/><g><rect fill="#FFFFFF" height="432.4063" style="stroke:#181818;stroke-width:1;" width="10" x="287.2896" y="114.9609"/><rect fill="#FFFFFF" height="355.3516" style="stroke:#181818;stroke-width:1;" width="10" x="522.2246" y="192.0156"/><rect fill="#FFFFFF" height="30.3516" style="stroke:#181818;stroke-width:1;" width="10" x="715.9888" y="291.0703"/><rect fill="none" height="290" style="stroke:#000000;stroke-width:1.5;" width="742.6611" x="10" y="250.3672"/><line style="stroke:#181818;stroke-width:0.5;stroke-dasharray:5.0,5.0;" x1="42" x2="42" y1="82.6094" y2="557.3672"/><line style="stroke:#181818;stroke-width:0.5;stroke-dasharray:5.0,5.0;" x1="291.3242" x2="291.3242" y1="82.6094" y2="557.3672"/><line style="stroke:#181818;stroke-width:0.5;stroke-dasharray:5.0,5.0;" x1="526.8145" x2="526.8145" y1="82.6094" y2="557.3672"/><line style="stroke:#181818;stroke-width:0.5;stroke-dasharray:5.0,5.0;" x1="720.3164" x2="720.3164" y1="82.6094" y2="557.3672"/><text fill="#000000" font-family="sans-serif" font-size="14" lengthAdjust="spacing" textLength="39.6963" x="20" y="79.5332">Kh&#225;ch</text><ellipse cx="42.8481" cy="13.5" fill="#E2E2F0" rx="8" ry="8" style="stroke:#181818;stroke-width:0.5;"/><path d="M42.8481,21.5 L42.8481,48.5 M29.8481,29.5 L55.8481,29.5 M42.8481,48.5 L29.8481,63.5 M42.8481,48.5 L55.8481,63.5 " fill="none" style="stroke:#181818;stroke-width:0.5;"/><text fill="#000000" font-family="sans-serif" font-size="14" lengthAdjust="spacing" textLength="39.6963" x="20" y="570.9004">Kh&#225;ch</text><ellipse cx="42.8481" cy="582.4766" fill="#E2E2F0" rx="8" ry="8" style="stroke:#181818;stroke-width:0.5;"/><path d="M42.8481,590.4766 L42.8481,617.4766 M29.8481,598.4766 L55.8481,598.4766 M42.8481,617.4766 L29.8481,632.4766 M42.8481,617.4766 L55.8481,632.4766 " fill="none" style="stroke:#181818;stroke-width:0.5;"/><rect fill="#E2E2F0" height="31.6094" rx="2.5" ry="2.5" style="stroke:#181818;stroke-width:0.5;" width="73.9307" x="255.3242" y="50"/><text fill="#000000" font-family="sans-serif" font-size="14" lengthAdjust="spacing" textLength="59.9307" x="262.3242" y="71.5332">Giao di&#7879;n</text><rect fill="#E2E2F0" height="31.6094" rx="2.5" ry="2.5" style="stroke:#181818;stroke-width:0.5;" width="73.9307" x="255.3242" y="556.3672"/><text fill="#000000" font-family="sans-serif" font-size="14" lengthAdjust="spacing" textLength="59.9307" x="262.3242" y="577.9004">Giao di&#7879;n</text><rect fill="#E2E2F0" height="31.6094" rx="2.5" ry="2.5" style="stroke:#181818;stroke-width:0.5;" width="70.8203" x="491.8145" y="50"/><text fill="#000000" font-family="sans-serif" font-size="14" lengthAdjust="spacing" textLength="56.8203" x="498.8145" y="71.5332">H&#7879; th&#7889;ng</text><rect fill="#E2E2F0" height="31.6094" rx="2.5" ry="2.5" style="stroke:#181818;stroke-width:0.5;" width="70.8203" x="491.8145" y="556.3672"/><text fill="#000000" font-family="sans-serif" font-size="14" lengthAdjust="spacing" textLength="56.8203" x="498.8145" y="577.9004">H&#7879; th&#7889;ng</text><text fill="#000000" font-family="sans-serif" font-size="14" lengthAdjust="spacing" textLength="37.3447" x="699.3164" y="79.5332">CSDL</text><path d="M702.9888,29 C702.9888,19 720.9888,19 720.9888,19 C720.9888,19 738.9888,19 738.9888,29 L738.9888,55 C738.9888,65 720.9888,65 720.9888,65 C720.9888,65 702.9888,65 702.9888,55 L702.9888,29 " fill="#E2E2F0" style="stroke:#181818;stroke-width:1.5;"/><path d="M702.9888,29 C702.9888,39 720.9888,39 720.9888,39 C720.9888,39 738.9888,39 738.9888,29 " fill="none" style="stroke:#181818;stroke-width:1.5;"/><text fill="#000000" font-family="sans-serif" font-size="14" lengthAdjust="spacing" textLength="37.3447" x="699.3164" y="570.9004">CSDL</text><path d="M702.9888,583.9766 C702.9888,573.9766 720.9888,573.9766 720.9888,573.9766 C720.9888,573.9766 738.9888,573.9766 738.9888,583.9766 L738.9888,609.9766 C738.9888,619.9766 720.9888,619.9766 720.9888,619.9766 C720.9888,619.9766 702.9888,619.9766 702.9888,609.9766 L702.9888,583.9766 " fill="#E2E2F0" style="stroke:#181818;stroke-width:1.5;"/><path d="M702.9888,583.9766 C702.9888,593.9766 720.9888,593.9766 720.9888,593.9766 C720.9888,593.9766 738.9888,593.9766 738.9888,583.9766 " fill="none" style="stroke:#181818;stroke-width:1.5;"/><rect fill="#FFFFFF" height="432.4063" style="stroke:#181818;stroke-width:1;" width="10" x="287.2896" y="114.9609"/><rect fill="#FFFFFF" height="355.3516" style="stroke:#181818;stroke-width:1;" width="10" x="522.2246" y="192.0156"/><rect fill="#FFFFFF" height="30.3516" style="stroke:#181818;stroke-width:1;" width="10" x="715.9888" y="291.0703"/><polygon fill="#181818" points="275.2896,110.9609,285.2896,114.9609,275.2896,118.9609,279.2896,114.9609" style="stroke:#181818;stroke-width:1;"/><line style="stroke:#181818;stroke-width:1;" x1="42.8481" x2="281.2896" y1="114.9609" y2="114.9609"/><text fill="#000000" font-family="sans-serif" font-size="13" lengthAdjust="spacing" textLength="143.7808" x="49.8481" y="110.1045">1. Truy c&#7853;p form &#273;&#259;ng k&#253;</text><polygon fill="#181818" points="275.2896,157.6641,285.2896,161.6641,275.2896,165.6641,279.2896,161.6641" style="stroke:#181818;stroke-width:1;"/><line style="stroke:#181818;stroke-width:1;" x1="42.8481" x2="281.2896" y1="161.6641" y2="161.6641"/><text fill="#000000" font-family="sans-serif" font-size="13" lengthAdjust="spacing" textLength="94.6753" x="49.8481" y="140.4561">2. &#272;i&#7873;n th&#244;ng tin</text><text fill="#000000" font-family="sans-serif" font-size="13" lengthAdjust="spacing" textLength="177.0107" x="49.8481" y="156.8076">(h&#7885; t&#234;n, email, S&#272;T, m&#7853;t kh&#7849;u)</text><polygon fill="#181818" points="510.2246,188.0156,520.2246,192.0156,510.2246,196.0156,514.2246,192.0156" style="stroke:#181818;stroke-width:1;"/><line style="stroke:#181818;stroke-width:1;" x1="297.2896" x2="516.2246" y1="192.0156" y2="192.0156"/><text fill="#000000" font-family="sans-serif" font-size="13" lengthAdjust="spacing" textLength="138.7852" x="304.2896" y="187.1592">3. G&#7917;i th&#244;ng tin &#273;&#259;ng k&#253;</text><line style="stroke:#181818;stroke-width:1;" x1="532.2246" x2="574.2246" y1="222.3672" y2="222.3672"/><line style="stroke:#181818;stroke-width:1;" x1="574.2246" x2="574.2246" y1="222.3672" y2="235.3672"/><line style="stroke:#181818;stroke-width:1;" x1="533.2246" x2="574.2246" y1="235.3672" y2="235.3672"/><polygon fill="#181818" points="543.2246,231.3672,533.2246,235.3672,543.2246,239.3672,539.2246,235.3672" style="stroke:#181818;stroke-width:1;"/><text fill="#000000" font-family="sans-serif" font-size="13" lengthAdjust="spacing" textLength="116.3398" x="539.2246" y="217.5107">4. Ki&#7875;m tra th&#244;ng tin</text><path d="M10,250.3672 L70.1709,250.3672 L70.1709,258.7188 L60.1709,268.7188 L10,268.7188 L10,250.3672 " fill="#EEEEEE" style="stroke:#000000;stroke-width:1.5;"/><rect fill="none" height="290" style="stroke:#000000;stroke-width:1.5;" width="742.6611" x="10" y="250.3672"/><text fill="#000000" font-family="sans-serif" font-size="13" font-weight="bold" lengthAdjust="spacing" textLength="15.1709" x="25" y="264.8623">alt</text><text fill="#000000" font-family="sans-serif" font-size="11" font-weight="bold" lengthAdjust="spacing" textLength="93.9619" x="85.1709" y="263.7861">[Th&#244;ng tin h&#7907;p l&#7879;]</text><polygon fill="#181818" points="703.9888,287.0703,713.9888,291.0703,703.9888,295.0703,707.9888,291.0703" style="stroke:#181818;stroke-width:1;"/><line style="stroke:#181818;stroke-width:1;" x1="532.2246" x2="709.9888" y1="291.0703" y2="291.0703"/><text fill="#000000" font-family="sans-serif" font-size="13" lengthAdjust="spacing" textLength="147.4751" x="539.2246" y="286.2139">5. L&#432;u th&#244;ng tin t&#224;i kho&#7843;n</text><polygon fill="#181818" points="543.2246,317.4219,533.2246,321.4219,543.2246,325.4219,539.2246,321.4219" style="stroke:#181818;stroke-width:1;"/><line style="stroke:#181818;stroke-width:1;stroke-dasharray:2.0,2.0;" x1="537.2246" x2="719.9888" y1="321.4219" y2="321.4219"/><text fill="#000000" font-family="sans-serif" font-size="13" lengthAdjust="spacing" textLength="159.7642" x="549.2246" y="316.5654">6. X&#225;c nh&#7853;n l&#432;u th&#224;nh c&#244;ng</text><line style="stroke:#181818;stroke-width:1;" x1="532.2246" x2="574.2246" y1="351.7734" y2="351.7734"/><line style="stroke:#181818;stroke-width:1;" x1="574.2246" x2="574.2246" y1="351.7734" y2="364.7734"/><line style="stroke:#181818;stroke-width:1;" x1="533.2246" x2="574.2246" y1="364.7734" y2="364.7734"/><polygon fill="#181818" points="543.2246,360.7734,533.2246,364.7734,543.2246,368.7734,539.2246,364.7734" style="stroke:#181818;stroke-width:1;"/><text fill="#000000" font-family="sans-serif" font-size="13" lengthAdjust="spacing" textLength="146.7007" x="539.2246" y="346.917">7. T&#7841;o m&#227; x&#225;c th&#7921;c email</text><polygon fill="#181818" points="53.8481,391.125,43.8481,395.125,53.8481,399.125,49.8481,395.125" style="stroke:#181818;stroke-width:1;"/><line style="stroke:#181818;stroke-width:1;" x1="47.8481" x2="521.2246" y1="395.125" y2="395.125"/><text fill="#000000" font-family="sans-serif" font-size="13" lengthAdjust="spacing" textLength="124.3315" x="59.8481" y="390.2686">8. G&#7917;i email x&#225;c th&#7921;c</text><polygon fill="#181818" points="308.2896,421.4766,298.2896,425.4766,308.2896,429.4766,304.2896,425.4766" style="stroke:#181818;stroke-width:1;"/><line style="stroke:#181818;stroke-width:1;stroke-dasharray:2.0,2.0;" x1="302.2896" x2="521.2246" y1="425.4766" y2="425.4766"/><text fill="#000000" font-family="sans-serif" font-size="13" lengthAdjust="spacing" textLength="200.9351" x="314.2896" y="420.6201">9a. Th&#244;ng b&#225;o &#273;&#259;ng k&#253; th&#224;nh c&#244;ng</text><polygon fill="#181818" points="53.8481,451.8281,43.8481,455.8281,53.8481,459.8281,49.8481,455.8281" style="stroke:#181818;stroke-width:1;"/><line style="stroke:#181818;stroke-width:1;stroke-dasharray:2.0,2.0;" x1="47.8481" x2="286.2896" y1="455.8281" y2="455.8281"/><text fill="#000000" font-family="sans-serif" font-size="13" lengthAdjust="spacing" textLength="220.4414" x="59.8481" y="450.9717">10a. Chuy&#7875;n &#273;&#7871;n trang x&#225;c th&#7921;c email</text><line style="stroke:#000000;stroke-width:1;stroke-dasharray:2.0,2.0;" x1="10" x2="752.6611" y1="464.8281" y2="464.8281"/><text fill="#000000" font-family="sans-serif" font-size="11" font-weight="bold" lengthAdjust="spacing" textLength="130.0127" x="15" y="476.2471">[Th&#244;ng tin kh&#244;ng h&#7907;p l&#7879;]</text><polygon fill="#181818" points="308.2896,498.0156,298.2896,502.0156,308.2896,506.0156,304.2896,502.0156" style="stroke:#181818;stroke-width:1;"/><line style="stroke:#181818;stroke-width:1;stroke-dasharray:2.0,2.0;" x1="302.2896" x2="521.2246" y1="502.0156" y2="502.0156"/><text fill="#000000" font-family="sans-serif" font-size="13" lengthAdjust="spacing" textLength="75.1436" x="314.2896" y="497.1592">9b. Tr&#7843; v&#7873; l&#7895;i</text><polygon fill="#181818" points="53.8481,528.3672,43.8481,532.3672,53.8481,536.3672,49.8481,532.3672" style="stroke:#181818;stroke-width:1;"/><line style="stroke:#181818;stroke-width:1;stroke-dasharray:2.0,2.0;" x1="47.8481" x2="286.2896" y1="532.3672" y2="532.3672"/><text fill="#000000" font-family="sans-serif" font-size="13" lengthAdjust="spacing" textLength="151.0552" x="59.8481" y="527.5107">10b. Hi&#7875;n th&#7883; th&#244;ng b&#225;o l&#7895;i</text><!--SRC=[TPC_Jzj06CRt-nIFCXKfMELFMyZGXKeWmKO6XYvd-ngVOfyZ-up8M35qG4WmTGLbQgL8hTJ94UhWYE_XRzBtpZ6-0CtYMFU-p_kxvtdD0vrcw1r7rNqGzS1pZ0gHQpRXcPQ1d72bqJkKF4KewyKtPKiAkNv-H2VGKRsuLIDRa4zpBH8MSirzdWlq3au_dTYJq6VCJi3cHz8POCl3C2kc2EfoFi6ND4kml5rUgX76rGFZWPRdN0ipShrlsyFoXf2-AffS_Q5wBTLdzOOehg6hdweFaN0Pzt6wl1dsaP2-nZYgon_51YkaqMam1zZnS5Wlvj9HSY4wYjMzceUhiElXc60k4-YCEpACnnh3JfNePXF4v1S3_JgXq1_WdOUJnr-5Iw6hEqdGQLtEbEruGY4ZpNleOzFXUE_XZ9A4edlE5UALt9sA41ZHfaUuAiz0MgKFb4jTtgT8gXakZAO9-7VGkFgioIOpm5xhewrnkzRgLmdkSw-rngzeKEVuIsIJLpTdwosr7aJ5b1mtITNbNsMCf-wNf2Ac1NGY63T__vD4o-QRjIJNSKuhPig-orT1gEv8MWmpzAhDpbwewH8gP8xZxQSXtDN-1m00]--></g></svg>