<svg xmlns="http://www.w3.org/2000/svg" xmlns:xlink="http://www.w3.org/1999/xlink" contentStyleType="text/css" height="765px" preserveAspectRatio="none" style="width:697px;height:765px;background:#FFFFFF;" version="1.1" viewBox="0 0 697 765" width="697px" zoomAndPan="magnify"><defs/><g><!--cluster S--><g id="cluster_S"><rect fill="none" height="687" rx="2.5" ry="2.5" style="stroke:#181818;stroke-width:1;" width="567.37" x="124.23" y="72.35"/><text fill="#000000" font-family="sans-serif" font-size="14" font-weight="bold" lengthAdjust="spacing" textLength="60.6553" x="377.5874" y="88.8832">H&#7879; th&#7889;ng</text></g><g id="elem_ManageCustomers"><ellipse cx="240.4493" cy="158.3459" fill="#FFFFCC" rx="84.2293" ry="19.2459" style="stroke:#181818;stroke-width:0.5;"/><text fill="#000000" font-family="sans-serif" font-size="14" lengthAdjust="spacing" textLength="124.5303" x="178.1841" y="162.0744">Qu&#7843;n l&#253; kh&#225;ch h&#224;ng</text></g><g id="elem_ManageStylists"><ellipse cx="240.452" cy="229.3504" fill="#FFFFCC" rx="69.852" ry="16.3704" style="stroke:#181818;stroke-width:0.5;"/><text fill="#000000" font-family="sans-serif" font-size="14" lengthAdjust="spacing" textLength="87.1377" x="193.8832" y="233.867">Qu&#7843;n l&#253; stylist</text></g><g id="elem_ManageServices"><ellipse cx="240.4518" cy="297.3484" fill="#FFFFCC" rx="73.1918" ry="17.0384" style="stroke:#181818;stroke-width:0.5;"/><text fill="#000000" font-family="sans-serif" font-size="14" lengthAdjust="spacing" textLength="96.4961" x="189.2038" y="301.865">Qu&#7843;n l&#253; d&#7883;ch v&#7909;</text></g><g id="elem_ManageSalon"><ellipse cx="240.4505" cy="370.3541" fill="#FFFFCC" rx="92.2205" ry="20.8441" style="stroke:#181818;stroke-width:0.5;"/><text fill="#000000" font-family="sans-serif" font-size="14" lengthAdjust="spacing" textLength="143.2061" x="168.8474" y="374.0826">Qu&#7843;n l&#253; th&#244;ng tin salon</text></g><g id="elem_UpdateSalon"><ellipse cx="571.6226" cy="370.3545" fill="#FFFFCC" rx="95.9726" ry="21.5945" style="stroke:#181818;stroke-width:0.5;"/><text fill="#000000" font-family="sans-serif" font-size="14" lengthAdjust="spacing" textLength="151.7783" x="495.7334" y="374.083">C&#7853;p nh&#7853;t th&#244;ng tin salon</text></g><g id="elem_ManageAppointments"><ellipse cx="240.4467" cy="570.3453" fill="#FFFFCC" rx="74.6267" ry="17.3253" style="stroke:#181818;stroke-width:0.5;"/><text fill="#000000" font-family="sans-serif" font-size="14" lengthAdjust="spacing" textLength="100.3926" x="187.2504" y="574.8619">Qu&#7843;n l&#253; l&#7883;ch h&#7865;n</text></g><g id="elem_ViewAppointments"><ellipse cx="571.6184" cy="711.3457" fill="#FFFFCC" rx="67.7284" ry="15.9457" style="stroke:#181818;stroke-width:0.5;"/><text fill="#000000" font-family="sans-serif" font-size="14" lengthAdjust="spacing" textLength="80.9307" x="528.1531" y="715.8623">Xem l&#7883;ch h&#7865;n</text></g><g id="elem_AcceptAppointment"><ellipse cx="571.6246" cy="641.3509" fill="#FFFFCC" rx="82.6046" ry="18.9209" style="stroke:#181818;stroke-width:0.5;"/><text fill="#000000" font-family="sans-serif" font-size="14" lengthAdjust="spacing" textLength="120.6475" x="511.3009" y="645.0794">Ch&#7845;p nh&#7853;n l&#7883;ch h&#7865;n</text></g><g id="elem_RejectAppointment"><ellipse cx="571.6179" cy="570.3496" fill="#FFFFCC" rx="74.3479" ry="17.2696" style="stroke:#181818;stroke-width:0.5;"/><text fill="#000000" font-family="sans-serif" font-size="14" lengthAdjust="spacing" textLength="99.6406" x="518.7976" y="574.8662">T&#7915; ch&#7889;i l&#7883;ch h&#7865;n</text></g><g id="elem_UpdateStatus"><ellipse cx="571.6242" cy="499.3508" fill="#FFFFCC" rx="81.9542" ry="18.7908" style="stroke:#181818;stroke-width:0.5;"/><text fill="#000000" font-family="sans-serif" font-size="14" lengthAdjust="spacing" textLength="119.082" x="511.9281" y="503.1255">C&#7853;p nh&#7853;t tr&#7841;ng th&#225;i</text></g><g id="elem_ViewHistory"><ellipse cx="240.4453" cy="445.3471" fill="#FFFFCC" rx="84.8853" ry="19.3771" style="stroke:#181818;stroke-width:0.5;"/><text fill="#000000" font-family="sans-serif" font-size="14" lengthAdjust="spacing" textLength="126.0889" x="177.4008" y="449.0756">Xem l&#7883;ch s&#7917; l&#7883;ch h&#7865;n</text></g><!--entity Manager--><g id="elem_Manager"><ellipse cx="33.6274" cy="312.05" fill="#F1F1F1" rx="8" ry="8" style="stroke:#181818;stroke-width:0.5;"/><path d="M33.6274,320.05 L33.6274,347.05 M20.6274,328.05 L46.6274,328.05 M33.6274,347.05 L20.6274,362.05 M33.6274,347.05 L46.6274,362.05 " fill="none" style="stroke:#181818;stroke-width:0.5;"/><text fill="#000000" font-family="sans-serif" font-size="14" lengthAdjust="spacing" textLength="55.2549" x="6" y="378.0832">Manager</text></g><g id="elem_GMN15"><path d="M122.25,6 L122.25,48.7031 L358.645,48.7031 L358.645,16 L348.645,6 L122.25,6 " fill="#87CEFA" style="stroke:#181818;stroke-width:0.5;"/><path d="M348.645,6 L348.645,16 L358.645,16 L348.645,6 " fill="#87CEFA" style="stroke:#181818;stroke-width:1;"/><text fill="#000000" font-family="sans-serif" font-size="13" lengthAdjust="spacing" textLength="133.7261" x="128.25" y="24.4951">C&#225;c ch&#7913;c n&#259;ng qu&#7843;n l&#253;</text><text fill="#000000" font-family="sans-serif" font-size="13" lengthAdjust="spacing" textLength="215.395" x="128.25" y="40.8467">bao thao t&#225;c th&#234;m, s&#7917;a, x&#243;a th&#244;ng tin</text></g><!--link S to GMN15--><g id="link_S_GMN15"><path d="M240.45,72.2469 C240.45,71.9798 240.45,71.7127 240.45,71.4455 C240.45,70.377 240.45,69.3084 240.45,68.2399 C240.45,66.1029 240.45,63.966 240.45,61.8292 C240.45,57.5556 240.45,53.2825 240.45,49.01 " fill="none" id="S-GMN15" style="stroke:#181818;stroke-width:1;stroke-dasharray:7.0,7.0;"/></g><!--link Manager to ManageCustomers--><g id="link_Manager_ManageCustomers"><path d="M44.54,303.29 C54.98,269.94 74.68,223.08 108.23,195.35 C124.65,181.78 145.74,173.18 166.2,167.73 " fill="none" id="Manager-ManageCustomers" style="stroke:#181818;stroke-width:1;"/></g><!--link Manager to ManageStylists--><g id="link_Manager_ManageStylists"><path d="M61.73,304.33 C74.29,289.23 90.39,272.96 108.23,262.35 C129.33,249.8 155.07,242 178.14,237.16 " fill="none" id="Manager-ManageStylists" style="stroke:#181818;stroke-width:1;"/></g><!--link Manager to ManageServices--><g id="link_Manager_ManageServices"><path d="M61.62,334.85 C70.98,332.35 81.55,329.62 91.25,327.35 C121.16,320.37 154.69,313.5 182.28,308.1 " fill="none" id="Manager-ManageServices" style="stroke:#181818;stroke-width:1;"/></g><!--link Manager to ManageSalon--><g id="link_Manager_ManageSalon"><path d="M61.4,346.01 C86.56,349.45 125.48,354.77 160.52,359.56 " fill="none" id="Manager-ManageSalon" style="stroke:#181818;stroke-width:1;"/></g><!--link ManageSalon to UpdateSalon--><g id="link_ManageSalon_UpdateSalon"><path d="M333.14,370.35 C377.47,370.35 424.63,370.35 469.41,370.35 " fill="none" id="ManageSalon-to-UpdateSalon" style="stroke:#181818;stroke-width:1;stroke-dasharray:7.0,7.0;"/><polygon fill="#181818" points="475.41,370.35,466.41,366.35,470.41,370.35,466.41,374.35,475.41,370.35" style="stroke:#181818;stroke-width:1;"/><text fill="#000000" font-family="sans-serif" font-size="13" lengthAdjust="spacing" textLength="55.6563" x="389.65" y="366.8451">&#171;include&#187;</text></g><!--link Manager to ManageAppointments--><g id="link_Manager_ManageAppointments"><path d="M36.96,381.45 C42,428.83 57.95,507.51 108.23,549.35 C124.28,562.7 145.38,569.24 165.96,572.11 " fill="none" id="Manager-ManageAppointments" style="stroke:#181818;stroke-width:1;"/></g><!--reverse link ManageAppointments to ViewAppointments--><g id="link_ManageAppointments_ViewAppointments"><path d="M278.5517,588.8628 C323.1217,610.8328 401.76,648.44 475.65,677.35 C494.08,684.56 514.74,692.03 532.08,698.13 " fill="none" id="ManageAppointments-backto-ViewAppointments" style="stroke:#181818;stroke-width:1;stroke-dasharray:7.0,7.0;"/><polygon fill="#181818" points="273.17,586.21,279.474,593.777,277.6547,588.4207,283.0111,586.6014,273.17,586.21" style="stroke:#181818;stroke-width:1;"/><text fill="#000000" font-family="sans-serif" font-size="13" lengthAdjust="spacing" textLength="53.4917" x="390.65" y="638.0951">&#171;extend&#187;</text></g><!--reverse link ManageAppointments to AcceptAppointment--><g id="link_ManageAppointments_AcceptAppointment"><path d="M302.045,583.4154 C361.095,596.1554 449,615.12 510.18,628.31 " fill="none" id="ManageAppointments-backto-AcceptAppointment" style="stroke:#181818;stroke-width:1;stroke-dasharray:7.0,7.0;"/><polygon fill="#181818" points="296.18,582.15,304.134,587.9581,301.0675,583.2045,305.8212,580.138,296.18,582.15" style="stroke:#181818;stroke-width:1;"/><text fill="#000000" font-family="sans-serif" font-size="13" lengthAdjust="spacing" textLength="53.4917" x="390.65" y="600.2151">&#171;extend&#187;</text></g><!--reverse link ManageAppointments to RejectAppointment--><g id="link_ManageAppointments_RejectAppointment"><path d="M321.32,570.35 C375.54,570.35 442.84,570.35 497,570.35 " fill="none" id="ManageAppointments-backto-RejectAppointment" style="stroke:#181818;stroke-width:1;stroke-dasharray:7.0,7.0;"/><polygon fill="#181818" points="315.32,570.35,324.32,574.35,320.32,570.35,324.32,566.35,315.32,570.35" style="stroke:#181818;stroke-width:1;"/><text fill="#000000" font-family="sans-serif" font-size="13" lengthAdjust="spacing" textLength="53.4917" x="390.65" y="566.8451">&#171;extend&#187;</text></g><!--reverse link ManageAppointments to UpdateStatus--><g id="link_ManageAppointments_UpdateStatus"><path d="M307.7076,559.1308 C326.0076,555.8808 340.23,553.17 358.65,549.35 C411.96,538.29 472.37,523.86 515.02,513.34 " fill="none" id="ManageAppointments-backto-UpdateStatus" style="stroke:#181818;stroke-width:1;stroke-dasharray:7.0,7.0;"/><polygon fill="#181818" points="301.8,560.18,311.3608,562.5446,306.723,559.3057,309.9619,554.6679,301.8,560.18" style="stroke:#181818;stroke-width:1;"/><text fill="#000000" font-family="sans-serif" font-size="13" lengthAdjust="spacing" textLength="53.4917" x="390.65" y="527.7251">&#171;extend&#187;</text></g><!--link Manager to ViewHistory--><g id="link_Manager_ViewHistory"><path d="M61.62,372.04 C74.62,384.8 91.09,398.92 108.23,408.35 C128.35,419.42 152.06,427.41 173.75,433.07 " fill="none" id="Manager-ViewHistory" style="stroke:#181818;stroke-width:1;"/></g><!--SRC=[ZPFDRjGm483lVehHdjjz0BHQgHiX5GcG81HnuE8wqyHirWxsf7I5UkB0WHDlG8Lw0DGJNBfHJ-55yYOusR1ov4tL7F9Z-nlFJ3xRfLG5Dtm5fKN1BS971kvQSB5CZIvL4kbS6rYSn4-UFuvZTicOtJ5AqnZmLAOPnSlr8Y-nXN8y8o0DfXs7H1eK9BLYZ0joovznnLCqZBNZNAKvmkIugJu3PKtrLQKJu1RYVg__gKvUbCtckuAyleDbLb-93BBwMxzu6p4gBUaL6ZiAMbhdqfB7nDkHSIHfgYzkh_EcklOnDETIe6MZ76Nr7vK2IGMMvrhvSFiz1ADcSrE0ojo3zgCdHSAfHpkMT8gKeUdxD9P7litVHRxrSpWg2YqLhL3rjG_uDxWAmTSIFzoFHMxnTL-62WCS2O45UI722A-QwXU8LWCPyY_ndHFcNdxOHzDihjf6EbsatqJYL6xJl-pkRAnusrGt-njnxAJHPjtQtXsCKqtEFT1dJjn743a_kp9-251_FxaStk_-o5jrohNBgRsrornsFrS7tLRy02xgtzmJWB7-iC3XOM1vCBMJEPpP-HfETKfvxp2TpdtTN3spcLGYBnESp_T464WH3i5iEWtawOBY1Q5ANCmHA13cGLIWoOCeNuqXu1Vi__f_]--></g></svg>