<svg xmlns="http://www.w3.org/2000/svg" xmlns:xlink="http://www.w3.org/1999/xlink" contentStyleType="text/css" height="871px" preserveAspectRatio="none" style="width:840px;height:871px;background:#FFFFFF;" version="1.1" viewBox="0 0 840 871" width="840px" zoomAndPan="magnify"><defs/><g><rect fill="#FFFFFF" height="678.8906" style="stroke:#181818;stroke-width:1;" width="10" x="36.6689" y="92.6094"/><rect fill="#FFFFFF" height="656.5391" style="stroke:#181818;stroke-width:1;" width="10" x="258.5913" y="114.9609"/><rect fill="#FFFFFF" height="30.3516" style="stroke:#181818;stroke-width:1;" width="10" x="553.3994" y="145.3125"/><rect fill="#FFFFFF" height="60.7031" style="stroke:#181818;stroke-width:1;" width="10" x="553.3994" y="292.0703"/><rect fill="#FFFFFF" height="60.7031" style="stroke:#181818;stroke-width:1;" width="10" x="553.3994" y="459.6641"/><rect fill="#FFFFFF" height="30.3516" style="stroke:#181818;stroke-width:1;" width="10" x="553.3994" y="596.9063"/><rect fill="#FFFFFF" height="30.3516" style="stroke:#181818;stroke-width:1;" width="10" x="553.3994" y="703.7969"/><rect fill="none" height="521.1328" style="stroke:#000000;stroke-width:1.5;" width="823.647" x="10" y="221.0156"/><line style="stroke:#181818;stroke-width:0.5;stroke-dasharray:5.0,5.0;" x1="41" x2="41" y1="82.6094" y2="789.5"/><line style="stroke:#181818;stroke-width:0.5;stroke-dasharray:5.0,5.0;" x1="262.626" x2="262.626" y1="82.6094" y2="789.5"/><line style="stroke:#181818;stroke-width:0.5;stroke-dasharray:5.0,5.0;" x1="557.9893" x2="557.9893" y1="82.6094" y2="789.5"/><line style="stroke:#181818;stroke-width:0.5;stroke-dasharray:5.0,5.0;" x1="782.9165" x2="782.9165" y1="82.6094" y2="789.5"/><text fill="#000000" font-family="sans-serif" font-size="14" lengthAdjust="spacing" textLength="37.3379" x="20" y="79.5332">Stylist</text><ellipse cx="41.6689" cy="13.5" fill="#E2E2F0" rx="8" ry="8" style="stroke:#181818;stroke-width:0.5;"/><path d="M41.6689,21.5 L41.6689,48.5 M28.6689,29.5 L54.6689,29.5 M41.6689,48.5 L28.6689,63.5 M41.6689,48.5 L54.6689,63.5 " fill="none" style="stroke:#181818;stroke-width:0.5;"/><text fill="#000000" font-family="sans-serif" font-size="14" lengthAdjust="spacing" textLength="37.3379" x="20" y="803.0332">Stylist</text><ellipse cx="41.6689" cy="814.6094" fill="#E2E2F0" rx="8" ry="8" style="stroke:#181818;stroke-width:0.5;"/><path d="M41.6689,822.6094 L41.6689,849.6094 M28.6689,830.6094 L54.6689,830.6094 M41.6689,849.6094 L28.6689,864.6094 M41.6689,849.6094 L54.6689,864.6094 " fill="none" style="stroke:#181818;stroke-width:0.5;"/><rect fill="#E2E2F0" height="31.6094" rx="2.5" ry="2.5" style="stroke:#181818;stroke-width:0.5;" width="73.9307" x="226.626" y="50"/><text fill="#000000" font-family="sans-serif" font-size="14" lengthAdjust="spacing" textLength="59.9307" x="233.626" y="71.5332">Giao di&#7879;n</text><rect fill="#E2E2F0" height="31.6094" rx="2.5" ry="2.5" style="stroke:#181818;stroke-width:0.5;" width="73.9307" x="226.626" y="788.5"/><text fill="#000000" font-family="sans-serif" font-size="14" lengthAdjust="spacing" textLength="59.9307" x="233.626" y="810.0332">Giao di&#7879;n</text><rect fill="#E2E2F0" height="31.6094" rx="2.5" ry="2.5" style="stroke:#181818;stroke-width:0.5;" width="70.8203" x="522.9893" y="50"/><text fill="#000000" font-family="sans-serif" font-size="14" lengthAdjust="spacing" textLength="56.8203" x="529.9893" y="71.5332">H&#7879; th&#7889;ng</text><rect fill="#E2E2F0" height="31.6094" rx="2.5" ry="2.5" style="stroke:#181818;stroke-width:0.5;" width="70.8203" x="522.9893" y="788.5"/><text fill="#000000" font-family="sans-serif" font-size="14" lengthAdjust="spacing" textLength="56.8203" x="529.9893" y="810.0332">H&#7879; th&#7889;ng</text><text fill="#000000" font-family="sans-serif" font-size="14" lengthAdjust="spacing" textLength="74.7305" x="742.9165" y="79.5332">Kh&#225;ch h&#224;ng</text><ellipse cx="783.2817" cy="13.5" fill="#E2E2F0" rx="8" ry="8" style="stroke:#181818;stroke-width:0.5;"/><path d="M783.2817,21.5 L783.2817,48.5 M770.2817,29.5 L796.2817,29.5 M783.2817,48.5 L770.2817,63.5 M783.2817,48.5 L796.2817,63.5 " fill="none" style="stroke:#181818;stroke-width:0.5;"/><text fill="#000000" font-family="sans-serif" font-size="14" lengthAdjust="spacing" textLength="74.7305" x="742.9165" y="803.0332">Kh&#225;ch h&#224;ng</text><ellipse cx="783.2817" cy="814.6094" fill="#E2E2F0" rx="8" ry="8" style="stroke:#181818;stroke-width:0.5;"/><path d="M783.2817,822.6094 L783.2817,849.6094 M770.2817,830.6094 L796.2817,830.6094 M783.2817,849.6094 L770.2817,864.6094 M783.2817,849.6094 L796.2817,864.6094 " fill="none" style="stroke:#181818;stroke-width:0.5;"/><rect fill="#FFFFFF" height="678.8906" style="stroke:#181818;stroke-width:1;" width="10" x="36.6689" y="92.6094"/><rect fill="#FFFFFF" height="656.5391" style="stroke:#181818;stroke-width:1;" width="10" x="258.5913" y="114.9609"/><rect fill="#FFFFFF" height="30.3516" style="stroke:#181818;stroke-width:1;" width="10" x="553.3994" y="145.3125"/><rect fill="#FFFFFF" height="60.7031" style="stroke:#181818;stroke-width:1;" width="10" x="553.3994" y="292.0703"/><rect fill="#FFFFFF" height="60.7031" style="stroke:#181818;stroke-width:1;" width="10" x="553.3994" y="459.6641"/><rect fill="#FFFFFF" height="30.3516" style="stroke:#181818;stroke-width:1;" width="10" x="553.3994" y="596.9063"/><rect fill="#FFFFFF" height="30.3516" style="stroke:#181818;stroke-width:1;" width="10" x="553.3994" y="703.7969"/><polygon fill="#181818" points="246.5913,110.9609,256.5913,114.9609,246.5913,118.9609,250.5913,114.9609" style="stroke:#181818;stroke-width:1;"/><line style="stroke:#181818;stroke-width:1;" x1="46.6689" x2="252.5913" y1="114.9609" y2="114.9609"/><text fill="#000000" font-family="sans-serif" font-size="13" lengthAdjust="spacing" textLength="153.207" x="53.6689" y="110.1045">1. Xem danh s&#225;ch l&#7883;ch h&#7865;n</text><polygon fill="#181818" points="541.3994,141.3125,551.3994,145.3125,541.3994,149.3125,545.3994,145.3125" style="stroke:#181818;stroke-width:1;"/><line style="stroke:#181818;stroke-width:1;" x1="268.5913" x2="547.3994" y1="145.3125" y2="145.3125"/><text fill="#000000" font-family="sans-serif" font-size="13" lengthAdjust="spacing" textLength="147.437" x="275.5913" y="140.4561">2. L&#7845;y danh s&#225;ch l&#7883;ch h&#7865;n</text><polygon fill="#181818" points="279.5913,171.6641,269.5913,175.6641,279.5913,179.6641,275.5913,175.6641" style="stroke:#181818;stroke-width:1;"/><line style="stroke:#181818;stroke-width:1;stroke-dasharray:2.0,2.0;" x1="273.5913" x2="557.3994" y1="175.6641" y2="175.6641"/><text fill="#000000" font-family="sans-serif" font-size="13" lengthAdjust="spacing" textLength="163.3188" x="285.5913" y="170.8076">3. Tr&#7843; v&#7873; danh s&#225;ch l&#7883;ch h&#7865;n</text><polygon fill="#181818" points="57.6689,202.0156,47.6689,206.0156,57.6689,210.0156,53.6689,206.0156" style="stroke:#181818;stroke-width:1;"/><line style="stroke:#181818;stroke-width:1;stroke-dasharray:2.0,2.0;" x1="51.6689" x2="257.5913" y1="206.0156" y2="206.0156"/><text fill="#000000" font-family="sans-serif" font-size="13" lengthAdjust="spacing" textLength="170.5552" x="63.6689" y="201.1592">4. Hi&#7875;n th&#7883; danh s&#225;ch l&#7883;ch h&#7865;n</text><path d="M10,221.0156 L70.1709,221.0156 L70.1709,229.3672 L60.1709,239.3672 L10,239.3672 L10,221.0156 " fill="#EEEEEE" style="stroke:#000000;stroke-width:1.5;"/><rect fill="none" height="521.1328" style="stroke:#000000;stroke-width:1.5;" width="823.647" x="10" y="221.0156"/><text fill="#000000" font-family="sans-serif" font-size="13" font-weight="bold" lengthAdjust="spacing" textLength="15.1709" x="25" y="235.5107">alt</text><text fill="#000000" font-family="sans-serif" font-size="11" font-weight="bold" lengthAdjust="spacing" textLength="100.8477" x="85.1709" y="234.4346">[X&#225;c nh&#7853;n l&#7883;ch h&#7865;n]</text><polygon fill="#181818" points="246.5913,257.7188,256.5913,261.7188,246.5913,265.7188,250.5913,261.7188" style="stroke:#181818;stroke-width:1;"/><line style="stroke:#181818;stroke-width:1;" x1="46.6689" x2="252.5913" y1="261.7188" y2="261.7188"/><text fill="#000000" font-family="sans-serif" font-size="13" lengthAdjust="spacing" textLength="133.7134" x="53.6689" y="256.8623">5a. Ch&#7845;p nh&#7853;n l&#7883;ch h&#7865;n</text><polygon fill="#181818" points="541.3994,288.0703,551.3994,292.0703,541.3994,296.0703,545.3994,292.0703" style="stroke:#181818;stroke-width:1;"/><line style="stroke:#181818;stroke-width:1;" x1="268.5913" x2="547.3994" y1="292.0703" y2="292.0703"/><text fill="#000000" font-family="sans-serif" font-size="13" lengthAdjust="spacing" textLength="254.2363" x="275.5913" y="287.2139">6a. C&#7853;p nh&#7853;t tr&#7841;ng th&#225;i th&#224;nh "&#272;&#227; x&#225;c nh&#7853;n"</text><polygon fill="#181818" points="771.2817,318.4219,781.2817,322.4219,771.2817,326.4219,775.2817,322.4219" style="stroke:#181818;stroke-width:1;"/><line style="stroke:#181818;stroke-width:1;" x1="563.3994" x2="777.2817" y1="322.4219" y2="322.4219"/><text fill="#000000" font-family="sans-serif" font-size="13" lengthAdjust="spacing" textLength="195.8823" x="570.3994" y="317.5654">7a. G&#7917;i email th&#244;ng b&#225;o x&#225;c nh&#7853;n</text><polygon fill="#181818" points="279.5913,348.7734,269.5913,352.7734,279.5913,356.7734,275.5913,352.7734" style="stroke:#181818;stroke-width:1;"/><line style="stroke:#181818;stroke-width:1;stroke-dasharray:2.0,2.0;" x1="273.5913" x2="557.3994" y1="352.7734" y2="352.7734"/><text fill="#000000" font-family="sans-serif" font-size="13" lengthAdjust="spacing" textLength="198.0469" x="285.5913" y="347.917">8a. X&#225;c nh&#7853;n c&#7853;p nh&#7853;t th&#224;nh c&#244;ng</text><line style="stroke:#000000;stroke-width:1;stroke-dasharray:2.0,2.0;" x1="10" x2="833.647" y1="361.7734" y2="361.7734"/><text fill="#000000" font-family="sans-serif" font-size="11" font-weight="bold" lengthAdjust="spacing" textLength="92.2969" x="15" y="373.1924">[T&#7915; ch&#7889;i l&#7883;ch h&#7865;n]</text><polygon fill="#181818" points="246.5913,394.9609,256.5913,398.9609,246.5913,402.9609,250.5913,398.9609" style="stroke:#181818;stroke-width:1;"/><line style="stroke:#181818;stroke-width:1;" x1="46.6689" x2="252.5913" y1="398.9609" y2="398.9609"/><text fill="#000000" font-family="sans-serif" font-size="13" lengthAdjust="spacing" textLength="114.207" x="53.6689" y="394.1045">5b. T&#7915; ch&#7889;i l&#7883;ch h&#7865;n</text><polygon fill="#181818" points="246.5913,425.3125,256.5913,429.3125,246.5913,433.3125,250.5913,429.3125" style="stroke:#181818;stroke-width:1;"/><line style="stroke:#181818;stroke-width:1;" x1="46.6689" x2="252.5913" y1="429.3125" y2="429.3125"/><text fill="#000000" font-family="sans-serif" font-size="13" lengthAdjust="spacing" textLength="127.2197" x="53.6689" y="424.4561">6b. Nh&#7853;p l&#253; do t&#7915; ch&#7889;i</text><polygon fill="#181818" points="541.3994,455.6641,551.3994,459.6641,541.3994,463.6641,545.3994,459.6641" style="stroke:#181818;stroke-width:1;"/><line style="stroke:#181818;stroke-width:1;" x1="268.5913" x2="547.3994" y1="459.6641" y2="459.6641"/><text fill="#000000" font-family="sans-serif" font-size="13" lengthAdjust="spacing" textLength="241.249" x="275.5913" y="454.8076">7b. C&#7853;p nh&#7853;t tr&#7841;ng th&#225;i th&#224;nh "&#272;&#227; t&#7915; ch&#7889;i"</text><polygon fill="#181818" points="771.2817,486.0156,781.2817,490.0156,771.2817,494.0156,775.2817,490.0156" style="stroke:#181818;stroke-width:1;"/><line style="stroke:#181818;stroke-width:1;" x1="563.3994" x2="777.2817" y1="490.0156" y2="490.0156"/><text fill="#000000" font-family="sans-serif" font-size="13" lengthAdjust="spacing" textLength="182.895" x="570.3994" y="485.1592">8b. G&#7917;i email th&#244;ng b&#225;o t&#7915; ch&#7889;i</text><polygon fill="#181818" points="279.5913,516.3672,269.5913,520.3672,279.5913,524.3672,275.5913,520.3672" style="stroke:#181818;stroke-width:1;"/><line style="stroke:#181818;stroke-width:1;stroke-dasharray:2.0,2.0;" x1="273.5913" x2="557.3994" y1="520.3672" y2="520.3672"/><text fill="#000000" font-family="sans-serif" font-size="13" lengthAdjust="spacing" textLength="198.0469" x="285.5913" y="515.5107">9b. X&#225;c nh&#7853;n c&#7853;p nh&#7853;t th&#224;nh c&#244;ng</text><line style="stroke:#000000;stroke-width:1;stroke-dasharray:2.0,2.0;" x1="10" x2="833.647" y1="529.3672" y2="529.3672"/><text fill="#000000" font-family="sans-serif" font-size="11" font-weight="bold" lengthAdjust="spacing" textLength="112.4385" x="15" y="540.7861">[Ho&#224;n th&#224;nh l&#7883;ch h&#7865;n]</text><polygon fill="#181818" points="246.5913,562.5547,256.5913,566.5547,246.5913,570.5547,250.5913,566.5547" style="stroke:#181818;stroke-width:1;"/><line style="stroke:#181818;stroke-width:1;" x1="46.6689" x2="252.5913" y1="566.5547" y2="566.5547"/><text fill="#000000" font-family="sans-serif" font-size="13" lengthAdjust="spacing" textLength="146.0088" x="53.6689" y="561.6982">5c. &#272;&#225;nh d&#7845;u ho&#224;n th&#224;nh</text><polygon fill="#181818" points="541.3994,592.9063,551.3994,596.9063,541.3994,600.9063,545.3994,596.9063" style="stroke:#181818;stroke-width:1;"/><line style="stroke:#181818;stroke-width:1;" x1="268.5913" x2="547.3994" y1="596.9063" y2="596.9063"/><text fill="#000000" font-family="sans-serif" font-size="13" lengthAdjust="spacing" textLength="265.8081" x="275.5913" y="592.0498">6c. C&#7853;p nh&#7853;t tr&#7841;ng th&#225;i th&#224;nh "&#272;&#227; ho&#224;n th&#224;nh"</text><polygon fill="#181818" points="279.5913,623.2578,269.5913,627.2578,279.5913,631.2578,275.5913,627.2578" style="stroke:#181818;stroke-width:1;"/><line style="stroke:#181818;stroke-width:1;stroke-dasharray:2.0,2.0;" x1="273.5913" x2="557.3994" y1="627.2578" y2="627.2578"/><text fill="#000000" font-family="sans-serif" font-size="13" lengthAdjust="spacing" textLength="197.3169" x="285.5913" y="622.4014">7c. X&#225;c nh&#7853;n c&#7853;p nh&#7853;t th&#224;nh c&#244;ng</text><line style="stroke:#000000;stroke-width:1;stroke-dasharray:2.0,2.0;" x1="10" x2="833.647" y1="636.2578" y2="636.2578"/><text fill="#000000" font-family="sans-serif" font-size="11" font-weight="bold" lengthAdjust="spacing" textLength="99.6069" x="15" y="647.6768">[Kh&#225;ch kh&#244;ng &#273;&#7871;n]</text><polygon fill="#181818" points="246.5913,669.4453,256.5913,673.4453,246.5913,677.4453,250.5913,673.4453" style="stroke:#181818;stroke-width:1;"/><line style="stroke:#181818;stroke-width:1;" x1="46.6689" x2="252.5913" y1="673.4453" y2="673.4453"/><text fill="#000000" font-family="sans-serif" font-size="13" lengthAdjust="spacing" textLength="142.397" x="53.6689" y="668.5889">5d. &#272;&#225;nh d&#7845;u kh&#244;ng &#273;&#7871;n</text><polygon fill="#181818" points="541.3994,699.7969,551.3994,703.7969,541.3994,707.7969,545.3994,703.7969" style="stroke:#181818;stroke-width:1;"/><line style="stroke:#181818;stroke-width:1;" x1="268.5913" x2="547.3994" y1="703.7969" y2="703.7969"/><text fill="#000000" font-family="sans-serif" font-size="13" lengthAdjust="spacing" textLength="244.1372" x="275.5913" y="698.9404">6d. C&#7853;p nh&#7853;t tr&#7841;ng th&#225;i th&#224;nh "Kh&#244;ng &#273;&#7871;n"</text><polygon fill="#181818" points="279.5913,730.1484,269.5913,734.1484,279.5913,738.1484,275.5913,734.1484" style="stroke:#181818;stroke-width:1;"/><line style="stroke:#181818;stroke-width:1;stroke-dasharray:2.0,2.0;" x1="273.5913" x2="557.3994" y1="734.1484" y2="734.1484"/><text fill="#000000" font-family="sans-serif" font-size="13" lengthAdjust="spacing" textLength="198.0469" x="285.5913" y="729.292">7d. X&#225;c nh&#7853;n c&#7853;p nh&#7853;t th&#224;nh c&#244;ng</text><polygon fill="#181818" points="52.6689,767.5,42.6689,771.5,52.6689,775.5,48.6689,771.5" style="stroke:#181818;stroke-width:1;"/><line style="stroke:#181818;stroke-width:1;stroke-dasharray:2.0,2.0;" x1="46.6689" x2="262.5913" y1="771.5" y2="771.5"/><text fill="#000000" font-family="sans-serif" font-size="13" lengthAdjust="spacing" textLength="187.9224" x="58.6689" y="766.6436">9. Hi&#7875;n th&#7883; th&#244;ng b&#225;o th&#224;nh c&#244;ng</text><!--SRC=[hLMnRjim4Dtr5GVj5j2ciHCFNZhOG8eipP2L8ec8g4mP5ct4Oz0XGvRa3o84cOfiNMgXw23_2F-aHucnAKM2NJGQB4DtxzrxJmUAK9NCmV-gLh58bGyaXRJwxyt8N0agPaGgyCU29C24pczbsRGGzVe4Aw0YdJ_8gufbbIe-zKZ5VnOL6OqWAXvjcIvIbKpvt3CTOaaKtywrT-YDSCeGFWHmoQV0Y8mWBLbYdTyPCht-9NTmLEGjX45LeuVmCO0lUlsyse-rOgiRzEpaem0kvdhz14kTttIICDwaAMKO7PMH8NmAO8BHVPTbGdUTL1w95LpYSv3uu4NMgu1N8vjZ4i1dh3xFEX7rIFe6W8ssNu52WvcyGc559ipl8qhpD_V54rplXFWbLTDdASX6Djg-qI4CSCXOvoy2-9I8sB3-n15XaIKkQGrl3PqWr0s0rhHMwgXXAy4jqVCuvN2Xynz0pJAA_H66mJ_rzx7_F2fbnSLlO0ce7RebyK5uUE8EKslYq1dvITWTULDV8_BJy3qYdoJO-Dg-DtCQ01hEi9NXyYuWSj1jMqiFpz2bsh-sLj20laS6zf3xLcM_UT3hF-tsMSF-MqJ3Fpl8_vbBSxXtzd_UkMHlJxpJnebNsqUNq-730znbjr-3lm00]--></g></svg>