<svg xmlns="http://www.w3.org/2000/svg" xmlns:xlink="http://www.w3.org/1999/xlink" contentStyleType="text/css" height="972px" preserveAspectRatio="none" style="width:933px;height:972px;background:#FFFFFF;" version="1.1" viewBox="0 0 933 972" width="933px" zoomAndPan="magnify"><defs/><g><!--cluster H? th?ng--><g id="cluster_H&#7879; th&#7889;ng"><rect fill="none" height="959" rx="2.5" ry="2.5" style="stroke:#181818;stroke-width:1;" width="577.48" x="180.03" y="7"/><text fill="#000000" font-family="sans-serif" font-size="14" font-weight="bold" lengthAdjust="spacing" textLength="60.6553" x="438.4424" y="23.5332">H&#7879; th&#7889;ng</text></g><!--cluster A--><g id="cluster_A"><rect fill="none" height="479" rx="2.5" ry="2.5" style="stroke:#181818;stroke-width:1;" width="225.04" x="220.03" y="447"/><text fill="#000000" font-family="sans-serif" font-size="14" font-weight="bold" lengthAdjust="spacing" textLength="117.4824" x="273.8088" y="463.5332">Ch&#7913;c n&#259;ng Guest</text></g><!--cluster B--><g id="cluster_B"><rect fill="none" height="356" rx="2.5" ry="2.5" style="stroke:#181818;stroke-width:1;" width="185.36" x="239.87" y="59"/><text fill="#000000" font-family="sans-serif" font-size="14" font-weight="bold" lengthAdjust="spacing" textLength="143.1514" x="260.9743" y="75.5332">Ch&#7913;c n&#259;ng Customer</text></g><!--cluster C--><g id="cluster_C"><rect fill="none" height="411" rx="2.5" ry="2.5" style="stroke:#181818;stroke-width:1;" width="217.77" x="500.41" y="71"/><text fill="#000000" font-family="sans-serif" font-size="14" font-weight="bold" lengthAdjust="spacing" textLength="119.8203" x="549.3848" y="87.5332">Ch&#7913;c n&#259;ng Stylist</text></g><!--cluster D--><g id="cluster_D"><rect fill="none" height="412" rx="2.5" ry="2.5" style="stroke:#181818;stroke-width:1;" width="232.44" x="493.07" y="522"/><text fill="#000000" font-family="sans-serif" font-size="14" font-weight="bold" lengthAdjust="spacing" textLength="135.3789" x="541.6005" y="538.5332">Ch&#7913;c n&#259;ng Manager</text></g><g id="elem_ViewService"><ellipse cx="332.5486" cy="534.0037" fill="#FFFFCC" rx="88.5186" ry="20.1037" style="stroke:#181818;stroke-width:0.5;"/><text fill="#000000" font-family="sans-serif" font-size="14" lengthAdjust="spacing" textLength="134.6338" x="265.2317" y="537.7322">Xem th&#244;ng tin d&#7883;ch v&#7909;</text></g><g id="elem_ViewStylist"><ellipse cx="332.5526" cy="607.9985" fill="#FFFFCC" rx="84.5426" ry="19.3085" style="stroke:#181818;stroke-width:0.5;"/><text fill="#000000" font-family="sans-serif" font-size="14" lengthAdjust="spacing" textLength="125.2754" x="269.9149" y="611.727">Xem th&#244;ng tin stylist</text></g><g id="elem_ViewSalon"><ellipse cx="332.5492" cy="680.9998" fill="#FFFFCC" rx="83.8992" ry="19.1798" style="stroke:#181818;stroke-width:0.5;"/><text fill="#000000" font-family="sans-serif" font-size="14" lengthAdjust="spacing" textLength="123.7441" x="270.6771" y="684.7284">Xem th&#244;ng tin salon</text></g><g id="elem_SearchService"><ellipse cx="332.5497" cy="753.0019" fill="#FFFFCC" rx="76.6597" ry="17.7319" style="stroke:#181818;stroke-width:0.5;"/><text fill="#000000" font-family="sans-serif" font-size="14" lengthAdjust="spacing" textLength="105.7998" x="277.0751" y="757.4194">T&#236;m ki&#7871;m d&#7883;ch v&#7909;</text></g><g id="elem_Login"><ellipse cx="332.5502" cy="820.9965" fill="#FFFFCC" rx="60.5402" ry="15.5865" style="stroke:#181818;stroke-width:0.5;"/><text fill="#000000" font-family="sans-serif" font-size="14" lengthAdjust="spacing" textLength="68.5029" x="295.2987" y="825.5131">&#272;&#259;ng nh&#7853;p</text></g><g id="elem_Register"><ellipse cx="332.5528" cy="886.9972" fill="#FFFFCC" rx="47.8928" ry="15.4772" style="stroke:#181818;stroke-width:0.5;"/><text fill="#000000" font-family="sans-serif" font-size="14" lengthAdjust="spacing" textLength="51.3584" x="304.8464" y="891.2891">&#272;&#259;ng k&#253;</text></g><g id="elem_BookAppointment"><ellipse cx="332.5508" cy="383.0033" fill="#FFFFCC" rx="64.5508" ry="15.6133" style="stroke:#181818;stroke-width:0.5;"/><text fill="#000000" font-family="sans-serif" font-size="14" lengthAdjust="spacing" textLength="73.9307" x="292.5855" y="387.5199">&#272;&#7863;t l&#7883;ch h&#7865;n</text></g><g id="elem_ViewAppointment"><ellipse cx="332.5484" cy="315.9957" fill="#FFFFCC" rx="67.7284" ry="15.9457" style="stroke:#181818;stroke-width:0.5;"/><text fill="#000000" font-family="sans-serif" font-size="14" lengthAdjust="spacing" textLength="80.9307" x="289.0831" y="320.5123">Xem l&#7883;ch h&#7865;n</text></g><g id="elem_CancelAppointment"><ellipse cx="332.5488" cy="248.9978" fill="#FFFFCC" rx="66.4388" ry="15.6878" style="stroke:#181818;stroke-width:0.5;"/><text fill="#000000" font-family="sans-serif" font-size="14" lengthAdjust="spacing" textLength="77.041" x="291.0283" y="253.5144">H&#7911;y l&#7883;ch h&#7865;n</text></g><g id="elem_ChangePassword"><ellipse cx="332.552" cy="182.0004" fill="#FFFFCC" rx="68.252" ry="16.0504" style="stroke:#181818;stroke-width:0.5;"/><text fill="#000000" font-family="sans-serif" font-size="14" lengthAdjust="spacing" textLength="82.4824" x="288.3107" y="186.517">&#272;&#7893;i m&#7853;t kh&#7849;u</text></g><g id="elem_ManageInfo"><ellipse cx="332.548" cy="112.9956" fill="#FFFFCC" rx="76.678" ry="17.7356" style="stroke:#181818;stroke-width:0.5;"/><text fill="#000000" font-family="sans-serif" font-size="14" lengthAdjust="spacing" textLength="105.8477" x="277.0588" y="117.4109">Qu&#7843;n l&#253; th&#244;ng tin</text></g><g id="elem_ViewStylistAppointment"><ellipse cx="609.2884" cy="153.9957" fill="#FFFFCC" rx="67.7284" ry="15.9457" style="stroke:#181818;stroke-width:0.5;"/><text fill="#000000" font-family="sans-serif" font-size="14" lengthAdjust="spacing" textLength="80.9307" x="565.8231" y="158.5123">Xem l&#7883;ch h&#7865;n</text></g><g id="elem_AcceptAppointment"><ellipse cx="609.2946" cy="224.0009" fill="#FFFFCC" rx="82.6046" ry="18.9209" style="stroke:#181818;stroke-width:0.5;"/><text fill="#000000" font-family="sans-serif" font-size="14" lengthAdjust="spacing" textLength="120.6475" x="548.9709" y="227.7294">Ch&#7845;p nh&#7853;n l&#7883;ch h&#7865;n</text></g><g id="elem_RejectAppointment"><ellipse cx="609.2879" cy="294.9996" fill="#FFFFCC" rx="74.3479" ry="17.2696" style="stroke:#181818;stroke-width:0.5;"/><text fill="#000000" font-family="sans-serif" font-size="14" lengthAdjust="spacing" textLength="99.6406" x="556.4676" y="299.5162">T&#7915; ch&#7889;i l&#7883;ch h&#7865;n</text></g><g id="elem_UpdateStatus"><ellipse cx="609.2942" cy="366.0008" fill="#FFFFCC" rx="81.9542" ry="18.7908" style="stroke:#181818;stroke-width:0.5;"/><text fill="#000000" font-family="sans-serif" font-size="14" lengthAdjust="spacing" textLength="119.082" x="549.5981" y="369.7755">C&#7853;p nh&#7853;t tr&#7841;ng th&#225;i</text></g><g id="elem_ViewHistory"><ellipse cx="609.2853" cy="438.9971" fill="#FFFFCC" rx="84.8853" ry="19.3771" style="stroke:#181818;stroke-width:0.5;"/><text fill="#000000" font-family="sans-serif" font-size="14" lengthAdjust="spacing" textLength="126.0889" x="546.2408" y="442.7256">Xem l&#7883;ch s&#7917; l&#7883;ch h&#7865;n</text></g><g id="elem_ManageCustomers"><ellipse cx="609.2893" cy="890.9959" fill="#FFFFCC" rx="84.2293" ry="19.2459" style="stroke:#181818;stroke-width:0.5;"/><text fill="#000000" font-family="sans-serif" font-size="14" lengthAdjust="spacing" textLength="124.5303" x="547.0241" y="894.7244">Qu&#7843;n l&#253; kh&#225;ch h&#224;ng</text></g><g id="elem_ManageStylists"><ellipse cx="609.292" cy="820.0004" fill="#FFFFCC" rx="69.852" ry="16.3704" style="stroke:#181818;stroke-width:0.5;"/><text fill="#000000" font-family="sans-serif" font-size="14" lengthAdjust="spacing" textLength="87.1377" x="562.7232" y="824.517">Qu&#7843;n l&#253; stylist</text></g><g id="elem_ManageServices"><ellipse cx="609.2918" cy="751.9984" fill="#FFFFCC" rx="73.1918" ry="17.0384" style="stroke:#181818;stroke-width:0.5;"/><text fill="#000000" font-family="sans-serif" font-size="14" lengthAdjust="spacing" textLength="96.4961" x="558.0438" y="756.515">Qu&#7843;n l&#253; d&#7883;ch v&#7909;</text></g><g id="elem_ManageSalon"><ellipse cx="609.2905" cy="679.0041" fill="#FFFFCC" rx="92.2205" ry="20.8441" style="stroke:#181818;stroke-width:0.5;"/><text fill="#000000" font-family="sans-serif" font-size="14" lengthAdjust="spacing" textLength="143.2061" x="537.6874" y="682.7326">Qu&#7843;n l&#253; th&#244;ng tin salon</text></g><g id="elem_ManageAppointments"><ellipse cx="609.2867" cy="605.9953" fill="#FFFFCC" rx="74.6267" ry="17.3253" style="stroke:#181818;stroke-width:0.5;"/><text fill="#000000" font-family="sans-serif" font-size="14" lengthAdjust="spacing" textLength="100.3926" x="556.0904" y="610.5119">Qu&#7843;n l&#253; l&#7883;ch h&#7865;n</text></g><!--entity Guest--><g id="elem_Guest"><ellipse cx="24.6758" cy="648.7" fill="#F1F1F1" rx="8" ry="8" style="stroke:#181818;stroke-width:0.5;"/><path d="M24.6758,656.7 L24.6758,683.7 M11.6758,664.7 L37.6758,664.7 M24.6758,683.7 L11.6758,698.7 M24.6758,683.7 L37.6758,698.7 " fill="none" style="stroke:#181818;stroke-width:0.5;"/><text fill="#000000" font-family="sans-serif" font-size="14" lengthAdjust="spacing" textLength="37.3516" x="6" y="714.7332">Guest</text></g><!--entity Customer--><g id="elem_Customer"><ellipse cx="133.6913" cy="252.7" fill="#F1F1F1" rx="8" ry="8" style="stroke:#181818;stroke-width:0.5;"/><path d="M133.6913,260.7 L133.6913,287.7 M120.6913,268.7 L146.6913,268.7 M133.6913,287.7 L120.6913,302.7 M133.6913,287.7 L146.6913,302.7 " fill="none" style="stroke:#181818;stroke-width:0.5;"/><text fill="#000000" font-family="sans-serif" font-size="14" lengthAdjust="spacing" textLength="60.6826" x="103.35" y="318.7332">Customer</text></g><!--entity Stylist--><g id="elem_Stylist"><ellipse cx="792.1789" cy="300.7" fill="#F1F1F1" rx="8" ry="8" style="stroke:#181818;stroke-width:0.5;"/><path d="M792.1789,308.7 L792.1789,335.7 M779.1789,316.7 L805.1789,316.7 M792.1789,335.7 L779.1789,350.7 M792.1789,335.7 L805.1789,350.7 " fill="none" style="stroke:#181818;stroke-width:0.5;"/><text fill="#000000" font-family="sans-serif" font-size="14" lengthAdjust="spacing" textLength="37.3379" x="773.51" y="366.7332">Stylist</text></g><!--entity Manager--><g id="elem_Manager"><ellipse cx="898.4774" cy="683.7" fill="#F1F1F1" rx="8" ry="8" style="stroke:#181818;stroke-width:0.5;"/><path d="M898.4774,691.7 L898.4774,718.7 M885.4774,699.7 L911.4774,699.7 M898.4774,718.7 L885.4774,733.7 M898.4774,718.7 L911.4774,733.7 " fill="none" style="stroke:#181818;stroke-width:0.5;"/><text fill="#000000" font-family="sans-serif" font-size="14" lengthAdjust="spacing" textLength="55.2549" x="870.85" y="749.7332">Manager</text></g><!--reverse link Guest to Customer--><g id="link_Guest_Customer"><path d="M40.9265,622.5735 C61.4165,546.7635 101.65,397.86 122.14,322.05 " fill="none" id="Guest-backto-Customer" style="stroke:#181818;stroke-width:1;"/><polygon fill="none" points="36.23,639.95,46.7187,624.139,35.1344,621.008,36.23,639.95" style="stroke:#181818;stroke-width:1;"/></g><!--reverse link Stylist to Manager--><g id="link_Stylist_Manager"><path d="M808.5811,387.5571 C828.6011,461.0471 866.82,601.41 886.82,674.87 " fill="none" id="Stylist-backto-Manager" style="stroke:#181818;stroke-width:1;"/><polygon fill="none" points="803.85,370.19,802.7921,389.1341,814.3702,385.9801,803.85,370.19" style="stroke:#181818;stroke-width:1;"/></g><!--link A to C--><!--link C to D--><!--link Guest to ViewService--><g id="link_Guest_ViewService"><path d="M43.84,665.34 C59.55,653.55 82.9,636.08 103.35,621 C133.74,598.59 137.69,586.69 172.03,571 C198.67,558.83 229.69,550.46 257.26,544.81 " fill="none" id="Guest-ViewService" style="stroke:#181818;stroke-width:1;"/></g><!--link Guest to ViewStylist--><g id="link_Guest_ViewStylist"><path d="M43.71,672.56 C59.35,667.13 82.65,659.4 103.35,654 C156.73,640.08 218.07,627.92 263.7,619.61 " fill="none" id="Guest-ViewStylist" style="stroke:#181818;stroke-width:1;"/></g><!--link Guest to ViewSalon--><g id="link_Guest_ViewSalon"><path d="M43.44,679.12 C82.52,679.37 178.06,680 248.46,680.46 " fill="none" id="Guest-ViewSalon" style="stroke:#181818;stroke-width:1;"/></g><!--link Guest to SearchService--><g id="link_Guest_SearchService"><path d="M43.64,684.06 C71.17,691.76 125.53,706.71 172.03,718 C205.92,726.23 244.07,734.63 274.56,741.14 " fill="none" id="Guest-SearchService" style="stroke:#181818;stroke-width:1;"/></g><!--link Guest to Login--><g id="link_Guest_Login"><path d="M43.83,696.76 C69.93,721.23 120.59,764.9 172.03,788 C204.67,802.65 244,810.88 275.45,815.46 " fill="none" id="Guest-Login" style="stroke:#181818;stroke-width:1;"/></g><!--link Guest to Register--><g id="link_Guest_Register"><path d="M43.8,714.67 C67.14,756.38 111.98,823.56 172.03,854 C207.6,872.03 252.38,880.21 285.43,883.92 " fill="none" id="Guest-Register" style="stroke:#181818;stroke-width:1;"/></g><!--link Customer to BookAppointment--><g id="link_Customer_BookAppointment"><path d="M149.76,322.11 C155.36,332.21 162.69,342.15 172.03,349 C199.55,369.18 236.5,377.9 267.91,381.47 " fill="none" id="Customer-BookAppointment" style="stroke:#181818;stroke-width:1;"/></g><!--link Customer to ViewAppointment--><g id="link_Customer_ViewAppointment"><path d="M164.16,287.94 C193.77,292.9 240.1,300.67 276.52,306.77 " fill="none" id="Customer-ViewAppointment" style="stroke:#181818;stroke-width:1;"/></g><!--link Customer to CancelAppointment--><g id="link_Customer_CancelAppointment"><path d="M164.16,277.91 C194.2,272.72 241.44,264.56 278.09,258.23 " fill="none" id="Customer-CancelAppointment" style="stroke:#181818;stroke-width:1;"/></g><!--link Customer to ChangePassword--><g id="link_Customer_ChangePassword"><path d="M149.27,244 C154.92,233.52 162.39,223.12 172.03,216 C198.46,196.49 233.69,187.67 264.32,183.87 " fill="none" id="Customer-ChangePassword" style="stroke:#181818;stroke-width:1;"/></g><!--link Customer to ManageInfo--><g id="link_Customer_ManageInfo"><path d="M135.12,243.79 C137.63,213.45 146.09,172.59 172.03,148 C194.26,126.94 226.13,117.42 255.54,113.45 " fill="none" id="Customer-ManageInfo" style="stroke:#181818;stroke-width:1;"/></g><!--link ViewStylistAppointment to Stylist--><g id="link_ViewStylistAppointment_Stylist"><path d="M676.9,152.51 C707.9,155.42 742.84,164.45 765.51,188 C779.51,202.54 786.04,254.76 788.96,291.89 " fill="none" id="ViewStylistAppointment-Stylist" style="stroke:#181818;stroke-width:1;"/></g><!--link AcceptAppointment to Stylist--><g id="link_AcceptAppointment_Stylist"><path d="M690.71,227.5 C717.18,232.32 745.03,241.82 765.51,260 C774.83,268.27 780.76,280.17 784.54,291.88 " fill="none" id="AcceptAppointment-Stylist" style="stroke:#181818;stroke-width:1;"/></g><!--link RejectAppointment to Stylist--><g id="link_RejectAppointment_Stylist"><path d="M667.03,306.29 C703.5,313.55 748.51,322.51 773.07,327.4 " fill="none" id="RejectAppointment-Stylist" style="stroke:#181818;stroke-width:1;"/></g><!--link UpdateStatus to Stylist--><g id="link_UpdateStatus_Stylist"><path d="M673.05,353.86 C708.36,347.03 749.89,338.99 773.11,334.5 " fill="none" id="UpdateStatus-Stylist" style="stroke:#181818;stroke-width:1;"/></g><!--link ViewHistory to Stylist--><g id="link_ViewHistory_Stylist"><path d="M692.35,434.62 C718.33,429.55 745.47,419.9 765.51,402 C774.8,393.71 780.73,381.79 784.51,370.08 " fill="none" id="ViewHistory-Stylist" style="stroke:#181818;stroke-width:1;"/></g><!--link ManageCustomers to Manager--><g id="link_ManageCustomers_Manager"><path d="M685.06,882.22 C711.73,876.81 741.17,868.08 765.51,854 C808.88,828.91 846.73,785.16 870.64,753.23 " fill="none" id="ManageCustomers-Manager" style="stroke:#181818;stroke-width:1;"/></g><!--link ManageStylists to Manager--><g id="link_ManageStylists_Manager"><path d="M670.06,811.55 C699.4,806.34 734.93,798.42 765.51,787 C804.02,772.62 844.93,748.42 870.81,731.86 " fill="none" id="ManageStylists-Manager" style="stroke:#181818;stroke-width:1;"/></g><!--link ManageServices to Manager--><g id="link_ManageServices_Manager"><path d="M673.67,743.61 C735.28,735.46 825.91,723.47 870.57,717.56 " fill="none" id="ManageServices-Manager" style="stroke:#181818;stroke-width:1;"/></g><!--link ManageSalon to Manager--><g id="link_ManageSalon_Manager"><path d="M691.44,688.89 C751.65,696.23 830.05,705.78 870.58,710.72 " fill="none" id="ManageSalon-Manager" style="stroke:#181818;stroke-width:1;"/></g><!--link ManageAppointments to Manager--><g id="link_ManageAppointments_Manager"><path d="M671.91,615.73 C700.88,621.35 735.56,629.61 765.51,641 C803.93,655.62 844.86,679.76 870.77,696.25 " fill="none" id="ManageAppointments-Manager" style="stroke:#181818;stroke-width:1;"/></g><!--SRC=[ZLLDRzGm4BtdLrXxtt_0PNUBQAM2e6aH4k9W9MvYajYHxRHQGKySE7210tSgLA6gz8Q4I5HnIFz8_Wd-IBBEEfkoXzLcvhru_6RcBKymoI636IWu2Y17u9stX44ICLgGS4LJoi3on3zuzjZtlGlFupsUK346FiHHBFnalKmBf0WfEXL0KC1K78IOeK1WIZmF1aB2dnI8Y_Rtgk22PeYrZxvOfxXFFeK4HZBdQGPuz7u-tn1Qg8dsI7KK956Am6o_gJu24JVL5nBDPDM2HaZ4YCcV5ceb0TS18FSVI6Ggcm78mKAYEdLchr0cNrJ_aWY12GYRwbCGWxEckjBObnYT-uYTuG3jv71JxGRVNdGd7gQKRD3gQOCzhdzc8C5D-JTpYl4HP47ib7F_ML-Gn4rvcslW8OqmSG19VQUpHoYIvKb5PJj1-zcbMjSIJLnAuO3riGveojy2fAPUMSSVSxybfSaYpoac8aD4Z9ELEWvJAVCWKqx1ZxNBNK4IeFH1jYow-ef19bKJ897qwyBGOoa4UWuvFwSi7EU-A9hoEm5fVMSrLhFDj1wGKzepBpppxKq9xLj3jB9qVbYcbZbstvuiZoglSZCYn7tD8WXGFls6uwQw0O7QEEpoZz1RUQtf2jHmcWAaVx2cl5IYnVKbrcyuoKCea2-WAFZatNbJtOxhi2z5e6pzFsAtbgAfUoDQM-rDP8dggFgRSfg-mTrUy4coxGo6rpPhchQzzotLxFqqTTHcMhuscYco8wiXMdtbjheBC7yTup14v8tqRXrQRK9i3lOyPJ76uAMHsruw3BQ6EGpgSllGqFlwi76w_h6tDgzha8fksv2TspOQE-SQoI0xz0axPPb0_rysB-QxrjM6kAjePzr5ixE39Te-jriFhnr-dTWUPZVN3-n8gXl8aPHkdXiVZD8_]--></g></svg>