<svg xmlns="http://www.w3.org/2000/svg" xmlns:xlink="http://www.w3.org/1999/xlink" contentStyleType="text/css" height="343px" preserveAspectRatio="none" style="width:346px;height:343px;background:#FFFFFF;" version="1.1" viewBox="0 0 346 343" width="346px" zoomAndPan="magnify"><defs/><g><!--entity System--><g id="elem_System"><rect fill="#F1F1F1" height="37.6094" rx="2.5" ry="2.5" style="stroke:#181818;stroke-width:0.5;" width="76.8203" x="155.94" y="299.72"/><text fill="#000000" font-family="sans-serif" font-size="14" lengthAdjust="spacing" textLength="56.8203" x="165.94" y="324.2532">H&#7879; th&#7889;ng</text></g><!--entity Guest--><g id="elem_Guest"><ellipse cx="40.3558" cy="14" fill="#F1F1F1" rx="8" ry="8" style="stroke:#181818;stroke-width:0.5;"/><path d="M40.3558,22 L40.3558,49 M27.3558,30 L53.3558,30 M40.3558,49 L27.3558,64 M40.3558,49 L53.3558,64 " fill="none" style="stroke:#181818;stroke-width:0.5;"/><text fill="#000000" font-family="sans-serif" font-size="14" lengthAdjust="spacing" textLength="37.3516" x="21.68" y="80.0332">Guest</text></g><!--entity Customer--><g id="elem_Customer"><ellipse cx="120.3513" cy="152.61" fill="#F1F1F1" rx="8" ry="8" style="stroke:#181818;stroke-width:0.5;"/><path d="M120.3513,160.61 L120.3513,187.61 M107.3513,168.61 L133.3513,168.61 M120.3513,187.61 L107.3513,202.61 M120.3513,187.61 L133.3513,202.61 " fill="none" style="stroke:#181818;stroke-width:0.5;"/><text fill="#000000" font-family="sans-serif" font-size="14" lengthAdjust="spacing" textLength="60.6826" x="90.01" y="218.6432">Customer</text></g><!--entity Stylist--><g id="elem_Stylist"><ellipse cx="253.3589" cy="14" fill="#F1F1F1" rx="8" ry="8" style="stroke:#181818;stroke-width:0.5;"/><path d="M253.3589,22 L253.3589,49 M240.3589,30 L266.3589,30 M253.3589,49 L240.3589,64 M253.3589,49 L266.3589,64 " fill="none" style="stroke:#181818;stroke-width:0.5;"/><text fill="#000000" font-family="sans-serif" font-size="14" lengthAdjust="spacing" textLength="37.3379" x="234.69" y="80.0332">Stylist</text></g><!--entity Manager--><g id="elem_Manager"><ellipse cx="312.3574" cy="152.61" fill="#F1F1F1" rx="8" ry="8" style="stroke:#181818;stroke-width:0.5;"/><path d="M312.3574,160.61 L312.3574,187.61 M299.3574,168.61 L325.3574,168.61 M312.3574,187.61 L299.3574,202.61 M312.3574,187.61 L325.3574,202.61 " fill="none" style="stroke:#181818;stroke-width:0.5;"/><text fill="#000000" font-family="sans-serif" font-size="14" lengthAdjust="spacing" textLength="55.2549" x="284.73" y="218.6432">Manager</text></g><!--reverse link Guest to Customer--><g id="link_Guest_Customer"><path d="M68.6137,93.564 C80.1637,113.294 85.85,122.99 97.94,143.65 " fill="none" id="Guest-backto-Customer" style="stroke:#181818;stroke-width:1;"/><polygon fill="none" points="59.52,78.03,63.4357,96.5952,73.7917,90.5328,59.52,78.03" style="stroke:#181818;stroke-width:1;"/></g><!--reverse link Stylist to Manager--><g id="link_Stylist_Manager"><path d="M276.9237,99.8861 C285.1037,118.8361 287.84,125.15 296.01,144.07 " fill="none" id="Stylist-backto-Manager" style="stroke:#181818;stroke-width:1;"/><polygon fill="none" points="269.79,83.36,271.415,102.264,282.4324,97.5082,269.79,83.36" style="stroke:#181818;stroke-width:1;"/></g><!--link Guest to System--><g id="link_Guest_System"><path d="M26.78,83.52 C15.87,121.25 6,179.28 30.35,221.72 C57.11,268.34 116.28,294.43 155.74,307.24 " fill="none" id="Guest-System" style="stroke:#181818;stroke-width:1;"/><text fill="#000000" font-family="sans-serif" font-size="13" lengthAdjust="spacing" textLength="40.46" x="31.35" y="188.4151">access</text></g><!--link Customer to System--><g id="link_Customer_System"><path d="M139.79,222.21 C147.54,237.14 156.67,254.34 165.35,269.72 C170.99,279.69 177.59,290.63 183.07,299.52 " fill="none" id="Customer-System" style="stroke:#181818;stroke-width:1;"/><text fill="#000000" font-family="sans-serif" font-size="13" lengthAdjust="spacing" textLength="27.46" x="166.35" y="266.2151">uses</text></g><!--link Stylist to System--><g id="link_Stylist_System"><path d="M245.09,83.44 C232.18,143 207.74,255.79 198.25,299.54 " fill="none" id="Stylist-System" style="stroke:#181818;stroke-width:1;"/><text fill="#000000" font-family="sans-serif" font-size="13" lengthAdjust="spacing" textLength="27.46" x="232.64" y="188.4151">uses</text></g><!--link Manager to System--><g id="link_Manager_System"><path d="M285.11,222.21 C273.7,237.47 259.94,254.89 246.35,269.72 C236.91,280.03 225.57,290.64 215.89,299.23 " fill="none" id="Manager-System" style="stroke:#181818;stroke-width:1;"/><text fill="#000000" font-family="sans-serif" font-size="13" lengthAdjust="spacing" textLength="53.479" x="262.89" y="266.2151">manages</text></g><!--SRC=[IqmkoIzIS2zDBIxXIWIpdKkBI_9pKukWtE2IofnCkAHlObvYEb2E2wn3mQP6LnUX0QeK8WfNMPIQN9AObvwJgg3ayN1tkq99niFT4_FIbHGIYnM2AujBKdCLghbgOIO2TK85hHGIavDJYukvOEQZo9KMfnR3BSIGW5gE8f4B5Ylc0W00]--></g></svg>