<svg xmlns="http://www.w3.org/2000/svg" xmlns:xlink="http://www.w3.org/1999/xlink" contentStyleType="text/css" height="394px" preserveAspectRatio="none" style="width:1820px;height:394px;background:#FFFFFF;" version="1.1" viewBox="0 0 1820 394" width="1820px" zoomAndPan="magnify"><defs/><g><!--entity guest--><g id="elem_guest"><rect fill="#F1F1F1" height="37.6094" rx="2.5" ry="2.5" style="stroke:#181818;stroke-width:0.5;" width="57.3516" x="363.58" y="7"/><text fill="#000000" font-family="sans-serif" font-size="14" lengthAdjust="spacing" textLength="37.3516" x="373.58" y="31.5332">Guest</text></g><!--entity customer--><g id="elem_customer"><rect fill="#F1F1F1" height="37.6094" rx="2.5" ry="2.5" style="stroke:#181818;stroke-width:0.5;" width="80.6826" x="1343.92" y="7"/><text fill="#000000" font-family="sans-serif" font-size="14" lengthAdjust="spacing" textLength="60.6826" x="1353.92" y="31.5332">Customer</text></g><!--entity stylist--><g id="elem_stylist"><rect fill="#F1F1F1" height="37.6094" rx="2.5" ry="2.5" style="stroke:#181818;stroke-width:0.5;" width="57.3379" x="1636.59" y="7"/><text fill="#000000" font-family="sans-serif" font-size="14" lengthAdjust="spacing" textLength="37.3379" x="1646.59" y="31.5332">Stylist</text></g><!--entity manager--><g id="elem_manager"><rect fill="#F1F1F1" height="37.6094" rx="2.5" ry="2.5" style="stroke:#181818;stroke-width:0.5;" width="75.2549" x="831.63" y="7"/><text fill="#000000" font-family="sans-serif" font-size="14" lengthAdjust="spacing" textLength="55.2549" x="841.63" y="31.5332">Manager</text></g><!--entity acc_mgmt--><g id="elem_acc_mgmt"><ellipse cx="1114.26" cy="187.61" fill="#F1F1F1" rx="8" ry="8" style="stroke:#181818;stroke-width:0.5;"/><text fill="#000000" font-family="sans-serif" font-size="14" lengthAdjust="spacing" textLength="19.4619" x="1083.5188" y="219.1432">1.0</text><text fill="#000000" font-family="sans-serif" font-size="14" lengthAdjust="spacing" textLength="48.248" x="1083.5188" y="236.7526">Qu&#7843;n l&#253;</text><text fill="#000000" font-family="sans-serif" font-size="14" lengthAdjust="spacing" textLength="61.4824" x="1083.5188" y="254.362">T&#224;i kho&#7843;n</text></g><!--entity apt_mgmt--><g id="elem_apt_mgmt"><ellipse cx="1498.26" cy="187.61" fill="#F1F1F1" rx="8" ry="8" style="stroke:#181818;stroke-width:0.5;"/><text fill="#000000" font-family="sans-serif" font-size="14" lengthAdjust="spacing" textLength="19.4619" x="1471.7947" y="219.1432">2.0</text><text fill="#000000" font-family="sans-serif" font-size="14" lengthAdjust="spacing" textLength="48.248" x="1471.7947" y="236.7526">Qu&#7843;n l&#253;</text><text fill="#000000" font-family="sans-serif" font-size="14" lengthAdjust="spacing" textLength="52.9307" x="1471.7947" y="254.362">L&#7883;ch h&#7865;n</text></g><!--entity svc_mgmt--><g id="elem_svc_mgmt"><ellipse cx="563.26" cy="187.61" fill="#F1F1F1" rx="8" ry="8" style="stroke:#181818;stroke-width:0.5;"/><text fill="#000000" font-family="sans-serif" font-size="14" lengthAdjust="spacing" textLength="19.4619" x="539.136" y="219.1432">3.0</text><text fill="#000000" font-family="sans-serif" font-size="14" lengthAdjust="spacing" textLength="48.248" x="539.136" y="236.7526">Qu&#7843;n l&#253;</text><text fill="#000000" font-family="sans-serif" font-size="14" lengthAdjust="spacing" textLength="46.6826" x="539.136" y="254.362">D&#7883;ch v&#7909;</text></g><!--entity stylist_mgmt--><g id="elem_stylist_mgmt"><ellipse cx="936.26" cy="187.61" fill="#F1F1F1" rx="8" ry="8" style="stroke:#181818;stroke-width:0.5;"/><text fill="#000000" font-family="sans-serif" font-size="14" lengthAdjust="spacing" textLength="19.4619" x="912.136" y="219.1432">4.0</text><text fill="#000000" font-family="sans-serif" font-size="14" lengthAdjust="spacing" textLength="48.248" x="912.136" y="236.7526">Qu&#7843;n l&#253;</text><text fill="#000000" font-family="sans-serif" font-size="14" lengthAdjust="spacing" textLength="37.3379" x="912.136" y="254.362">Stylist</text></g><!--entity salon_mgmt--><g id="elem_salon_mgmt"><ellipse cx="223.26" cy="187.61" fill="#F1F1F1" rx="8" ry="8" style="stroke:#181818;stroke-width:0.5;"/><text fill="#000000" font-family="sans-serif" font-size="14" lengthAdjust="spacing" textLength="19.4619" x="174.2258" y="219.1432">5.0</text><text fill="#000000" font-family="sans-serif" font-size="14" lengthAdjust="spacing" textLength="48.248" x="174.2258" y="236.7526">Qu&#7843;n l&#253;</text><text fill="#000000" font-family="sans-serif" font-size="14" lengthAdjust="spacing" textLength="98.0684" x="174.2258" y="254.362">Th&#244;ng tin Salon</text></g><!--entity users--><g id="elem_users"><path d="M986.08,340.61 C986.08,330.61 1025.2524,330.61 1025.2524,330.61 C1025.2524,330.61 1064.4247,330.61 1064.4247,340.61 L1064.4247,367.2194 C1064.4247,377.2194 1025.2524,377.2194 1025.2524,377.2194 C1025.2524,377.2194 986.08,377.2194 986.08,367.2194 L986.08,340.61 " fill="#F1F1F1" style="stroke:#181818;stroke-width:0.5;"/><path d="M986.08,340.61 C986.08,350.61 1025.2524,350.61 1025.2524,350.61 C1025.2524,350.61 1064.4247,350.61 1064.4247,340.61 " fill="none" style="stroke:#181818;stroke-width:0.5;"/><text fill="#000000" font-family="sans-serif" font-size="14" lengthAdjust="spacing" textLength="58.3447" x="996.08" y="369.1432">D1 Users</text></g><!--entity appointments--><g id="elem_appointments"><path d="M1434.56,340.61 C1434.56,330.61 1498.2563,330.61 1498.2563,330.61 C1498.2563,330.61 1561.9526,330.61 1561.9526,340.61 L1561.9526,367.2194 C1561.9526,377.2194 1498.2563,377.2194 1498.2563,377.2194 C1498.2563,377.2194 1434.56,377.2194 1434.56,367.2194 L1434.56,340.61 " fill="#F1F1F1" style="stroke:#181818;stroke-width:0.5;"/><path d="M1434.56,340.61 C1434.56,350.61 1498.2563,350.61 1498.2563,350.61 C1498.2563,350.61 1561.9526,350.61 1561.9526,340.61 " fill="none" style="stroke:#181818;stroke-width:0.5;"/><text fill="#000000" font-family="sans-serif" font-size="14" lengthAdjust="spacing" textLength="107.3926" x="1444.56" y="369.1432">D2 Appointments</text></g><!--entity services--><g id="elem_services"><path d="M515.52,340.61 C515.52,330.61 563.2544,330.61 563.2544,330.61 C563.2544,330.61 610.9888,330.61 610.9888,340.61 L610.9888,367.2194 C610.9888,377.2194 563.2544,377.2194 563.2544,377.2194 C563.2544,377.2194 515.52,377.2194 515.52,367.2194 L515.52,340.61 " fill="#F1F1F1" style="stroke:#181818;stroke-width:0.5;"/><path d="M515.52,340.61 C515.52,350.61 563.2544,350.61 563.2544,350.61 C563.2544,350.61 610.9888,350.61 610.9888,340.61 " fill="none" style="stroke:#181818;stroke-width:0.5;"/><text fill="#000000" font-family="sans-serif" font-size="14" lengthAdjust="spacing" textLength="75.4688" x="525.52" y="369.1432">D3 Services</text></g><!--entity salon--><g id="elem_salon"><path d="M184.46,340.61 C184.46,330.61 223.2564,330.61 223.2564,330.61 C223.2564,330.61 262.0528,330.61 262.0528,340.61 L262.0528,367.2194 C262.0528,377.2194 223.2564,377.2194 223.2564,377.2194 C223.2564,377.2194 184.46,377.2194 184.46,367.2194 L184.46,340.61 " fill="#F1F1F1" style="stroke:#181818;stroke-width:0.5;"/><path d="M184.46,340.61 C184.46,350.61 223.2564,350.61 223.2564,350.61 C223.2564,350.61 262.0528,350.61 262.0528,340.61 " fill="none" style="stroke:#181818;stroke-width:0.5;"/><text fill="#000000" font-family="sans-serif" font-size="14" lengthAdjust="spacing" textLength="57.5928" x="194.46" y="369.1432">D4 Salon</text></g><!--link guest to acc_mgmt--><g id="link_guest_acc_mgmt"><path d="M421.24,26.14 C491.31,25.35 674.65,28.28 818.26,74.61 C833.79,79.62 835.01,86.79 850.26,92.61 C908.08,114.69 927.91,101.95 986.26,122.61 C1033.1,139.2 1079.7204,165.8508 1100.1404,178.0608 " fill="none" id="guest-to-acc_mgmt" style="stroke:#181818;stroke-width:1;"/><polygon fill="#181818" points="1105.29,181.14,1099.6184,173.0881,1100.9986,178.574,1095.5128,179.9543,1105.29,181.14" style="stroke:#181818;stroke-width:1;"/><text fill="#000000" font-family="sans-serif" font-size="13" lengthAdjust="spacing" textLength="114.9116" x="851.26" y="89.1051">&#272;&#259;ng k&#253;/&#272;&#259;ng nh&#7853;p</text></g><!--link guest to svc_mgmt--><g id="link_guest_svc_mgmt"><path d="M363.17,27.38 C302.91,29.62 173.26,40.46 213.26,92.61 C224.34,107.06 495.7467,170.8776 548.7167,183.2276 " fill="none" id="guest-to-svc_mgmt" style="stroke:#181818;stroke-width:1;"/><polygon fill="#181818" points="554.56,184.59,546.7033,178.6509,549.6906,183.4547,544.8868,186.442,554.56,184.59" style="stroke:#181818;stroke-width:1;"/><text fill="#000000" font-family="sans-serif" font-size="13" lengthAdjust="spacing" textLength="128.5845" x="214.26" y="89.1051">Xem/T&#236;m ki&#7871;m d&#7883;ch v&#7909;</text></g><!--link guest to stylist_mgmt--><g id="link_guest_stylist_mgmt"><path d="M421.39,36.15 C449.31,45.3 492.52,59.97 529.26,74.61 C547.37,81.83 550.86,86.17 569.26,92.61 C708.62,141.41 879.8985,175.7743 921.3985,183.7743 " fill="none" id="guest-to-stylist_mgmt" style="stroke:#181818;stroke-width:1;"/><polygon fill="#181818" points="927.29,184.91,919.2098,179.2787,922.3804,183.9636,917.6956,187.1341,927.29,184.91" style="stroke:#181818;stroke-width:1;"/><text fill="#000000" font-family="sans-serif" font-size="13" lengthAdjust="spacing" textLength="116.3271" x="570.26" y="89.1051">Xem th&#244;ng tin stylist</text></g><!--link guest to salon_mgmt--><g id="link_guest_salon_mgmt"><path d="M363.18,26.33 C289.2,25.81 96.86,28.96 57.26,74.61 C6,133.7 167.2153,174.1276 208.4353,183.3676 " fill="none" id="guest-to-salon_mgmt" style="stroke:#181818;stroke-width:1;"/><polygon fill="#181818" points="214.29,184.68,206.3829,178.8082,209.4111,183.5863,204.633,186.6145,214.29,184.68" style="stroke:#181818;stroke-width:1;"/><text fill="#000000" font-family="sans-serif" font-size="13" lengthAdjust="spacing" textLength="114.9053" x="58.26" y="89.1051">Xem th&#244;ng tin salon</text></g><!--link customer to apt_mgmt--><g id="link_customer_apt_mgmt"><path d="M1423.19,44.93 C1436.14,52.56 1449.68,62.5 1459.26,74.61 C1485.31,107.55 1493.7908,153.1662 1496.4908,172.7562 " fill="none" id="customer-to-apt_mgmt" style="stroke:#181818;stroke-width:1;"/><polygon fill="#181818" points="1497.31,178.7,1500.0437,169.2381,1496.6273,173.7468,1492.1186,170.3304,1497.31,178.7" style="stroke:#181818;stroke-width:1;"/><text fill="#000000" font-family="sans-serif" font-size="13" lengthAdjust="spacing" textLength="125.7217" x="1470.92" y="89.1051">&#272;&#7863;t/H&#7911;y/Xem l&#7883;ch h&#7865;n</text></g><!--link customer to acc_mgmt--><g id="link_customer_acc_mgmt"><path d="M1343.52,39.82 C1319.44,48.26 1288.78,60.32 1263.26,74.61 C1205.66,106.86 1149.7161,154.8344 1127.5461,174.6244 " fill="none" id="customer-to-acc_mgmt" style="stroke:#181818;stroke-width:1;"/><polygon fill="#181818" points="1123.07,178.62,1132.4479,175.6107,1126.8001,175.2904,1127.1204,169.6426,1123.07,178.62" style="stroke:#181818;stroke-width:1;"/><text fill="#000000" font-family="sans-serif" font-size="13" lengthAdjust="spacing" textLength="186.4497" x="1264.26" y="89.1051">C&#7853;p nh&#7853;t th&#244;ng tin/&#272;&#7893;i m&#7853;t kh&#7849;u</text></g><!--link stylist to apt_mgmt--><g id="link_stylist_apt_mgmt"><path d="M1649.73,44.9 C1637.91,58.4 1621.03,77.12 1605.26,92.61 C1570.5,126.74 1530.5072,160.1926 1511.7872,175.5626 " fill="none" id="stylist-to-apt_mgmt" style="stroke:#181818;stroke-width:1;"/><polygon fill="#181818" points="1507.15,179.37,1516.6441,176.7504,1511.0144,176.1972,1511.5676,170.5674,1507.15,179.37" style="stroke:#181818;stroke-width:1;"/><text fill="#000000" font-family="sans-serif" font-size="13" lengthAdjust="spacing" textLength="189.3379" x="1623.34" y="89.1051">Xem/C&#7853;p nh&#7853;t tr&#7841;ng th&#225;i l&#7883;ch h&#7865;n</text></g><!--link manager to stylist_mgmt--><g id="link_manager_stylist_mgmt"><path d="M907.13,33.37 C930.8,39.64 959.52,51.7 974.26,74.61 C996.81,109.66 963.5932,154.9845 947.2632,174.1345 " fill="none" id="manager-to-stylist_mgmt" style="stroke:#181818;stroke-width:1;"/><polygon fill="#181818" points="943.37,178.7,952.2534,174.4473,946.6143,174.8955,946.1661,169.2564,943.37,178.7" style="stroke:#181818;stroke-width:1;"/><text fill="#000000" font-family="sans-serif" font-size="13" lengthAdjust="spacing" textLength="80.9136" x="981.68" y="89.1051">Qu&#7843;n l&#253; stylist</text></g><!--link manager to svc_mgmt--><g id="link_manager_svc_mgmt"><path d="M831.16,35.97 C800.97,44.01 758.21,57.14 723.26,74.61 C660.78,105.84 599.8243,155.4472 576.6043,175.1572 " fill="none" id="manager-to-svc_mgmt" style="stroke:#181818;stroke-width:1;"/><polygon fill="#181818" points="572.03,179.04,581.4799,176.2653,575.8419,175.8043,576.3029,170.1663,572.03,179.04" style="stroke:#181818;stroke-width:1;"/><text fill="#000000" font-family="sans-serif" font-size="13" lengthAdjust="spacing" textLength="89.6035" x="724.26" y="89.1051">Qu&#7843;n l&#253; d&#7883;ch v&#7909;</text></g><!--link manager to salon_mgmt--><g id="link_manager_salon_mgmt"><path d="M831.37,27.96 C731.33,31.43 462.05,43.45 379.26,74.61 C362.33,80.98 266.78,153.3904 236.61,176.4104 " fill="none" id="manager-to-salon_mgmt" style="stroke:#181818;stroke-width:1;"/><polygon fill="#181818" points="231.84,180.05,241.4215,177.7706,235.815,177.017,236.5687,171.4106,231.84,180.05" style="stroke:#181818;stroke-width:1;"/><text fill="#000000" font-family="sans-serif" font-size="13" lengthAdjust="spacing" textLength="140.937" x="380.26" y="89.1051">C&#7853;p nh&#7853;t th&#244;ng tin salon</text></g><!--link manager to apt_mgmt--><g id="link_manager_apt_mgmt"><path d="M907.16,35.34 C947.65,44.56 1013.66,59.93 1070.26,74.61 C1098.86,82.03 1105.73,84.92 1134.26,92.61 C1275.73,130.77 1443.1893,172.8341 1483.6893,182.9641 " fill="none" id="manager-to-apt_mgmt" style="stroke:#181818;stroke-width:1;"/><polygon fill="#181818" points="1489.51,184.42,1481.7496,178.3557,1484.6594,183.2068,1479.8084,186.1166,1489.51,184.42" style="stroke:#181818;stroke-width:1;"/><text fill="#000000" font-family="sans-serif" font-size="13" lengthAdjust="spacing" textLength="93.2217" x="1135.26" y="89.1051">Qu&#7843;n l&#253; l&#7883;ch h&#7865;n</text></g><!--link acc_mgmt to users--><g id="link_acc_mgmt_users"><path d="M1111.5234,202.3154 C1107.5934,221.2954 1097.07,264.96 1075.26,300.61 C1068.7,311.33 1063.8826,317.4074 1055.2726,326.0174 " fill="none" id="acc_mgmt-users" style="stroke:#181818;stroke-width:1;"/><polygon fill="#181818" points="1112.74,196.44,1106.9983,204.442,1111.7262,201.3361,1114.8321,206.0641,1112.74,196.44" style="stroke:#181818;stroke-width:1;"/><polygon fill="#181818" points="1051.03,330.26,1060.2224,326.7245,1054.5655,326.7245,1054.5655,321.0676,1051.03,330.26" style="stroke:#181818;stroke-width:1;"/><text fill="#000000" font-family="sans-serif" font-size="13" lengthAdjust="spacing" textLength="129.3462" x="1085.48" y="297.1051">&#272;&#7885;c/Ghi th&#244;ng tin user</text></g><!--link apt_mgmt to appointments--><g id="link_apt_mgmt_appointments"><path d="M1498.26,202.54 C1498.26,226.51 1498.26,286.9 1498.26,324.18 " fill="none" id="apt_mgmt-appointments" style="stroke:#181818;stroke-width:1;"/><polygon fill="#181818" points="1498.26,196.54,1494.26,205.54,1498.26,201.54,1502.26,205.54,1498.26,196.54" style="stroke:#181818;stroke-width:1;"/><polygon fill="#181818" points="1498.26,330.18,1502.26,321.18,1498.26,325.18,1494.26,321.18,1498.26,330.18" style="stroke:#181818;stroke-width:1;"/><text fill="#000000" font-family="sans-serif" font-size="13" lengthAdjust="spacing" textLength="95.3799" x="1499.26" y="297.1051">&#272;&#7885;c/Ghi l&#7883;ch h&#7865;n</text></g><!--link svc_mgmt to services--><g id="link_svc_mgmt_services"><path d="M563.26,202.54 C563.26,226.51 563.26,286.9 563.26,324.18 " fill="none" id="svc_mgmt-services" style="stroke:#181818;stroke-width:1;"/><polygon fill="#181818" points="563.26,196.54,559.26,205.54,563.26,201.54,567.26,205.54,563.26,196.54" style="stroke:#181818;stroke-width:1;"/><polygon fill="#181818" points="563.26,330.18,567.26,321.18,563.26,325.18,559.26,321.18,563.26,330.18" style="stroke:#181818;stroke-width:1;"/><text fill="#000000" font-family="sans-serif" font-size="13" lengthAdjust="spacing" textLength="91.7617" x="564.26" y="297.1051">&#272;&#7885;c/Ghi d&#7883;ch v&#7909;</text></g><!--link salon_mgmt to salon--><g id="link_salon_mgmt_salon"><path d="M223.26,202.54 C223.26,226.51 223.26,286.9 223.26,324.18 " fill="none" id="salon_mgmt-salon" style="stroke:#181818;stroke-width:1;"/><polygon fill="#181818" points="223.26,196.54,219.26,205.54,223.26,201.54,227.26,205.54,223.26,196.54" style="stroke:#181818;stroke-width:1;"/><polygon fill="#181818" points="223.26,330.18,227.26,321.18,223.26,325.18,219.26,321.18,223.26,330.18" style="stroke:#181818;stroke-width:1;"/><text fill="#000000" font-family="sans-serif" font-size="13" lengthAdjust="spacing" textLength="135.1353" x="224.26" y="297.1051">&#272;&#7885;c/Ghi th&#244;ng tin salon</text></g><!--link stylist_mgmt to users--><g id="link_stylist_mgmt_users"><path d="M930.8108,201.9563 C923.2708,221.1963 908.96,266.44 929.26,300.61 C941.57,321.34 959.6789,332.2449 980.4589,340.1149 " fill="none" id="stylist_mgmt-users" style="stroke:#181818;stroke-width:1;"/><polygon fill="#181818" points="933,196.37,925.9919,203.29,931.1756,201.0253,933.4404,206.209,933,196.37" style="stroke:#181818;stroke-width:1;"/><polygon fill="#181818" points="986.07,342.24,979.0701,335.3117,981.3941,340.4691,976.2367,342.7931,986.07,342.24" style="stroke:#181818;stroke-width:1;"/><text fill="#000000" font-family="sans-serif" font-size="13" lengthAdjust="spacing" textLength="136.5571" x="930.26" y="297.1051">&#272;&#7885;c/Ghi th&#244;ng tin stylist</text></g><!--SRC=[ZLHDYzH04BtdLzJEnTCQzyEB3C8m4rPXFtGIOOM5eStqJff9EY7TCxfdZxBWnRkBY0Xw4yGP5W_PFv9_OdybwMHcmLkd-xsgUg-giZF5buHYU34-6tg-3o79mnWxE-RQEm-yyUdWUEAT1i-3rv3Za2Cwin2ZGJ2O-C7Ps8CfukWDOjXn7e3tZkESeXWmvOGJp9nkgDxH0ZFU0yHW9a-RWE62yJJ1kSA4vWCsSJw_Yea9nVHv4tI2A9gPM8a-opfF4A6GvMc86HD5LZRqzXu-kg0l5-Ng2uMukBsWGV6Pm3nAvOqAWi9maimItd3skvpZSlqXZ20gLtyC9-EA0z2m3hgiaMOjo_LNBMdPJNJOfMnne4DvlA4dAdxH6N0XtqTngkjZygIPmfkHwAS8b-R26AlDlT4Ul68uPugoaAVsypuCiYmbb2UY-Sm8RoxQu0FmSRuamdzTWVbeWmwxDShorFp0PPo-POwQ8DZTVLgt1Px0tSUxzqBYlBXrpP6ALlpCB7JbhK2VuyGDYXy9p4cv-fl0j6c3JR3SrIJWZPFLz5dusj4jw4f9DUXQ33Zrh2j16My4bQlVt7rMhhzTkJ9OR0rOXzNOC9IQjNHkfHUUbEjF119rFnVFtnUo63DBnbYZg5k9DAiTDozNDp9mLDoGTbrgozJ2cPXc_RRvsKnexMKBtRJBGbgT4elLmjlkt-E3QODDiuHQQRgYclM0CALK_1b9IfbJEz-NeTHwwDQjhqFtA29sQldgrDdwEdUpAMrUAt_jX29LMzCcs1DiET6ldRctBcr9gpV_eQRgs3y0]--></g></svg>