<svg xmlns="http://www.w3.org/2000/svg" xmlns:xlink="http://www.w3.org/1999/xlink" contentStyleType="text/css" height="583px" preserveAspectRatio="none" style="width:151px;height:583px;background:#FFFFFF;" version="1.1" viewBox="0 0 151 583" width="151px" zoomAndPan="magnify"><defs/><g><!--cluster Client--><g id="cluster_Client"><path d="M15.5,6 L55.3896,6 A3.75,3.75 0 0 1 57.8896,8.5 L64.8896,29.6094 L134.5,29.6094 A2.5,2.5 0 0 1 137,32.1094 L137,103.11 A2.5,2.5 0 0 1 134.5,105.61 L15.5,105.61 A2.5,2.5 0 0 1 13,103.11 L13,8.5 A2.5,2.5 0 0 1 15.5,6 " fill="none" style="stroke:#000000;stroke-width:1.5;"/><line style="stroke:#000000;stroke-width:1.5;" x1="13" x2="64.8896" y1="29.6094" y2="29.6094"/><text fill="#000000" font-family="sans-serif" font-size="14" font-weight="bold" lengthAdjust="spacing" textLength="38.8896" x="17" y="22.5332">Client</text></g><!--cluster Server--><g id="cluster_Server"><path d="M8.5,155.61 L53.0928,155.61 A3.75,3.75 0 0 1 55.5928,158.11 L62.5928,179.2194 L141.5,179.2194 A2.5,2.5 0 0 1 144,181.7194 L144,469.94 A2.5,2.5 0 0 1 141.5,472.44 L8.5,472.44 A2.5,2.5 0 0 1 6,469.94 L6,158.11 A2.5,2.5 0 0 1 8.5,155.61 " fill="none" style="stroke:#000000;stroke-width:1.5;"/><line style="stroke:#000000;stroke-width:1.5;" x1="6" x2="62.5928" y1="179.2194" y2="179.2194"/><text fill="#000000" font-family="sans-serif" font-size="14" font-weight="bold" lengthAdjust="spacing" textLength="43.5928" x="10" y="172.1432">Server</text></g><!--entity ReactJS--><g id="elem_ReactJS"><rect fill="#F1F1F1" height="47.6094" rx="2.5" ry="2.5" style="stroke:#181818;stroke-width:0.5;" width="92.9102" x="28.54" y="42"/><rect fill="#F1F1F1" height="10" style="stroke:#181818;stroke-width:0.5;" width="15" x="101.4502" y="47"/><rect fill="#F1F1F1" height="2" style="stroke:#181818;stroke-width:0.5;" width="4" x="99.4502" y="49"/><rect fill="#F1F1F1" height="2" style="stroke:#181818;stroke-width:0.5;" width="4" x="99.4502" y="53"/><text fill="#000000" font-family="sans-serif" font-size="14" lengthAdjust="spacing" textLength="52.9102" x="43.54" y="76.5332">ReactJS</text></g><!--entity Controller--><g id="elem_Controller"><rect fill="#F1F1F1" height="47.6094" rx="2.5" ry="2.5" style="stroke:#181818;stroke-width:0.5;" width="100.6895" x="24.66" y="191.61"/><rect fill="#F1F1F1" height="10" style="stroke:#181818;stroke-width:0.5;" width="15" x="105.3495" y="196.61"/><rect fill="#F1F1F1" height="2" style="stroke:#181818;stroke-width:0.5;" width="4" x="103.3495" y="198.61"/><rect fill="#F1F1F1" height="2" style="stroke:#181818;stroke-width:0.5;" width="4" x="103.3495" y="202.61"/><text fill="#000000" font-family="sans-serif" font-size="14" lengthAdjust="spacing" textLength="60.6895" x="39.66" y="226.1432">Controller</text></g><!--entity Service--><g id="elem_Service"><rect fill="#F1F1F1" height="47.6094" rx="2.5" ry="2.5" style="stroke:#181818;stroke-width:0.5;" width="86.6826" x="31.66" y="300.22"/><rect fill="#F1F1F1" height="10" style="stroke:#181818;stroke-width:0.5;" width="15" x="98.3426" y="305.22"/><rect fill="#F1F1F1" height="2" style="stroke:#181818;stroke-width:0.5;" width="4" x="96.3426" y="307.22"/><rect fill="#F1F1F1" height="2" style="stroke:#181818;stroke-width:0.5;" width="4" x="96.3426" y="311.22"/><text fill="#000000" font-family="sans-serif" font-size="14" lengthAdjust="spacing" textLength="46.6826" x="46.66" y="334.7532">Service</text></g><!--entity Repository--><g id="elem_Repository"><rect fill="#F1F1F1" height="47.6094" rx="2.5" ry="2.5" style="stroke:#181818;stroke-width:0.5;" width="106.917" x="21.54" y="408.83"/><rect fill="#F1F1F1" height="10" style="stroke:#181818;stroke-width:0.5;" width="15" x="108.457" y="413.83"/><rect fill="#F1F1F1" height="2" style="stroke:#181818;stroke-width:0.5;" width="4" x="106.457" y="415.83"/><rect fill="#F1F1F1" height="2" style="stroke:#181818;stroke-width:0.5;" width="4" x="106.457" y="419.83"/><text fill="#000000" font-family="sans-serif" font-size="14" lengthAdjust="spacing" textLength="66.917" x="36.54" y="443.3632">Repository</text></g><!--entity Database--><g id="elem_Database"><path d="M35.03,529.44 C35.03,519.44 74.9953,519.44 74.9953,519.44 C74.9953,519.44 114.9607,519.44 114.9607,529.44 L114.9607,556.0494 C114.9607,566.0494 74.9953,566.0494 74.9953,566.0494 C74.9953,566.0494 35.03,566.0494 35.03,556.0494 L35.03,529.44 " fill="#F1F1F1" style="stroke:#181818;stroke-width:0.5;"/><path d="M35.03,529.44 C35.03,539.44 74.9953,539.44 74.9953,539.44 C74.9953,539.44 114.9607,539.44 114.9607,529.44 " fill="none" style="stroke:#181818;stroke-width:0.5;"/><text fill="#000000" font-family="sans-serif" font-size="14" lengthAdjust="spacing" textLength="59.9307" x="45.03" y="557.9732">Database</text></g><!--link ReactJS to Controller--><g id="link_ReactJS_Controller"><path d="M75,89.87 C75,117.6 75,157.86 75,185.52 " fill="none" id="ReactJS-to-Controller" style="stroke:#181818;stroke-width:1;stroke-dasharray:7.0,7.0;"/><polygon fill="#181818" points="75,191.52,79,182.52,75,186.52,71,182.52,75,191.52" style="stroke:#181818;stroke-width:1;"/><text fill="#000000" font-family="sans-serif" font-size="13" lengthAdjust="spacing" textLength="59.2363" x="76" y="136.1051">REST API</text></g><!--link Controller to Service--><g id="link_Controller_Service"><path d="M75,239.55 C75,257.43 75,276.07 75,293.94 " fill="none" id="Controller-to-Service" style="stroke:#181818;stroke-width:1;"/><polygon fill="#181818" points="75,299.94,79,290.94,75,294.94,71,290.94,75,299.94" style="stroke:#181818;stroke-width:1;"/></g><!--link Service to Repository--><g id="link_Service_Repository"><path d="M75,348.16 C75,366.04 75,384.68 75,402.55 " fill="none" id="Service-to-Repository" style="stroke:#181818;stroke-width:1;"/><polygon fill="#181818" points="75,408.55,79,399.55,75,403.55,71,399.55,75,408.55" style="stroke:#181818;stroke-width:1;"/></g><!--link Repository to Database--><g id="link_Repository_Database"><path d="M75,456.83 C75,475.19 75,494.71 75,512.96 " fill="none" id="Repository-to-Database" style="stroke:#181818;stroke-width:1;"/><polygon fill="#181818" points="75,518.96,79,509.96,75,513.96,71,509.96,75,518.96" style="stroke:#181818;stroke-width:1;"/></g><!--SRC=[AqXCpavCJrLGSix9JCqhKLAevb80WkYWrCJa4g_WMAvQBgu2c9hWrAAor2Au6kVyl9AY_9oSrA9OY018FZCvDHPcH45-SMP9Vb4bs9IKn9B4fCHYe34kK1R88A04t2u5FJqx55CLh1I2N8D351m3FBbGn7LrxP1iWxCWuiZs8dCWiZ3BOxa0]--></g></svg>