<svg xmlns="http://www.w3.org/2000/svg" xmlns:xlink="http://www.w3.org/1999/xlink" contentStyleType="text/css" height="504px" preserveAspectRatio="none" style="width:788px;height:504px;background:#FFFFFF;" version="1.1" viewBox="0 0 788 504" width="788px" zoomAndPan="magnify"><defs/><g><!--class User--><g id="elem_User"><rect codeLine="965" fill="#F1F1F1" height="188.875" id="User" rx="2.5" ry="2.5" style="stroke:#181818;stroke-width:0.5;" width="156.7373" x="193.77" y="15.81"/><ellipse cx="253.1094" cy="31.81" fill="#ADD1B2" rx="11" ry="11" style="stroke:#181818;stroke-width:1;"/><path d="M251.9687,32.6069 L251.9687,35.1069 L256.2969,35.1069 L256.2969,34.185 Q256.2969,33.5756 256.5312,33.31 Q256.7812,33.0444 257.1562,33.0444 Q257.5312,33.0444 257.7656,33.31 Q258,33.5756 258,34.185 L258,36.81 L250,36.81 Q249.375,36.81 249.1094,36.5756 Q248.8594,36.3413 248.8594,35.9506 Q248.8594,35.5756 249.125,35.3413 Q249.3906,35.1069 250,35.1069 L250.2656,35.1069 L250.2656,28.4506 L250,28.4506 Q249.375,28.4506 249.1094,28.2163 Q248.8594,27.9819 248.8594,27.5913 Q248.8594,27.2163 249.1094,26.9819 Q249.375,26.7475 250,26.7475 L257.625,26.7475 L257.625,29.3413 Q257.625,29.9506 257.3906,30.2163 Q257.1719,30.4663 256.7812,30.4663 Q256.4062,30.4663 256.1719,30.2163 Q255.9375,29.9506 255.9375,29.3413 L255.9375,28.4506 L251.9687,28.4506 L251.9687,30.9038 L253.4531,30.9038 Q253.4531,30.2475 253.5781,30.06 Q253.8437,29.6538 254.3125,29.6538 Q254.6875,29.6538 254.9219,29.9194 Q255.1562,30.1694 255.1562,30.7788 L255.1562,32.7475 Q255.1562,33.2944 255.0312,33.4819 Q254.7656,33.8725 254.3125,33.8725 Q253.8437,33.8725 253.5781,33.4663 Q253.4531,33.2788 253.4531,32.6069 L251.9687,32.6069 Z " fill="#000000"/><text fill="#000000" font-family="sans-serif" font-size="14" lengthAdjust="spacing" textLength="29.5586" x="273.6094" y="37.5385">User</text><line style="stroke:#181818;stroke-width:0.5;" x1="194.77" x2="349.5073" y1="47.81" y2="47.81"/><ellipse cx="204.77" cy="62.1147" fill="#000000" rx="3" ry="3" style="stroke:#000000;stroke-width:1;"/><text fill="#000000" font-family="sans-serif" font-size="14" lengthAdjust="spacing" textLength="91.0479" x="213.77" y="66.3432">id: string &#171;PK&#187;</text><line style="stroke:#181818;stroke-width:1;" x1="194.77" x2="349.5073" y1="73.4194" y2="73.4194"/><ellipse cx="204.77" cy="87.7241" fill="#000000" rx="3" ry="3" style="stroke:#000000;stroke-width:1;"/><text fill="#000000" font-family="sans-serif" font-size="14" lengthAdjust="spacing" textLength="126.8066" x="213.77" y="91.9526">firstName: string(50)</text><ellipse cx="204.77" cy="105.3334" fill="#000000" rx="3" ry="3" style="stroke:#000000;stroke-width:1;"/><text fill="#000000" font-family="sans-serif" font-size="14" lengthAdjust="spacing" textLength="126.041" x="213.77" y="109.562">lastName: string(50)</text><ellipse cx="204.77" cy="122.9428" fill="#000000" rx="3" ry="3" style="stroke:#000000;stroke-width:1;"/><text fill="#000000" font-family="sans-serif" font-size="14" lengthAdjust="spacing" textLength="108.1514" x="213.77" y="127.1713">email: string(256)</text><ellipse cx="204.77" cy="140.5522" fill="#000000" rx="3" ry="3" style="stroke:#000000;stroke-width:1;"/><text fill="#000000" font-family="sans-serif" font-size="14" lengthAdjust="spacing" textLength="130.7373" x="213.77" y="144.7807">phoneNumber: string</text><text fill="#000000" font-family="sans-serif" font-size="14" lengthAdjust="spacing" textLength="93.3789" x="213.77" y="162.3901">bio: string(128)</text><text fill="#000000" font-family="sans-serif" font-size="14" lengthAdjust="spacing" textLength="130.71" x="213.77" y="179.9995">imageUrl: string(256)</text><text fill="#000000" font-family="sans-serif" font-size="14" lengthAdjust="spacing" textLength="115.1582" x="213.77" y="197.6088">specialties: string[]</text></g><!--class Role--><g id="elem_Role"><rect codeLine="977" fill="#F1F1F1" height="83.2188" id="Role" rx="2.5" ry="2.5" style="stroke:#181818;stroke-width:0.5;" width="135.7168" x="11.28" y="68.63"/><ellipse cx="60.4919" cy="84.63" fill="#ADD1B2" rx="11" ry="11" style="stroke:#181818;stroke-width:1;"/><path d="M59.3513,85.4269 L59.3513,87.9269 L63.6794,87.9269 L63.6794,87.005 Q63.6794,86.3956 63.9138,86.13 Q64.1638,85.8644 64.5388,85.8644 Q64.9138,85.8644 65.1482,86.13 Q65.3825,86.3956 65.3825,87.005 L65.3825,89.63 L57.3825,89.63 Q56.7575,89.63 56.4919,89.3956 Q56.2419,89.1613 56.2419,88.7706 Q56.2419,88.3956 56.5075,88.1613 Q56.7732,87.9269 57.3825,87.9269 L57.6482,87.9269 L57.6482,81.2706 L57.3825,81.2706 Q56.7575,81.2706 56.4919,81.0363 Q56.2419,80.8019 56.2419,80.4113 Q56.2419,80.0363 56.4919,79.8019 Q56.7575,79.5675 57.3825,79.5675 L65.0075,79.5675 L65.0075,82.1613 Q65.0075,82.7706 64.7732,83.0363 Q64.5544,83.2863 64.1638,83.2863 Q63.7888,83.2863 63.5544,83.0363 Q63.32,82.7706 63.32,82.1613 L63.32,81.2706 L59.3513,81.2706 L59.3513,83.7238 L60.8357,83.7238 Q60.8357,83.0675 60.9607,82.88 Q61.2263,82.4738 61.695,82.4738 Q62.07,82.4738 62.3044,82.7394 Q62.5388,82.9894 62.5388,83.5988 L62.5388,85.5675 Q62.5388,86.1144 62.4138,86.3019 Q62.1482,86.6925 61.695,86.6925 Q61.2263,86.6925 60.9607,86.2863 Q60.8357,86.0988 60.8357,85.4269 L59.3513,85.4269 Z " fill="#000000"/><text fill="#000000" font-family="sans-serif" font-size="14" lengthAdjust="spacing" textLength="28.793" x="80.9919" y="90.3585">Role</text><line style="stroke:#181818;stroke-width:0.5;" x1="12.28" x2="145.9968" y1="100.63" y2="100.63"/><ellipse cx="22.28" cy="114.9347" fill="#000000" rx="3" ry="3" style="stroke:#000000;stroke-width:1;"/><text fill="#000000" font-family="sans-serif" font-size="14" lengthAdjust="spacing" textLength="91.0479" x="31.28" y="119.1632">id: string &#171;PK&#187;</text><line style="stroke:#181818;stroke-width:1;" x1="12.28" x2="145.9968" y1="126.2394" y2="126.2394"/><ellipse cx="22.28" cy="140.5441" fill="#000000" rx="3" ry="3" style="stroke:#000000;stroke-width:1;"/><text fill="#000000" font-family="sans-serif" font-size="14" lengthAdjust="spacing" textLength="109.7168" x="31.28" y="144.7726">name: string(256)</text></g><!--class UserRole--><g id="elem_UserRole"><rect codeLine="983" fill="#F1F1F1" height="83.2188" id="UserRole" rx="2.5" ry="2.5" style="stroke:#181818;stroke-width:0.5;" width="144.2754" x="7" y="353.12"/><ellipse cx="46.2657" cy="369.12" fill="#ADD1B2" rx="11" ry="11" style="stroke:#181818;stroke-width:1;"/><path d="M45.1251,369.9169 L45.1251,372.4169 L49.4532,372.4169 L49.4532,371.495 Q49.4532,370.8856 49.6876,370.62 Q49.9376,370.3544 50.3126,370.3544 Q50.6876,370.3544 50.922,370.62 Q51.1563,370.8856 51.1563,371.495 L51.1563,374.12 L43.1563,374.12 Q42.5313,374.12 42.2657,373.8856 Q42.0157,373.6513 42.0157,373.2606 Q42.0157,372.8856 42.2813,372.6513 Q42.547,372.4169 43.1563,372.4169 L43.422,372.4169 L43.422,365.7606 L43.1563,365.7606 Q42.5313,365.7606 42.2657,365.5263 Q42.0157,365.2919 42.0157,364.9013 Q42.0157,364.5263 42.2657,364.2919 Q42.5313,364.0575 43.1563,364.0575 L50.7813,364.0575 L50.7813,366.6513 Q50.7813,367.2606 50.547,367.5263 Q50.3282,367.7763 49.9376,367.7763 Q49.5626,367.7763 49.3282,367.5263 Q49.0938,367.2606 49.0938,366.6513 L49.0938,365.7606 L45.1251,365.7606 L45.1251,368.2138 L46.6095,368.2138 Q46.6095,367.5575 46.7345,367.37 Q47.0001,366.9638 47.4688,366.9638 Q47.8438,366.9638 48.0782,367.2294 Q48.3126,367.4794 48.3126,368.0888 L48.3126,370.0575 Q48.3126,370.6044 48.1876,370.7919 Q47.922,371.1825 47.4688,371.1825 Q47.0001,371.1825 46.7345,370.7763 Q46.6095,370.5888 46.6095,369.9169 L45.1251,369.9169 Z " fill="#000000"/><text fill="#000000" font-family="sans-serif" font-size="14" lengthAdjust="spacing" textLength="58.3516" x="65.6581" y="374.8485">UserRole</text><line style="stroke:#181818;stroke-width:0.5;" x1="8" x2="150.2754" y1="385.12" y2="385.12"/><ellipse cx="18" cy="399.4247" fill="#000000" rx="3" ry="3" style="stroke:#000000;stroke-width:1;"/><text fill="#000000" font-family="sans-serif" font-size="14" lengthAdjust="spacing" textLength="118.2754" x="27" y="403.6532">userId: string &#171;FK&#187;</text><ellipse cx="18" cy="417.0341" fill="#000000" rx="3" ry="3" style="stroke:#000000;stroke-width:1;"/><text fill="#000000" font-family="sans-serif" font-size="14" lengthAdjust="spacing" textLength="114.3857" x="27" y="421.2626">roleId: string &#171;FK&#187;</text><line style="stroke:#181818;stroke-width:0.5;" x1="8" x2="150.2754" y1="428.3388" y2="428.3388"/></g><!--class Service--><g id="elem_Service"><rect codeLine="988" fill="#F1F1F1" height="171.2656" id="Service" rx="2.5" ry="2.5" style="stroke:#181818;stroke-width:0.5;" width="168.3994" x="396.94" y="24.61"/><ellipse cx="453.5484" cy="40.61" fill="#ADD1B2" rx="11" ry="11" style="stroke:#181818;stroke-width:1;"/><path d="M452.4078,41.4069 L452.4078,43.9069 L456.7359,43.9069 L456.7359,42.985 Q456.7359,42.3756 456.9703,42.11 Q457.2203,41.8444 457.5953,41.8444 Q457.9703,41.8444 458.2046,42.11 Q458.439,42.3756 458.439,42.985 L458.439,45.61 L450.439,45.61 Q449.814,45.61 449.5484,45.3756 Q449.2984,45.1413 449.2984,44.7506 Q449.2984,44.3756 449.564,44.1413 Q449.8296,43.9069 450.439,43.9069 L450.7046,43.9069 L450.7046,37.2506 L450.439,37.2506 Q449.814,37.2506 449.5484,37.0163 Q449.2984,36.7819 449.2984,36.3913 Q449.2984,36.0163 449.5484,35.7819 Q449.814,35.5475 450.439,35.5475 L458.064,35.5475 L458.064,38.1413 Q458.064,38.7506 457.8296,39.0163 Q457.6109,39.2663 457.2203,39.2663 Q456.8453,39.2663 456.6109,39.0163 Q456.3765,38.7506 456.3765,38.1413 L456.3765,37.2506 L452.4078,37.2506 L452.4078,39.7038 L453.8921,39.7038 Q453.8921,39.0475 454.0171,38.86 Q454.2828,38.4538 454.7515,38.4538 Q455.1265,38.4538 455.3609,38.7194 Q455.5953,38.9694 455.5953,39.5788 L455.5953,41.5475 Q455.5953,42.0944 455.4703,42.2819 Q455.2046,42.6725 454.7515,42.6725 Q454.2828,42.6725 454.0171,42.2663 Q453.8921,42.0788 453.8921,41.4069 L452.4078,41.4069 Z " fill="#000000"/><text fill="#000000" font-family="sans-serif" font-size="14" lengthAdjust="spacing" textLength="46.6826" x="474.0484" y="46.3385">Service</text><line style="stroke:#181818;stroke-width:0.5;" x1="397.94" x2="564.3394" y1="56.61" y2="56.61"/><ellipse cx="407.94" cy="70.9147" fill="#000000" rx="3" ry="3" style="stroke:#000000;stroke-width:1;"/><text fill="#000000" font-family="sans-serif" font-size="14" lengthAdjust="spacing" textLength="83.2822" x="416.94" y="75.1432">id: guid &#171;PK&#187;</text><line style="stroke:#181818;stroke-width:1;" x1="397.94" x2="564.3394" y1="82.2194" y2="82.2194"/><ellipse cx="407.94" cy="96.5241" fill="#000000" rx="3" ry="3" style="stroke:#000000;stroke-width:1;"/><text fill="#000000" font-family="sans-serif" font-size="14" lengthAdjust="spacing" textLength="101.9307" x="416.94" y="100.7526">name: string(50)</text><ellipse cx="407.94" cy="114.1334" fill="#000000" rx="3" ry="3" style="stroke:#000000;stroke-width:1;"/><text fill="#000000" font-family="sans-serif" font-size="14" lengthAdjust="spacing" textLength="142.3994" x="416.94" y="118.362">description: string(256)</text><ellipse cx="407.94" cy="131.7428" fill="#000000" rx="3" ry="3" style="stroke:#000000;stroke-width:1;"/><text fill="#000000" font-family="sans-serif" font-size="14" lengthAdjust="spacing" textLength="122.9375" x="416.94" y="135.9713">price: decimal(10,2)</text><ellipse cx="407.94" cy="149.3522" fill="#000000" rx="3" ry="3" style="stroke:#000000;stroke-width:1;"/><text fill="#000000" font-family="sans-serif" font-size="14" lengthAdjust="spacing" textLength="122.1787" x="416.94" y="153.5807">durationMinutes: int</text><text fill="#000000" font-family="sans-serif" font-size="14" lengthAdjust="spacing" textLength="130.71" x="416.94" y="171.1901">imageUrl: string(256)</text><text fill="#000000" font-family="sans-serif" font-size="14" lengthAdjust="spacing" textLength="92.6133" x="416.94" y="188.7995">isDeleted: bool</text></g><!--class ServiceStylist--><g id="elem_ServiceStylist"><rect codeLine="999" fill="#F1F1F1" height="83.2188" id="ServiceStylist" rx="2.5" ry="2.5" style="stroke:#181818;stroke-width:0.5;" width="153.6201" x="416.33" y="353.12"/><ellipse cx="448.2498" cy="369.12" fill="#ADD1B2" rx="11" ry="11" style="stroke:#181818;stroke-width:1;"/><path d="M447.1092,369.9169 L447.1092,372.4169 L451.4373,372.4169 L451.4373,371.495 Q451.4373,370.8856 451.6717,370.62 Q451.9217,370.3544 452.2967,370.3544 Q452.6717,370.3544 452.9061,370.62 Q453.1404,370.8856 453.1404,371.495 L453.1404,374.12 L445.1404,374.12 Q444.5154,374.12 444.2498,373.8856 Q443.9998,373.6513 443.9998,373.2606 Q443.9998,372.8856 444.2654,372.6513 Q444.5311,372.4169 445.1404,372.4169 L445.4061,372.4169 L445.4061,365.7606 L445.1404,365.7606 Q444.5154,365.7606 444.2498,365.5263 Q443.9998,365.2919 443.9998,364.9013 Q443.9998,364.5263 444.2498,364.2919 Q444.5154,364.0575 445.1404,364.0575 L452.7654,364.0575 L452.7654,366.6513 Q452.7654,367.2606 452.5311,367.5263 Q452.3123,367.7763 451.9217,367.7763 Q451.5467,367.7763 451.3123,367.5263 Q451.0779,367.2606 451.0779,366.6513 L451.0779,365.7606 L447.1092,365.7606 L447.1092,368.2138 L448.5936,368.2138 Q448.5936,367.5575 448.7186,367.37 Q448.9842,366.9638 449.4529,366.9638 Q449.8279,366.9638 450.0623,367.2294 Q450.2967,367.4794 450.2967,368.0888 L450.2967,370.0575 Q450.2967,370.6044 450.1717,370.7919 Q449.9061,371.1825 449.4529,371.1825 Q448.9842,371.1825 448.7186,370.7763 Q448.5936,370.5888 448.5936,369.9169 L447.1092,369.9169 Z " fill="#000000"/><text fill="#000000" font-family="sans-serif" font-size="14" lengthAdjust="spacing" textLength="84.0205" x="466.0098" y="374.8485">ServiceStylist</text><line style="stroke:#181818;stroke-width:0.5;" x1="417.33" x2="568.9501" y1="385.12" y2="385.12"/><ellipse cx="427.33" cy="399.4247" fill="#000000" rx="3" ry="3" style="stroke:#000000;stroke-width:1;"/><text fill="#000000" font-family="sans-serif" font-size="14" lengthAdjust="spacing" textLength="127.6201" x="436.33" y="403.6532">serviceId: guid &#171;FK&#187;</text><ellipse cx="427.33" cy="417.0341" fill="#000000" rx="3" ry="3" style="stroke:#000000;stroke-width:1;"/><text fill="#000000" font-family="sans-serif" font-size="14" lengthAdjust="spacing" textLength="126.041" x="436.33" y="421.2626">stylistId: string &#171;FK&#187;</text><line style="stroke:#181818;stroke-width:0.5;" x1="417.33" x2="568.9501" y1="428.3388" y2="428.3388"/></g><!--class Appointment--><g id="elem_Appointment"><rect codeLine="1004" fill="#F1F1F1" height="206.4844" id="Appointment" rx="2.5" ry="2.5" style="stroke:#181818;stroke-width:0.5;" width="194.8408" x="186.72" y="291.49"/><ellipse cx="240.5872" cy="307.49" fill="#ADD1B2" rx="11" ry="11" style="stroke:#181818;stroke-width:1;"/><path d="M239.4466,308.2869 L239.4466,310.7869 L243.7747,310.7869 L243.7747,309.865 Q243.7747,309.2556 244.0091,308.99 Q244.2591,308.7244 244.6341,308.7244 Q245.0091,308.7244 245.2434,308.99 Q245.4778,309.2556 245.4778,309.865 L245.4778,312.49 L237.4778,312.49 Q236.8528,312.49 236.5872,312.2556 Q236.3372,312.0213 236.3372,311.6306 Q236.3372,311.2556 236.6028,311.0213 Q236.8684,310.7869 237.4778,310.7869 L237.7434,310.7869 L237.7434,304.1306 L237.4778,304.1306 Q236.8528,304.1306 236.5872,303.8963 Q236.3372,303.6619 236.3372,303.2713 Q236.3372,302.8963 236.5872,302.6619 Q236.8528,302.4275 237.4778,302.4275 L245.1028,302.4275 L245.1028,305.0213 Q245.1028,305.6306 244.8684,305.8963 Q244.6497,306.1463 244.2591,306.1463 Q243.8841,306.1463 243.6497,305.8963 Q243.4153,305.6306 243.4153,305.0213 L243.4153,304.1306 L239.4466,304.1306 L239.4466,306.5838 L240.9309,306.5838 Q240.9309,305.9275 241.0559,305.74 Q241.3216,305.3338 241.7903,305.3338 Q242.1653,305.3338 242.3997,305.5994 Q242.6341,305.8494 242.6341,306.4588 L242.6341,308.4275 Q242.6341,308.9744 242.5091,309.1619 Q242.2434,309.5525 241.7903,309.5525 Q241.3216,309.5525 241.0559,309.1463 Q240.9309,308.9588 240.9309,308.2869 L239.4466,308.2869 Z " fill="#000000"/><text fill="#000000" font-family="sans-serif" font-size="14" lengthAdjust="spacing" textLength="78.6064" x="261.0872" y="313.2185">Appointment</text><line style="stroke:#181818;stroke-width:0.5;" x1="187.72" x2="380.5608" y1="323.49" y2="323.49"/><ellipse cx="197.72" cy="337.7947" fill="#000000" rx="3" ry="3" style="stroke:#000000;stroke-width:1;"/><text fill="#000000" font-family="sans-serif" font-size="14" lengthAdjust="spacing" textLength="83.2822" x="206.72" y="342.0232">id: guid &#171;PK&#187;</text><line style="stroke:#181818;stroke-width:1;" x1="187.72" x2="380.5608" y1="349.0994" y2="349.0994"/><ellipse cx="197.72" cy="363.4041" fill="#000000" rx="3" ry="3" style="stroke:#000000;stroke-width:1;"/><text fill="#000000" font-family="sans-serif" font-size="14" lengthAdjust="spacing" textLength="148.6133" x="206.72" y="367.6326">customerId: string &#171;FK&#187;</text><ellipse cx="197.72" cy="381.0134" fill="#000000" rx="3" ry="3" style="stroke:#000000;stroke-width:1;"/><text fill="#000000" font-family="sans-serif" font-size="14" lengthAdjust="spacing" textLength="126.041" x="206.72" y="385.242">stylistId: string &#171;FK&#187;</text><ellipse cx="197.72" cy="398.6228" fill="#000000" rx="3" ry="3" style="stroke:#000000;stroke-width:1;"/><text fill="#000000" font-family="sans-serif" font-size="14" lengthAdjust="spacing" textLength="127.6201" x="206.72" y="402.8513">serviceId: guid &#171;FK&#187;</text><ellipse cx="197.72" cy="416.2322" fill="#000000" rx="3" ry="3" style="stroke:#000000;stroke-width:1;"/><text fill="#000000" font-family="sans-serif" font-size="14" lengthAdjust="spacing" textLength="119.834" x="206.72" y="420.4607">dateTime: datetime</text><ellipse cx="197.72" cy="433.8416" fill="#000000" rx="3" ry="3" style="stroke:#000000;stroke-width:1;"/><text fill="#000000" font-family="sans-serif" font-size="14" lengthAdjust="spacing" textLength="104.2617" x="206.72" y="438.0701">status: string(16)</text><ellipse cx="197.72" cy="451.4509" fill="#000000" rx="3" ry="3" style="stroke:#000000;stroke-width:1;"/><text fill="#000000" font-family="sans-serif" font-size="14" lengthAdjust="spacing" textLength="150.9512" x="206.72" y="455.6795">totalPrice: decimal(10,2)</text><text fill="#000000" font-family="sans-serif" font-size="14" lengthAdjust="spacing" textLength="168.8408" x="206.72" y="473.2888">customerNotes: string(128)</text><text fill="#000000" font-family="sans-serif" font-size="14" lengthAdjust="spacing" textLength="146.2686" x="206.72" y="490.8982">stylistNotes: string(128)</text></g><!--class Salon--><g id="elem_Salon"><rect codeLine="1017" fill="#F1F1F1" height="206.4844" id="Salon" rx="2.5" ry="2.5" style="stroke:#181818;stroke-width:0.5;" width="181.6338" x="600.32" y="7"/><ellipse cx="668.9836" cy="23" fill="#ADD1B2" rx="11" ry="11" style="stroke:#181818;stroke-width:1;"/><path d="M667.8429,23.7969 L667.8429,26.2969 L672.1711,26.2969 L672.1711,25.375 Q672.1711,24.7656 672.4054,24.5 Q672.6554,24.2344 673.0304,24.2344 Q673.4054,24.2344 673.6398,24.5 Q673.8742,24.7656 673.8742,25.375 L673.8742,28 L665.8742,28 Q665.2492,28 664.9836,27.7656 Q664.7336,27.5313 664.7336,27.1406 Q664.7336,26.7656 664.9992,26.5313 Q665.2648,26.2969 665.8742,26.2969 L666.1398,26.2969 L666.1398,19.6406 L665.8742,19.6406 Q665.2492,19.6406 664.9836,19.4063 Q664.7336,19.1719 664.7336,18.7813 Q664.7336,18.4063 664.9836,18.1719 Q665.2492,17.9375 665.8742,17.9375 L673.4992,17.9375 L673.4992,20.5313 Q673.4992,21.1406 673.2648,21.4063 Q673.0461,21.6563 672.6554,21.6563 Q672.2804,21.6563 672.0461,21.4063 Q671.8117,21.1406 671.8117,20.5313 L671.8117,19.6406 L667.8429,19.6406 L667.8429,22.0938 L669.3273,22.0938 Q669.3273,21.4375 669.4523,21.25 Q669.7179,20.8438 670.1867,20.8438 Q670.5617,20.8438 670.7961,21.1094 Q671.0304,21.3594 671.0304,21.9688 L671.0304,23.9375 Q671.0304,24.4844 670.9054,24.6719 Q670.6398,25.0625 670.1867,25.0625 Q669.7179,25.0625 669.4523,24.6563 Q669.3273,24.4688 669.3273,23.7969 L667.8429,23.7969 Z " fill="#000000"/><text fill="#000000" font-family="sans-serif" font-size="14" lengthAdjust="spacing" textLength="35.8066" x="689.4836" y="28.7285">Salon</text><line style="stroke:#181818;stroke-width:0.5;" x1="601.32" x2="780.9538" y1="39" y2="39"/><ellipse cx="611.32" cy="53.3047" fill="#000000" rx="3" ry="3" style="stroke:#000000;stroke-width:1;"/><text fill="#000000" font-family="sans-serif" font-size="14" lengthAdjust="spacing" textLength="83.2822" x="620.32" y="57.5332">id: guid &#171;PK&#187;</text><line style="stroke:#181818;stroke-width:1;" x1="601.32" x2="780.9538" y1="64.6094" y2="64.6094"/><ellipse cx="611.32" cy="78.9141" fill="#000000" rx="3" ry="3" style="stroke:#000000;stroke-width:1;"/><text fill="#000000" font-family="sans-serif" font-size="14" lengthAdjust="spacing" textLength="101.9307" x="620.32" y="83.1426">name: string(50)</text><ellipse cx="611.32" cy="96.5234" fill="#000000" rx="3" ry="3" style="stroke:#000000;stroke-width:1;"/><text fill="#000000" font-family="sans-serif" font-size="14" lengthAdjust="spacing" textLength="142.3994" x="620.32" y="100.752">description: string(256)</text><ellipse cx="611.32" cy="114.1328" fill="#000000" rx="3" ry="3" style="stroke:#000000;stroke-width:1;"/><text fill="#000000" font-family="sans-serif" font-size="14" lengthAdjust="spacing" textLength="124.5029" x="620.32" y="118.3613">address: string(256)</text><ellipse cx="611.32" cy="131.7422" fill="#000000" rx="3" ry="3" style="stroke:#000000;stroke-width:1;"/><text fill="#000000" font-family="sans-serif" font-size="14" lengthAdjust="spacing" textLength="155.6338" x="620.32" y="135.9707">phoneNumber: string(20)</text><ellipse cx="611.32" cy="149.3516" fill="#000000" rx="3" ry="3" style="stroke:#000000;stroke-width:1;"/><text fill="#000000" font-family="sans-serif" font-size="14" lengthAdjust="spacing" textLength="108.1514" x="620.32" y="153.5801">email: string(128)</text><ellipse cx="611.32" cy="166.9609" fill="#000000" rx="3" ry="3" style="stroke:#000000;stroke-width:1;"/><text fill="#000000" font-family="sans-serif" font-size="14" lengthAdjust="spacing" textLength="115.165" x="620.32" y="171.1895">openingTime: time</text><ellipse cx="611.32" cy="184.5703" fill="#000000" rx="3" ry="3" style="stroke:#000000;stroke-width:1;"/><text fill="#000000" font-family="sans-serif" font-size="14" lengthAdjust="spacing" textLength="108.917" x="620.32" y="188.7988">closingTime: time</text><ellipse cx="611.32" cy="202.1797" fill="#000000" rx="3" ry="3" style="stroke:#000000;stroke-width:1;"/><text fill="#000000" font-family="sans-serif" font-size="14" lengthAdjust="spacing" textLength="91.8203" x="620.32" y="206.4082">leadWeeks: int</text></g><!--link User to UserRole--><g id="link_User_UserRole"><path codeLine="1030" d="M208.14,204.91 C173.9,255.02 133.49,314.17 107.14,352.74 " fill="none" id="User-UserRole" style="stroke:#181818;stroke-width:1;"/><text fill="#000000" font-family="sans-serif" font-size="13" lengthAdjust="spacing" textLength="7.23" x="195.9809" y="226.2787">1</text><text fill="#000000" font-family="sans-serif" font-size="13" lengthAdjust="spacing" textLength="5.0591" x="106.2091" y="342.2961">*</text></g><!--link Role to UserRole--><g id="link_Role_UserRole"><path codeLine="1031" d="M79.14,152.32 C79.14,206.03 79.14,299.55 79.14,353.06 " fill="none" id="Role-UserRole" style="stroke:#181818;stroke-width:1;"/><text fill="#000000" font-family="sans-serif" font-size="13" lengthAdjust="spacing" textLength="7.23" x="71.6431" y="173.1965">1</text><text fill="#000000" font-family="sans-serif" font-size="13" lengthAdjust="spacing" textLength="5.0591" x="73.7312" y="342.3577">*</text></g><!--link User to ServiceStylist--><g id="link_User_ServiceStylist"><path codeLine="1032" d="M345.42,204.91 C384.62,255.02 430.9,314.17 461.07,352.74 " fill="none" id="User-ServiceStylist" style="stroke:#181818;stroke-width:1;"/><text fill="#000000" font-family="sans-serif" font-size="13" lengthAdjust="spacing" textLength="7.23" x="343.7714" y="226.2787">1</text><text fill="#000000" font-family="sans-serif" font-size="13" lengthAdjust="spacing" textLength="5.0591" x="450.5651" y="342.2961">*</text></g><!--link Service to ServiceStylist--><g id="link_Service_ServiceStylist"><path codeLine="1033" d="M484.74,196 C486.94,247.84 489.66,311.84 491.4,352.72 " fill="none" id="Service-ServiceStylist" style="stroke:#181818;stroke-width:1;"/><text fill="#000000" font-family="sans-serif" font-size="13" lengthAdjust="spacing" textLength="7.23" x="477.7578" y="217.2739">1</text><text fill="#000000" font-family="sans-serif" font-size="13" lengthAdjust="spacing" textLength="5.0591" x="485.7289" y="342.2729">*</text></g><!--link User to Appointment--><g id="link_User_Appointment"><path codeLine="1034" d="M276.12,204.91 C277.29,232.54 278.58,262.91 279.78,291.07 " fill="none" id="User-Appointment" style="stroke:#181818;stroke-width:1;"/><text fill="#000000" font-family="sans-serif" font-size="13" lengthAdjust="spacing" textLength="53.46" x="279.5" y="257.9851">customer</text><text fill="#000000" font-family="sans-serif" font-size="13" lengthAdjust="spacing" textLength="7.23" x="269.1657" y="226.2787">1</text><text fill="#000000" font-family="sans-serif" font-size="13" lengthAdjust="spacing" textLength="5.0591" x="274.2997" y="280.7262">*</text></g><!--link User to Appointment--><g id="link_User_Appointment"><path codeLine="1035" d="M237.52,205.05 C234.09,223.66 232.91,243.13 236.14,261.49 C237.85,271.23 240.22,281.2 243,291.08 " fill="none" id="User-Appointment-1" style="stroke:#181818;stroke-width:1;"/><text fill="#000000" font-family="sans-serif" font-size="13" lengthAdjust="spacing" textLength="32.5" x="237.14" y="257.9851">stylist</text><text fill="#000000" font-family="sans-serif" font-size="13" lengthAdjust="spacing" textLength="7.23" x="227.7291" y="226.1076">1</text><text fill="#000000" font-family="sans-serif" font-size="13" lengthAdjust="spacing" textLength="5.0591" x="234.9336" y="280.7369">*</text></g><!--link Service to Appointment--><g id="link_Service_Appointment"><path codeLine="1036" d="M422.03,196 C401.18,225.9 377.5,259.85 355.73,291.07 " fill="none" id="Service-Appointment" style="stroke:#181818;stroke-width:1;"/><text fill="#000000" font-family="sans-serif" font-size="13" lengthAdjust="spacing" textLength="7.23" x="409.8547" y="217.2739">1</text><text fill="#000000" font-family="sans-serif" font-size="13" lengthAdjust="spacing" textLength="5.0591" x="355.5899" y="280.7262">*</text></g><!--SRC=[bLHDIyD04BtdLomvrM2X3LIab88WGX5BiHOFuc6RZ7Lminjs9q8H_xkRxzWaZTwIUM_VldcP2KX2EhAT0Ss-7COyXk6S6T8e3sonsDmlbxOw7cVG6sf3Qnv1oHZD9XSP8dWF0157KLNzsLLUZj-LX7KIxK6NeAtlKLNKgN-TKZ7Y1zZfbeI98K0k2C6KqCkhy-qua3Vqg0GCDoIRbZFbMY6DfA6IsDTLK-akL_AOjgGsKWjjGNzYq7HpI30yxwMCBmGJQ8m9bUm8KLlPkUK4DYKncauk_U9Kedbwv05bGcb0AEbCbcXkGG21TRPNIhIjR-aeq53HWScBgxgHAWgJ4y-bSHF7ojg9xEjG8a5YI4LziVVUDU0nv0HFc6QTFf5zAkGu9QOUlo9ZKiJ5fZleqjzQ4PZJmItiTM2DUBbGyhzpmTZmPF0mr63Cd_Pkv7UkQj66nrGCqXRooAgu0g5Ckog0Xyy07yN8sKwp7uixTMqtpFNSQgkSRBMwWDCJlsVGARUfdt4gq9ouUVNH1cZ5vxDXTrpOe3e_]--></g></svg>