<svg xmlns="http://www.w3.org/2000/svg" xmlns:xlink="http://www.w3.org/1999/xlink" contentStyleType="text/css" height="721px" preserveAspectRatio="none" style="width:627px;height:721px;background:#FFFFFF;" version="1.1" viewBox="0 0 627 721" width="627px" zoomAndPan="magnify"><defs/><g><rect fill="none" height="22.6406" style="stroke:none;stroke-width:1;" width="594.542" x="15" y="12.4551"/><ellipse cx="218.7932" cy="50.0957" fill="#222222" rx="10" ry="10" style="stroke:#222222;stroke-width:1;"/><rect fill="#FFFFE0" height="35.0938" rx="12.5" ry="12.5" style="stroke:#181818;stroke-width:0.5;" width="93.3828" x="172.1018" y="80.0957"/><text fill="#000000" font-family="sans-serif" font-size="12" lengthAdjust="spacing" textLength="73.3828" x="182.1018" y="102.5527">Ch&#7885;n l&#7883;ch h&#7865;n</text><polygon fill="#FFFFE0" points="240.6111,159.1895,279.7395,159.1895,291.7395,171.1895,279.7395,183.1895,240.6111,183.1895,228.6111,171.1895,240.6111,159.1895" style="stroke:#181818;stroke-width:0.5;"/><text fill="#000000" font-family="sans-serif" font-size="11" lengthAdjust="spacing" textLength="39.1284" x="240.6111" y="175.6904">c&#243; m&#7863;t?</text><text fill="#000000" font-family="sans-serif" font-size="11" lengthAdjust="spacing" textLength="11.6177" x="216.9934" y="168.7725">c&#243;</text><text fill="#000000" font-family="sans-serif" font-size="11" lengthAdjust="spacing" textLength="29.9707" x="291.7395" y="168.7725">kh&#244;ng</text><rect fill="#FFFFE0" height="35.0938" rx="12.5" ry="12.5" style="stroke:#181818;stroke-width:0.5;" width="135.4355" x="117.4146" y="193.1895"/><text fill="#000000" font-family="sans-serif" font-size="12" lengthAdjust="spacing" textLength="115.4355" x="127.4146" y="215.6465">&#272;&#225;nh d&#7845;u ho&#224;n th&#224;nh</text><rect fill="#FFFFE0" height="35.0938" rx="12.5" ry="12.5" style="stroke:#181818;stroke-width:0.5;" width="124.7363" x="272.8501" y="193.1895"/><text fill="#000000" font-family="sans-serif" font-size="12" lengthAdjust="spacing" textLength="104.7363" x="282.8501" y="215.6465">&#272;&#225;nh d&#7845;u v&#7855;ng m&#7863;t</text><polygon fill="#FFFFE0" points="260.1753,234.2832,272.1753,246.2832,260.1753,258.2832,248.1753,246.2832,260.1753,234.2832" style="stroke:#181818;stroke-width:0.5;"/><rect fill="#FFFFE0" height="35.0938" rx="12.5" ry="12.5" style="stroke:#181818;stroke-width:0.5;" width="100.0508" x="207.4751" y="302.2832"/><text fill="#000000" font-family="sans-serif" font-size="12" lengthAdjust="spacing" textLength="80.0508" x="217.4751" y="324.7402">Nh&#7853;p l&#253; do h&#7911;y</text><rect fill="#FFFFE0" height="35.0938" rx="12.5" ry="12.5" style="stroke:#181818;stroke-width:0.5;" width="93.3887" x="210.8062" y="367.7119"/><text fill="#000000" font-family="sans-serif" font-size="12" lengthAdjust="spacing" textLength="73.3887" x="220.8062" y="390.1689">X&#225;c nh&#7853;n h&#7911;y</text><polygon fill="#FFFFE0" points="43.5872,135.1895,83.8274,135.1895,95.8274,147.1895,83.8274,159.1895,43.5872,159.1895,31.5872,147.1895,43.5872,135.1895" style="stroke:#181818;stroke-width:0.5;"/><text fill="#000000" font-family="sans-serif" font-size="11" lengthAdjust="spacing" textLength="40.2402" x="43.5872" y="151.6904">t&#7899;i h&#7865;n?</text><text fill="#000000" font-family="sans-serif" font-size="11" lengthAdjust="spacing" textLength="11.6177" x="95.8274" y="144.7725">c&#243;</text><polygon fill="#FFFFE0" points="42,278.2832,85.4146,278.2832,97.4146,290.2832,85.4146,302.2832,42,302.2832,30,290.2832,42,278.2832" style="stroke:#181818;stroke-width:0.5;"/><text fill="#000000" font-family="sans-serif" font-size="11" lengthAdjust="spacing" textLength="43.4146" x="42" y="294.7842">h&#7911;y l&#7883;ch?</text><text fill="#000000" font-family="sans-serif" font-size="11" lengthAdjust="spacing" textLength="11.6177" x="97.4146" y="287.8662">c&#243;</text><rect fill="#FFFFE0" height="35.0938" rx="12.5" ry="12.5" style="stroke:#181818;stroke-width:0.5;" width="90.7168" x="173.4348" y="422.8057"/><text fill="#000000" font-family="sans-serif" font-size="12" lengthAdjust="spacing" textLength="70.7168" x="183.4348" y="445.2627">Nh&#7853;p ghi ch&#250;</text><rect fill="#FFFFE0" height="35.0938" rx="12.5" ry="12.5" style="stroke:#181818;stroke-width:0.5;" width="123.4121" x="157.0872" y="477.8994"/><text fill="#000000" font-family="sans-serif" font-size="12" lengthAdjust="spacing" textLength="103.4121" x="167.0872" y="500.3564">Ch&#7845;p nh&#7853;n l&#7883;ch h&#7865;n</text><polygon fill="#FFFFE0" points="218.7932,532.9932,230.7932,544.9932,218.7932,556.9932,206.7932,544.9932,218.7932,532.9932" style="stroke:#181818;stroke-width:0.5;"/><line style="stroke:#000000;stroke-width:1.5;" x1="15" x2="15" y1="12.4551" y2="709.1807"/><rect fill="#98FB98" height="696.7256" style="stroke:#98FB98;stroke-width:1;" width="185.4551" x="422.5864" y="12.4551"/><rect fill="#FFFFE0" height="35.0938" rx="12.5" ry="12.5" style="stroke:#181818;stroke-width:0.5;" width="114.0664" x="459.2808" y="576.9932"/><text fill="#000000" font-family="sans-serif" font-size="12" lengthAdjust="spacing" textLength="94.0664" x="469.2808" y="599.4502">Ghi nh&#7853;n thay &#273;&#7893;i</text><rect fill="#FFFFE0" height="35.0938" rx="12.5" ry="12.5" style="stroke:#181818;stroke-width:0.5;" width="175.4551" x="428.5864" y="632.0869"/><text fill="#000000" font-family="sans-serif" font-size="12" lengthAdjust="spacing" textLength="155.4551" x="438.5864" y="654.5439">G&#7917;i th&#244;ng b&#225;o &#273;&#7871;n Customer</text><ellipse cx="516.314" cy="698.1807" fill="none" rx="11" ry="11" style="stroke:#222222;stroke-width:1;"/><ellipse cx="516.314" cy="698.1807" fill="#222222" rx="6" ry="6" style="stroke:#222222;stroke-width:1;"/><line style="stroke:#000000;stroke-width:1.5;" x1="422.5864" x2="422.5864" y1="12.4551" y2="709.1807"/><line style="stroke:#000000;stroke-width:1.5;" x1="608.0415" x2="608.0415" y1="12.4551" y2="709.1807"/><line style="stroke:#181818;stroke-width:1;" x1="218.7932" x2="218.7932" y1="60.0957" y2="80.0957"/><polygon fill="#181818" points="214.7932,70.0957,218.7932,80.0957,222.7932,70.0957,218.7932,74.0957" style="stroke:#181818;stroke-width:1;"/><line style="stroke:#181818;stroke-width:1;" x1="228.6111" x2="185.1323" y1="171.1895" y2="171.1895"/><line style="stroke:#181818;stroke-width:1;" x1="185.1323" x2="185.1323" y1="171.1895" y2="193.1895"/><polygon fill="#181818" points="181.1323,183.1895,185.1323,193.1895,189.1323,183.1895,185.1323,187.1895" style="stroke:#181818;stroke-width:1;"/><line style="stroke:#181818;stroke-width:1;" x1="291.7395" x2="335.2183" y1="171.1895" y2="171.1895"/><line style="stroke:#181818;stroke-width:1;" x1="335.2183" x2="335.2183" y1="171.1895" y2="193.1895"/><polygon fill="#181818" points="331.2183,183.1895,335.2183,193.1895,339.2183,183.1895,335.2183,187.1895" style="stroke:#181818;stroke-width:1;"/><line style="stroke:#181818;stroke-width:1;" x1="185.1323" x2="185.1323" y1="228.2832" y2="246.2832"/><line style="stroke:#181818;stroke-width:1;" x1="185.1323" x2="248.1753" y1="246.2832" y2="246.2832"/><polygon fill="#181818" points="238.1753,242.2832,248.1753,246.2832,238.1753,250.2832,242.1753,246.2832" style="stroke:#181818;stroke-width:1;"/><line style="stroke:#181818;stroke-width:1;" x1="335.2183" x2="335.2183" y1="228.2832" y2="246.2832"/><line style="stroke:#181818;stroke-width:1;" x1="335.2183" x2="272.1753" y1="246.2832" y2="246.2832"/><polygon fill="#181818" points="282.1753,242.2832,272.1753,246.2832,282.1753,250.2832,278.1753,246.2832" style="stroke:#181818;stroke-width:1;"/><line style="stroke:#181818;stroke-width:1;" x1="257.5005" x2="257.5005" y1="337.377" y2="367.7119"/><polygon fill="#181818" points="253.5005,357.7119,257.5005,367.7119,261.5005,357.7119,257.5005,361.7119" style="stroke:#181818;stroke-width:1;"/><line style="stroke:#181818;stroke-width:1;" x1="218.7932" x2="218.7932" y1="457.8994" y2="477.8994"/><polygon fill="#181818" points="214.7932,467.8994,218.7932,477.8994,222.7932,467.8994,218.7932,471.8994" style="stroke:#181818;stroke-width:1;"/><line style="stroke:#181818;stroke-width:1;" x1="95.8274" x2="260.1753" y1="147.1895" y2="147.1895"/><line style="stroke:#181818;stroke-width:1;" x1="260.1753" x2="260.1753" y1="147.1895" y2="159.1895"/><polygon fill="#181818" points="256.1753,149.1895,260.1753,159.1895,264.1753,149.1895,260.1753,153.1895" style="stroke:#181818;stroke-width:1;"/><line style="stroke:#181818;stroke-width:1;" x1="97.4146" x2="257.5005" y1="290.2832" y2="290.2832"/><line style="stroke:#181818;stroke-width:1;" x1="257.5005" x2="257.5005" y1="290.2832" y2="302.2832"/><polygon fill="#181818" points="253.5005,292.2832,257.5005,302.2832,261.5005,292.2832,257.5005,296.2832" style="stroke:#181818;stroke-width:1;"/><line style="stroke:#181818;stroke-width:1;" x1="63.7073" x2="63.7073" y1="159.1895" y2="278.2832"/><polygon fill="#181818" points="59.7073,268.2832,63.7073,278.2832,67.7073,268.2832,63.7073,272.2832" style="stroke:#181818;stroke-width:1;"/><line style="stroke:#181818;stroke-width:1;" x1="260.1753" x2="260.1753" y1="258.2832" y2="273.2832"/><line style="stroke:#181818;stroke-width:1;" x1="260.1753" x2="407.5864" y1="273.2832" y2="273.2832"/><line style="stroke:#181818;stroke-width:1;" x1="407.5864" x2="407.5864" y1="273.2832" y2="544.9932"/><line style="stroke:#181818;stroke-width:1;" x1="407.5864" x2="230.7932" y1="544.9932" y2="544.9932"/><polygon fill="#181818" points="240.7932,540.9932,230.7932,544.9932,240.7932,548.9932,236.7932,544.9932" style="stroke:#181818;stroke-width:1;"/><line style="stroke:#181818;stroke-width:1;" x1="257.5005" x2="257.5005" y1="402.8057" y2="417.8057"/><line style="stroke:#181818;stroke-width:1;" x1="257.5005" x2="407.5864" y1="417.8057" y2="417.8057"/><polygon fill="#181818" points="397.5864,413.8057,407.5864,417.8057,397.5864,421.8057,401.5864,417.8057" style="stroke:#181818;stroke-width:1;"/><line style="stroke:#181818;stroke-width:1;" x1="218.7932" x2="218.7932" y1="115.1895" y2="120.1895"/><line style="stroke:#181818;stroke-width:1;" x1="218.7932" x2="63.7073" y1="120.1895" y2="120.1895"/><line style="stroke:#181818;stroke-width:1;" x1="63.7073" x2="63.7073" y1="120.1895" y2="135.1895"/><polygon fill="#181818" points="59.7073,125.1895,63.7073,135.1895,67.7073,125.1895,63.7073,129.1895" style="stroke:#181818;stroke-width:1;"/><line style="stroke:#181818;stroke-width:1;" x1="63.7073" x2="63.7073" y1="302.2832" y2="407.8057"/><line style="stroke:#181818;stroke-width:1;" x1="63.7073" x2="218.7932" y1="407.8057" y2="407.8057"/><line style="stroke:#181818;stroke-width:1;" x1="218.7932" x2="218.7932" y1="407.8057" y2="422.8057"/><polygon fill="#181818" points="214.7932,412.8057,218.7932,422.8057,222.7932,412.8057,218.7932,416.8057" style="stroke:#181818;stroke-width:1;"/><text fill="#000000" font-family="sans-serif" font-size="11" lengthAdjust="spacing" textLength="29.9707" x="63.7073" y="359.7129">kh&#244;ng</text><line style="stroke:#181818;stroke-width:1;" x1="218.7932" x2="218.7932" y1="512.9932" y2="517.9932"/><line style="stroke:#181818;stroke-width:1;" x1="218.7932" x2="218.7932" y1="517.9932" y2="532.9932"/><polygon fill="#181818" points="214.7932,522.9932,218.7932,532.9932,222.7932,522.9932,218.7932,526.9932" style="stroke:#181818;stroke-width:1;"/><line style="stroke:#181818;stroke-width:1;" x1="516.314" x2="516.314" y1="612.0869" y2="632.0869"/><polygon fill="#181818" points="512.314,622.0869,516.314,632.0869,520.314,622.0869,516.314,626.0869" style="stroke:#181818;stroke-width:1;"/><line style="stroke:#181818;stroke-width:1;" x1="516.314" x2="516.314" y1="667.1807" y2="687.1807"/><polygon fill="#181818" points="512.314,677.1807,516.314,687.1807,520.314,677.1807,516.314,681.1807" style="stroke:#181818;stroke-width:1;"/><line style="stroke:#181818;stroke-width:1;" x1="218.7932" x2="218.7932" y1="556.9932" y2="561.9932"/><line style="stroke:#181818;stroke-width:1;" x1="218.7932" x2="516.314" y1="561.9932" y2="561.9932"/><line style="stroke:#181818;stroke-width:1;" x1="516.314" x2="516.314" y1="561.9932" y2="576.9932"/><polygon fill="#181818" points="512.314,566.9932,516.314,576.9932,520.314,566.9932,516.314,570.9932" style="stroke:#181818;stroke-width:1;"/><text fill="#000000" font-family="sans-serif" font-size="18" lengthAdjust="spacing" textLength="48.0059" x="194.7903" y="31.1406">Stylist</text><text fill="#000000" font-family="sans-serif" font-size="18" lengthAdjust="spacing" textLength="60.0117" x="485.3081" y="31.1406">System</text><!--SRC=[TP6nIWGn48RxFCM8pVaAkuNW5IA8pO5e6NTpct3PoPBDdYokJo225bOsNd5O7HOAuYvYaNkHl8d9xLuXXoa2cV__PducUuMcMKwXAjavqqOaL9vCGI4XvKnWGJNDWIP6p8MfuOQ0FqSqcMLQLPYEbLGQJaN6pIMJKbsJMqAQYQcbA4r3IaEr8T6Ok-uUGRhkBk70NVk5CH5J61dNFOk-S7W0XZE4KMBV3pPJWi4_87VjfzcLmudM3tQ175BNBYlWohwWj_cRnniFaoM3qOpR3yp-e-QkVSEidp9Gc8ef2Mo8uBE_raFstHJHcK-_Aa3QRqWLRCnzb-Z2BXB08EEslfjdosTSGC9jEx1-O-sosD9_5zV7Q_OBAbcc6SDcKfU6vGs9ZdsNWJ6Srh1-TDsJYBtWkfK8g_63uSekL93Q7uHnLHgLCntxlr85-GK0]--></g></svg>