<svg xmlns="http://www.w3.org/2000/svg" xmlns:xlink="http://www.w3.org/1999/xlink" contentStyleType="text/css" height="735px" preserveAspectRatio="none" style="width:325px;height:735px;background:#FFFFFF;" version="1.1" viewBox="0 0 325 735" width="325px" zoomAndPan="magnify"><defs/><g><rect fill="none" height="22.6406" style="stroke:none;stroke-width:1;" width="292.3481" x="15" y="12.4551"/><ellipse cx="78.7012" cy="50.0957" fill="#222222" rx="10" ry="10" style="stroke:#222222;stroke-width:1;"/><rect fill="#FFFFE0" height="35.0938" rx="12.5" ry="12.5" style="stroke:#181818;stroke-width:0.5;" width="90.043" x="33.6797" y="80.0957"/><text fill="#000000" font-family="sans-serif" font-size="12" lengthAdjust="spacing" textLength="70.043" x="43.6797" y="102.5527">Ch&#7885;n d&#7883;ch v&#7909;</text><rect fill="#FFFFE0" height="35.0938" rx="12.5" ry="12.5" style="stroke:#181818;stroke-width:0.5;" width="82.0215" x="37.6904" y="135.1895"/><text fill="#000000" font-family="sans-serif" font-size="12" lengthAdjust="spacing" textLength="62.0215" x="47.6904" y="157.6465">Ch&#7885;n stylist</text><rect fill="#FFFFE0" height="35.0938" rx="12.5" ry="12.5" style="stroke:#181818;stroke-width:0.5;" width="78.043" x="39.6797" y="289.377"/><text fill="#000000" font-family="sans-serif" font-size="12" lengthAdjust="spacing" textLength="58.043" x="49.6797" y="311.834">Ch&#7885;n ng&#224;y</text><rect fill="#FFFFE0" height="35.0938" rx="12.5" ry="12.5" style="stroke:#181818;stroke-width:0.5;" width="69.2305" x="44.0859" y="399.5645"/><text fill="#000000" font-family="sans-serif" font-size="12" lengthAdjust="spacing" textLength="49.2305" x="54.0859" y="422.0215">Ch&#7885;n gi&#7901;</text><rect fill="#FFFFE0" height="35.0938" rx="12.5" ry="12.5" style="stroke:#181818;stroke-width:0.5;" width="108.7109" x="24.3457" y="454.6582"/><text fill="#000000" font-family="sans-serif" font-size="12" lengthAdjust="spacing" textLength="88.7109" x="34.3457" y="477.1152">Ghi ch&#250; (n&#7871;u c&#243;)</text><rect fill="#FFFFE0" height="35.0938" rx="12.5" ry="12.5" style="stroke:#181818;stroke-width:0.5;" width="115.4023" x="21" y="524.7051"/><text fill="#000000" font-family="sans-serif" font-size="12" lengthAdjust="spacing" textLength="95.4023" x="31" y="547.1621">X&#225;c nh&#7853;n l&#7883;ch h&#7865;n</text><ellipse cx="78.7012" cy="700.9863" fill="none" rx="11" ry="11" style="stroke:#222222;stroke-width:1;"/><ellipse cx="78.7012" cy="700.9863" fill="#222222" rx="6" ry="6" style="stroke:#222222;stroke-width:1;"/><polygon fill="#FFFFE0" points="78.7012,245.377,90.7012,257.377,78.7012,269.377,66.7012,257.377,78.7012,245.377" style="stroke:#181818;stroke-width:0.5;"/><line style="stroke:#000000;stroke-width:1.5;" x1="15" x2="15" y1="12.4551" y2="723.9863"/><rect fill="#98FB98" height="711.5313" style="stroke:#98FB98;stroke-width:1;" width="165.4453" x="140.4023" y="12.4551"/><rect fill="#FFFFE0" height="35.0938" rx="12.5" ry="12.5" style="stroke:#181818;stroke-width:0.5;" width="146.082" x="151.084" y="190.2832"/><text fill="#000000" font-family="sans-serif" font-size="12" lengthAdjust="spacing" textLength="126.082" x="161.084" y="212.7402">Hi&#7875;n th&#7883; ng&#224;y c&#243; th&#7875; &#273;&#7863;t</text><rect fill="#FFFFE0" height="35.0938" rx="12.5" ry="12.5" style="stroke:#181818;stroke-width:0.5;" width="137.2695" x="155.4902" y="344.4707"/><text fill="#000000" font-family="sans-serif" font-size="12" lengthAdjust="spacing" textLength="117.2695" x="165.4902" y="366.9277">Hi&#7875;n th&#7883; gi&#7901; c&#243; th&#7875; &#273;&#7863;t</text><rect fill="#FFFFE0" height="35.0938" rx="12.5" ry="12.5" style="stroke:#181818;stroke-width:0.5;" width="113.3984" x="167.4258" y="579.7988"/><text fill="#000000" font-family="sans-serif" font-size="12" lengthAdjust="spacing" textLength="93.3984" x="177.4258" y="602.2559">Ghi nh&#7853;n l&#7883;ch h&#7865;n</text><rect fill="#FFFFE0" height="35.0938" rx="12.5" ry="12.5" style="stroke:#181818;stroke-width:0.5;" width="155.4453" x="146.4023" y="634.8926"/><text fill="#000000" font-family="sans-serif" font-size="12" lengthAdjust="spacing" textLength="135.4453" x="156.4023" y="657.3496">G&#7917;i th&#244;ng b&#225;o &#273;&#7871;n Stylist</text><line style="stroke:#000000;stroke-width:1.5;" x1="140.4023" x2="140.4023" y1="12.4551" y2="723.9863"/><line style="stroke:#000000;stroke-width:1.5;" x1="305.8477" x2="305.8477" y1="12.4551" y2="723.9863"/><line style="stroke:#181818;stroke-width:1;" x1="78.7012" x2="78.7012" y1="60.0957" y2="80.0957"/><polygon fill="#181818" points="74.7012,70.0957,78.7012,80.0957,82.7012,70.0957,78.7012,74.0957" style="stroke:#181818;stroke-width:1;"/><line style="stroke:#181818;stroke-width:1;" x1="78.7012" x2="78.7012" y1="115.1895" y2="135.1895"/><polygon fill="#181818" points="74.7012,125.1895,78.7012,135.1895,82.7012,125.1895,78.7012,129.1895" style="stroke:#181818;stroke-width:1;"/><line style="stroke:#181818;stroke-width:1;" x1="78.7012" x2="78.7012" y1="434.6582" y2="454.6582"/><polygon fill="#181818" points="74.7012,444.6582,78.7012,454.6582,82.7012,444.6582,78.7012,448.6582" style="stroke:#181818;stroke-width:1;"/><line style="stroke:#181818;stroke-width:1;" x1="78.7012" x2="78.7012" y1="489.752" y2="524.7051"/><polygon fill="#181818" points="74.7012,514.7051,78.7012,524.7051,82.7012,514.7051,78.7012,518.7051" style="stroke:#181818;stroke-width:1;"/><line style="stroke:#181818;stroke-width:1;" x1="78.7012" x2="78.7012" y1="269.377" y2="289.377"/><polygon fill="#181818" points="74.7012,279.377,78.7012,289.377,82.7012,279.377,78.7012,283.377" style="stroke:#181818;stroke-width:1;"/><line style="stroke:#181818;stroke-width:1;" x1="78.7012" x2="69.7012" y1="723.9863" y2="723.9863"/><polygon fill="#181818" points="65.7012,504.7051,69.7012,494.7051,73.7012,504.7051,69.7012,500.7051" style="stroke:#181818;stroke-width:1;"/><line style="stroke:#181818;stroke-width:1;" x1="69.7012" x2="69.7012" y1="257.377" y2="723.9863"/><line style="stroke:#181818;stroke-width:1;" x1="69.7012" x2="66.7012" y1="257.377" y2="257.377"/><polygon fill="#181818" points="56.7012,253.377,66.7012,257.377,56.7012,261.377,60.7012,257.377" style="stroke:#181818;stroke-width:1;"/><line style="stroke:#181818;stroke-width:1;" x1="224.125" x2="224.125" y1="614.8926" y2="634.8926"/><polygon fill="#181818" points="220.125,624.8926,224.125,634.8926,228.125,624.8926,224.125,628.8926" style="stroke:#181818;stroke-width:1;"/><line style="stroke:#181818;stroke-width:1;" x1="78.7012" x2="78.7012" y1="170.2832" y2="175.2832"/><line style="stroke:#181818;stroke-width:1;" x1="78.7012" x2="224.125" y1="175.2832" y2="175.2832"/><line style="stroke:#181818;stroke-width:1;" x1="224.125" x2="224.125" y1="175.2832" y2="190.2832"/><polygon fill="#181818" points="220.125,180.2832,224.125,190.2832,228.125,180.2832,224.125,184.2832" style="stroke:#181818;stroke-width:1;"/><line style="stroke:#181818;stroke-width:1;" x1="78.7012" x2="78.7012" y1="324.4707" y2="329.4707"/><line style="stroke:#181818;stroke-width:1;" x1="78.7012" x2="224.125" y1="329.4707" y2="329.4707"/><line style="stroke:#181818;stroke-width:1;" x1="224.125" x2="224.125" y1="329.4707" y2="344.4707"/><polygon fill="#181818" points="220.125,334.4707,224.125,344.4707,228.125,334.4707,224.125,338.4707" style="stroke:#181818;stroke-width:1;"/><line style="stroke:#181818;stroke-width:1;" x1="224.125" x2="224.125" y1="379.5645" y2="384.5645"/><line style="stroke:#181818;stroke-width:1;" x1="224.125" x2="78.7012" y1="384.5645" y2="384.5645"/><line style="stroke:#181818;stroke-width:1;" x1="78.7012" x2="78.7012" y1="384.5645" y2="399.5645"/><polygon fill="#181818" points="74.7012,389.5645,78.7012,399.5645,82.7012,389.5645,78.7012,393.5645" style="stroke:#181818;stroke-width:1;"/><line style="stroke:#181818;stroke-width:1;" x1="78.7012" x2="78.7012" y1="559.7988" y2="564.7988"/><line style="stroke:#181818;stroke-width:1;" x1="78.7012" x2="224.125" y1="564.7988" y2="564.7988"/><line style="stroke:#181818;stroke-width:1;" x1="224.125" x2="224.125" y1="564.7988" y2="579.7988"/><polygon fill="#181818" points="220.125,569.7988,224.125,579.7988,228.125,569.7988,224.125,573.7988" style="stroke:#181818;stroke-width:1;"/><line style="stroke:#181818;stroke-width:1;" x1="224.125" x2="224.125" y1="669.9863" y2="674.9863"/><line style="stroke:#181818;stroke-width:1;" x1="224.125" x2="78.7012" y1="674.9863" y2="674.9863"/><line style="stroke:#181818;stroke-width:1;" x1="78.7012" x2="78.7012" y1="674.9863" y2="689.9863"/><polygon fill="#181818" points="74.7012,679.9863,78.7012,689.9863,82.7012,679.9863,78.7012,683.9863" style="stroke:#181818;stroke-width:1;"/><line style="stroke:#181818;stroke-width:1;" x1="224.125" x2="224.125" y1="225.377" y2="230.377"/><line style="stroke:#181818;stroke-width:1;" x1="224.125" x2="78.7012" y1="230.377" y2="230.377"/><line style="stroke:#181818;stroke-width:1;" x1="78.7012" x2="78.7012" y1="230.377" y2="245.377"/><polygon fill="#181818" points="74.7012,235.377,78.7012,245.377,82.7012,235.377,78.7012,239.377" style="stroke:#181818;stroke-width:1;"/><text fill="#000000" font-family="sans-serif" font-size="18" lengthAdjust="spacing" textLength="78.0205" x="38.6909" y="31.1406">Customer</text><text fill="#000000" font-family="sans-serif" font-size="18" lengthAdjust="spacing" textLength="60.0117" x="193.1191" y="31.1406">System</text><!--SRC=[VL2zJiCm4Dxz52Unm2ka6ndAmDO5HkDQjbNd7DbEKKIOEbOCF00I7HWxWOI8XmxcHVmcE46q7Ifk-qxVtvrRAAoffHLGvjLI-HOU2EIvf6mXh6bmNXfjB5mh8VqjrzhSaqT2kh9ntbJSTiHvQZqfIfd24y8yXJMJi4pXRR9VEjzgvVo4T6SrrLnOph6RjSxpgYF5bKfXXU0pTmqeuciBBBwFU0NVpwd_79I7GCjhJW-9eo8JJlk935x-z_ip6gcvz5GgO3BsS8wftpM3-2AlR-A60ShKRn7qxvKPVE5nz20zIIccAMnLxX0_KC1Tt9YnoGvXjl_DyKjD_GC0]--></g></svg>